<svg width="89" height="91" viewBox="0 0 89 91" fill="none" xmlns="http://www.w3.org/2000/svg">
<g clip-path="url(#clip0_14_814)">
<path d="M88.3221 3.93146C87.6278 2.86539 86.6788 1.9891 85.5609 1.38174C84.443 0.77438 83.1914 0.455088 81.9192 0.452708H59.6854C58.2415 0.445872 56.8263 0.856161 55.61 1.63427C54.3936 2.41237 53.4279 3.52518 52.8288 4.83896L44.4999 22.7369L36.1308 4.83896C35.5317 3.52518 34.5659 2.41237 33.3495 1.63427C32.1332 0.856161 30.718 0.445872 29.2741 0.452708H7.05043C5.77881 0.458309 4.52913 0.784476 3.41697 1.40105C2.30481 2.01761 1.36608 2.90467 0.687603 3.98019C0.00912555 5.0557 -0.387193 6.28493 -0.464699 7.55421C-0.542204 8.82348 -0.298393 10.0918 0.244184 11.2419L19.0496 51.676C17.5333 55.1958 16.7445 58.9857 16.7304 62.8181C16.7304 70.1724 19.6519 77.2254 24.8521 82.4256C30.0523 87.6258 37.1054 90.5473 44.4596 90.5473C51.8138 90.5473 58.8669 87.6258 64.0671 82.4256C69.2673 77.2254 72.1888 70.1724 72.1888 62.8181C72.1994 58.9995 71.4093 55.221 69.8696 51.7265L88.7758 11.2419C89.3142 10.0818 89.5547 8.80566 89.4754 7.52916C89.3962 6.25267 88.9998 5.0161 88.3221 3.93146ZM4.78169 9.12437C4.60454 8.73123 4.52573 8.30088 4.55209 7.87048C4.57844 7.44008 4.70915 7.02255 4.93293 6.65396C5.15862 6.297 5.47137 6.00329 5.84179 5.80044C6.2122 5.5976 6.62812 5.49228 7.05043 5.49437H29.2842C29.7697 5.49267 30.2457 5.62927 30.6564 5.88819C31.0671 6.14712 31.3956 6.51766 31.6034 6.95646L44.7621 35.089H44.4596C40.1081 35.0965 35.8194 36.1272 31.9397 38.0977C28.06 40.0682 24.6979 42.9234 22.125 46.4327L4.78169 9.12437ZM44.4596 85.5056C39.9724 85.5056 35.586 84.175 31.8551 81.6821C28.1242 79.1892 25.2162 75.6459 23.4991 71.5003C21.7819 67.3547 21.3326 62.793 22.208 58.392C23.0834 53.9911 25.2442 49.9485 28.4171 46.7756C31.59 43.6027 35.6325 41.442 40.0335 40.5666C44.4344 39.6912 48.9961 40.1404 53.1417 41.8576C57.2873 43.5748 60.8306 46.4827 63.3236 50.2136C65.8165 53.9446 67.1471 58.331 67.1471 62.8181C67.1471 65.7975 66.5603 68.7477 65.4201 71.5003C64.28 74.2528 62.6088 76.7539 60.5021 78.8606C58.3954 80.9673 55.8943 82.6385 53.1417 83.7786C50.3892 84.9188 47.439 85.5056 44.4596 85.5056ZM84.2384 9.12437L66.7942 46.4327C62.8682 41.0414 57.1166 37.2608 50.6104 35.7948L47.2829 28.6356L57.3663 6.95646C57.5741 6.51766 57.9025 6.14712 58.3132 5.88819C58.724 5.62927 59.1999 5.49267 59.6854 5.49437H81.9192C82.3426 5.48641 82.7607 5.58921 83.1321 5.79261C83.5035 5.99601 83.8154 6.29293 84.0367 6.65396C84.278 7.01445 84.4231 7.43062 84.4584 7.86297C84.4937 8.29532 84.418 8.72952 84.2384 9.12437Z" fill="#F74B35"/>
<path d="M44.8881 70.1033L50.0508 72.8157C50.196 72.8929 50.36 72.9277 50.524 72.9162C50.688 72.9047 50.8455 72.8473 50.9785 72.7506C51.1115 72.6539 51.2146 72.5217 51.2761 72.3692C51.3376 72.2167 51.355 72.05 51.3263 71.8881L50.318 66.1406C50.2946 66 50.3057 65.8559 50.3505 65.7206C50.3953 65.5853 50.4724 65.463 50.5751 65.3642L54.7496 61.2955C54.8701 61.18 54.9553 61.0326 54.9954 60.8705C55.0354 60.7084 55.0286 60.5383 54.9758 60.3799C54.923 60.2215 54.8264 60.0813 54.6971 59.9757C54.5678 59.87 54.4112 59.8032 54.2454 59.783L48.5332 58.9562C48.3896 58.9328 48.2539 58.8746 48.1379 58.7868C48.0219 58.6989 47.9292 58.584 47.8677 58.452L45.2864 53.2238C45.2145 53.0758 45.1023 52.951 44.9628 52.8636C44.8233 52.7763 44.662 52.73 44.4974 52.73C44.3328 52.73 44.1715 52.7763 44.032 52.8636C43.8925 52.951 43.7803 53.0758 43.7084 53.2238L41.127 58.452C41.0672 58.5841 40.9755 58.6993 40.8603 58.7873C40.745 58.8753 40.6098 58.9333 40.4666 58.9562L34.6939 59.7931C34.5281 59.8133 34.3715 59.8801 34.2422 59.9857C34.1129 60.0914 34.0163 60.2315 33.9635 60.3899C33.9107 60.5483 33.9039 60.7185 33.944 60.8805C33.984 61.0426 34.0692 61.19 34.1897 61.3056L38.3642 65.3743C38.466 65.4735 38.5421 65.5961 38.5861 65.7314C38.63 65.8666 38.6403 66.0105 38.6163 66.1507L37.608 71.8982C37.5793 72.0601 37.5967 72.2268 37.6582 72.3793C37.7197 72.5318 37.8228 72.664 37.9558 72.7607C38.0888 72.8574 38.2463 72.9148 38.4103 72.9263C38.5743 72.9378 38.7383 72.903 38.8835 72.8258L44.0462 70.1134C44.1741 70.0404 44.3185 70.0011 44.4658 69.9993C44.6131 69.9976 44.7585 70.0333 44.8881 70.1033Z" fill="#F74B35"/>
</g>
<defs>
<clipPath id="clip0_14_814">
<rect width="89" height="91" fill="white"/>
</clipPath>
</defs>
</svg>
