<svg width="32" height="32" viewBox="0 0 32 32" fill="none" xmlns="http://www.w3.org/2000/svg">
<path d="M17.3708 2.6679C18.3438 2.66417 19.3167 2.67395 20.2895 2.69723L20.5481 2.70657C20.8468 2.71723 21.1415 2.73057 21.4975 2.74657C22.9161 2.81323 23.8841 3.03723 24.7335 3.36657C25.6135 3.70523 26.3548 4.1639 27.0961 4.90523C27.774 5.57138 28.2986 6.37716 28.6335 7.26657C28.9628 8.1159 29.1868 9.08523 29.2535 10.5039C29.2695 10.8586 29.2828 11.1546 29.2935 11.4532L29.3015 11.7119C29.3251 12.6842 29.3354 13.6567 29.3321 14.6292L29.3335 15.6239V17.3706C29.3367 18.3436 29.3265 19.3165 29.3028 20.2892L29.2948 20.5479C29.2841 20.8466 29.2708 21.1412 29.2548 21.4972C29.1881 22.9159 28.9615 23.8839 28.6335 24.7332C28.2997 25.6236 27.7749 26.43 27.0961 27.0959C26.4294 27.7737 25.6232 28.2982 24.7335 28.6332C23.8841 28.9626 22.9161 29.1866 21.4975 29.2532C21.1415 29.2692 20.8468 29.2826 20.5481 29.2932L20.2895 29.3012C19.3168 29.3249 18.3438 29.3352 17.3708 29.3319L16.3761 29.3332H14.6308C13.6578 29.3365 12.6848 29.3263 11.7121 29.3026L11.4535 29.2946C11.1369 29.2831 10.8205 29.2698 10.5041 29.2546C9.08545 29.1879 8.11745 28.9612 7.26678 28.6332C6.37703 28.299 5.5711 27.7743 4.90545 27.0959C4.22685 26.4296 3.70175 25.6233 3.36679 24.7332C3.03745 23.8839 2.81345 22.9159 2.74678 21.4972C2.73194 21.1809 2.7186 20.8644 2.70678 20.5479L2.70012 20.2892C2.67554 19.3165 2.66442 18.3436 2.66678 17.3706V14.6292C2.66306 13.6567 2.67284 12.6842 2.69612 11.7119L2.70545 11.4532C2.71612 11.1546 2.72945 10.8586 2.74545 10.5039C2.81212 9.0839 3.03612 8.11723 3.36545 7.26657C3.70062 6.37673 4.22674 5.57116 4.90679 4.90657C5.57198 4.22757 6.3774 3.702 7.26678 3.36657C8.11745 3.03723 9.08412 2.81323 10.5041 2.74657L11.4535 2.70657L11.7121 2.6999C12.6844 2.67533 13.6569 2.66422 14.6295 2.66657L17.3708 2.6679ZM16.0001 9.33457C15.1168 9.32207 14.2398 9.48527 13.4201 9.81466C12.6004 10.144 11.8543 10.6331 11.2252 11.2533C10.5962 11.8735 10.0967 12.6126 9.7557 13.4276C9.41475 14.2426 9.23917 15.1172 9.23917 16.0006C9.23917 16.884 9.41475 17.7586 9.7557 18.5736C10.0967 19.3885 10.5962 20.1276 11.2252 20.7478C11.8543 21.3681 12.6004 21.8571 13.4201 22.1865C14.2398 22.5159 15.1168 22.6791 16.0001 22.6666C17.7682 22.6666 19.4639 21.9642 20.7142 20.7139C21.9644 19.4637 22.6668 17.768 22.6668 15.9999C22.6668 14.2318 21.9644 12.5361 20.7142 11.2859C19.4639 10.0356 17.7682 9.33457 16.0001 9.33457ZM16.0001 12.0012C16.5315 11.9914 17.0594 12.0876 17.5532 12.2842C18.0469 12.4807 18.4966 12.7737 18.8758 13.146C19.2551 13.5182 19.5564 13.9623 19.762 14.4524C19.9677 14.9424 20.0737 15.4685 20.0738 15.9999C20.0739 16.5313 19.9681 17.0574 19.7626 17.5475C19.557 18.0376 19.2559 18.4818 18.8768 18.8542C18.4976 19.2266 18.0481 19.5197 17.5544 19.7164C17.0607 19.9131 16.5328 20.0095 16.0015 19.9999C14.9406 19.9999 13.9232 19.5785 13.173 18.8283C12.4229 18.0782 12.0015 17.0608 12.0015 15.9999C12.0015 14.939 12.4229 13.9216 13.173 13.1715C13.9232 12.4213 14.9406 11.9999 16.0015 11.9999L16.0001 12.0012ZM23.0001 7.33457C22.57 7.35178 22.1632 7.53477 21.8649 7.8452C21.5667 8.15562 21.4001 8.56941 21.4001 8.9999C21.4001 9.43039 21.5667 9.84418 21.8649 10.1546C22.1632 10.465 22.57 10.648 23.0001 10.6652C23.4421 10.6652 23.8661 10.4896 24.1786 10.1771C24.4912 9.86452 24.6668 9.44059 24.6668 8.99857C24.6668 8.55654 24.4912 8.13262 24.1786 7.82006C23.8661 7.5075 23.4421 7.3319 23.0001 7.3319V7.33457Z" fill="white"/>
</svg>
