<svg width="92" height="103" viewBox="0 0 92 103" fill="none" xmlns="http://www.w3.org/2000/svg">
<path d="M81.3125 79.8594H54.8438C54.3423 79.8594 53.8615 80.0586 53.5069 80.4131C53.1523 80.7677 52.9531 81.2486 52.9531 81.75V87.4219C52.9531 91.4333 54.5467 95.2804 57.3832 98.1169C60.2196 100.953 64.0667 102.547 68.0781 102.547C72.0895 102.547 75.9366 100.953 78.7731 98.1169C81.6096 95.2804 83.2031 91.4333 83.2031 87.4219V81.75C83.2031 81.2486 83.004 80.7677 82.6494 80.4131C82.2948 80.0586 81.8139 79.8594 81.3125 79.8594ZM79.4219 87.4219C79.4219 90.4304 78.2268 93.3158 76.0994 95.4431C73.972 97.5705 71.0867 98.7656 68.0781 98.7656C65.0696 98.7656 62.1843 97.5705 60.0569 95.4431C57.9295 93.3158 56.7344 90.4304 56.7344 87.4219V83.6406H79.4219V87.4219ZM32.1563 68.5156H5.68752C5.18609 68.5156 4.7052 68.7148 4.35064 69.0694C3.99608 69.4239 3.79689 69.9048 3.79689 70.4062V76.0781C3.79689 80.0895 5.39041 83.9366 8.2269 86.7731C11.0634 89.6096 14.9105 91.2031 18.9219 91.2031C22.9333 91.2031 26.7804 89.6096 29.6169 86.7731C32.4534 83.9366 34.0469 80.0895 34.0469 76.0781V70.4062C34.0469 69.9048 33.8477 69.4239 33.4931 69.0694C33.1386 68.7148 32.6577 68.5156 32.1563 68.5156ZM30.2656 76.0781C30.2656 77.5678 29.9722 79.0429 29.4022 80.4192C28.8321 81.7955 27.9965 83.046 26.9431 84.0994C25.8898 85.1527 24.6392 85.9883 23.263 86.5584C21.8867 87.1285 20.4116 87.4219 18.9219 87.4219C17.4322 87.4219 15.9571 87.1285 14.5808 86.5584C13.2045 85.9883 11.954 85.1527 10.9006 84.0994C9.84728 83.046 9.01171 81.7955 8.44163 80.4192C7.87156 79.0429 7.57814 77.5678 7.57814 76.0781V72.2969H30.2656V76.0781ZM18.9219 0.453125C14.2804 0.453125 9.43568 5.06152 5.6308 13.0967C-0.69807 26.4587 -2.87702 46.2062 5.52209 56.4771C5.69949 56.6943 5.923 56.8694 6.17643 56.9895C6.42986 57.1097 6.70684 57.172 6.98732 57.1719H30.8612C31.1417 57.172 31.4187 57.1097 31.6721 56.9895C31.9255 56.8694 32.149 56.6943 32.3264 56.4771C40.735 46.2062 38.5466 26.4587 32.2177 13.0967C28.4128 5.06152 23.5681 0.453125 18.9219 0.453125ZM29.9348 53.3906H7.91373C1.39107 44.4102 3.28642 26.8841 9.0481 14.7179C12.1109 8.25195 15.8922 4.23438 18.9219 4.23438C21.9516 4.23438 25.7376 8.25195 28.8004 14.7179C34.5621 26.8841 36.4574 44.4102 29.9348 53.3906ZM56.1388 68.5156H80.0127C80.2932 68.5157 80.5702 68.4535 80.8236 68.3333C81.077 68.2131 81.3006 68.0381 81.478 67.8208C89.8865 57.55 87.6981 37.8024 81.3692 24.4404C77.5644 16.4053 72.7196 11.7969 68.0781 11.7969C63.4367 11.7969 58.5872 16.4053 54.7823 24.4404C48.4535 37.8024 46.2745 57.55 54.6736 67.8208C54.851 68.0381 55.0745 68.2131 55.328 68.3333C55.5814 68.4535 55.8584 68.5157 56.1388 68.5156ZM58.1996 26.0616C61.2624 19.5957 65.0437 15.5781 68.0781 15.5781C71.1126 15.5781 74.8891 19.5957 77.9519 26.0616C83.7136 38.2278 85.609 55.7539 79.0863 64.7344H57.0653C50.5426 55.7539 52.438 38.2278 58.1996 26.0616Z" fill="#F74B35"/>
</svg>
