<svg xmlns="http://www.w3.org/2000/svg" viewBox="0 0 500 500"><g id="freepik--background-complete--inject-74"><path d="M404.79,66.69l13.13-.28,6.66-.12c2.22,0,4.46,0,6.69-.05h.45v.45l0,11.19v.5h-.5L418,78.31c-4.41,0-8.82-.11-13.24-.16h-.27v-.26c0-1.9.09-3.79.13-5.66Zm0,0,.14,5.65c.05,1.86.12,3.7.14,5.54l-.28-.28c4.42,0,8.83-.16,13.24-.16l13.24-.06-.5.5.06-11.19.44.44c-2.18,0-4.35,0-6.54,0L418.15,67Z" style="fill:#ebebeb"></path><path d="M419.56,52.58l13.13-.28,6.66-.12c2.23,0,4.46,0,6.69,0h.45v.45l.05,11.19v.5H446L432.8,64.2c-4.41,0-8.82-.11-13.24-.16h-.27v-.27c0-1.9.09-3.79.13-5.66Zm0,0,.15,5.65c0,1.86.11,3.7.13,5.54l-.28-.28c4.42-.05,8.83-.16,13.24-.16L446,63.27l-.49.5.05-11.19L446,53c-2.18,0-4.35,0-6.54-.05l-6.58-.12Z" style="fill:#ebebeb"></path><path d="M390,52.58l13.13-.28,6.66-.12c2.22,0,4.46,0,6.69,0h.44v.45L417,63.77v.5h-.5l-13.24-.06c-4.41,0-8.83-.11-13.24-.16h-.27v-.27c0-1.9.08-3.79.13-5.66Zm0,0,.14,5.65c0,1.86.11,3.7.13,5.54l-.27-.28c4.41-.05,8.83-.16,13.24-.16l13.24-.06-.5.5.06-11.19.44.44c-2.18,0-4.36,0-6.54-.05l-6.58-.12Z" style="fill:#ebebeb"></path><path d="M102.87,172.83l13.12-.28,6.66-.11c2.23-.05,4.46,0,6.7-.05h.44v.45l.06,11.19v.5h-.5l-13.24-.06c-4.42,0-8.83-.11-13.24-.16h-.28V184c0-1.9.09-3.78.13-5.65Zm0,0,.14,5.66c0,1.86.11,3.7.13,5.53l-.27-.27c4.41-.05,8.82-.16,13.24-.16l13.24-.07-.5.5.05-11.19.45.45c-2.19,0-4.36,0-6.55-.06l-6.58-.11Z" style="fill:#ebebeb"></path><path d="M117.64,158.72l13.12-.28,6.66-.11c2.23,0,4.47,0,6.7-.05h.44v.45l.06,11.19v.5h-.5l-13.24-.06c-4.42,0-8.83-.11-13.24-.16h-.28v-.27c0-1.9.09-3.78.13-5.65Zm0,0,.14,5.66c0,1.86.11,3.7.13,5.53l-.27-.27c4.41,0,8.82-.16,13.24-.16l13.24-.07-.5.5,0-11.19.45.45c-2.18,0-4.36,0-6.55-.06L131,159Z" style="fill:#ebebeb"></path><path d="M88.09,158.72l13.13-.28,6.66-.11c2.22,0,4.46,0,6.69-.05H115v.45l0,11.19v.5h-.51l-13.24-.06c-4.41,0-8.82-.11-13.24-.16h-.27v-.27c0-1.9.09-3.78.13-5.65Zm0,0,.15,5.66c0,1.86.11,3.7.13,5.53l-.28-.27c4.42,0,8.83-.16,13.24-.16l13.24-.07-.5.5.06-11.19.44.45c-2.18,0-4.35,0-6.54-.06l-6.58-.11Z" style="fill:#ebebeb"></path><path d="M54,46.1l13.12-.28,6.66-.11c2.23-.05,4.46,0,6.7-.05h.44v.45l.06,11.19v.5h-.5L67.2,57.73c-4.42,0-8.83-.11-13.24-.17h-.28v-.27c0-1.9.09-3.78.13-5.65Zm0,0,.14,5.66c0,1.86.11,3.7.13,5.53L54,57c4.41-.05,8.82-.16,13.24-.16l13.24-.07-.5.5L80,46.1l.45.45c-2.19,0-4.36,0-6.55-.06l-6.58-.11Z" style="fill:#ebebeb"></path><path d="M68.73,331.75l13.12-.28,6.66-.11c2.23-.05,4.47,0,6.7-.06h.44v.45l.06,11.19v.5h-.5L82,343.37c-4.42,0-8.83-.11-13.24-.16h-.28v-.27c0-1.9.09-3.79.13-5.66Zm0,0,.14,5.65c0,1.86.11,3.71.13,5.54l-.27-.28c4.41-.05,8.82-.15,13.24-.16l13.24-.06-.5.5.05-11.19.45.44c-2.18,0-4.36,0-6.55-.05L82.08,332Z" style="fill:#ebebeb"></path><path d="M54,317.64l13.12-.28,6.66-.11c2.23-.05,4.46,0,6.7-.06h.44v.45l.06,11.19v.5h-.5l-13.24-.07c-4.42,0-8.83-.11-13.24-.16h-.28v-.27c0-1.9.09-3.79.13-5.66Zm0,0,.14,5.65c0,1.86.11,3.71.13,5.54l-.27-.28c4.41-.05,8.82-.15,13.24-.16l13.24-.06-.5.5,0-11.19.45.44c-2.19,0-4.36,0-6.55-.05l-6.58-.11Z" style="fill:#ebebeb"></path><path d="M419.56,331.74l13.13-.28,6.66-.12c2.23,0,4.46,0,6.69,0h.45v.45l.05,11.19v.5H446l-13.24-.06c-4.41,0-8.82-.11-13.24-.16h-.27v-.27c0-1.9.09-3.79.13-5.66Zm0,0,.15,5.65c0,1.86.11,3.7.13,5.54l-.28-.28c4.42,0,8.83-.16,13.24-.16l13.24-.06-.49.5.05-11.19.44.44c-2.18,0-4.35,0-6.54-.05l-6.58-.12Z" style="fill:#ebebeb"></path><path d="M402.23,183.64l-13.12.28-6.66.11c-2.23.05-4.47,0-6.7.05h-.44v-.45l-.05-11.19V172h.5L389,172c4.41,0,8.83.11,13.24.17h.28v.27c0,1.9-.08,3.78-.13,5.65Zm0,0-.14-5.66c0-1.86-.11-3.7-.13-5.53l.27.27c-4.41.05-8.83.16-13.24.16l-13.24.07.5-.5-.05,11.19-.45-.45c2.18,0,4.36,0,6.55.06l6.58.11Z" style="fill:#ebebeb"></path><path d="M387.46,197.75l-13.13.28-6.66.11c-2.22.05-4.46,0-6.69.05h-.44v-.45l0-11.19v-.5h.5l13.24.06c4.41,0,8.83.11,13.24.16h.28v.27c0,1.9-.08,3.78-.13,5.65Zm0,0-.14-5.66c-.05-1.86-.11-3.7-.13-5.53l.27.27c-4.41,0-8.83.16-13.24.16l-13.24.07.5-.5-.06,11.19-.44-.45c2.18,0,4.36,0,6.54.06l6.58.11Z" style="fill:#ebebeb"></path><path d="M407,134.25a35.75,35.75,0,1,1-35.36-41V129Z" style="fill:#ebebeb"></path><path d="M414.61,121.73a34.75,34.75,0,0,1-.39,5.24l-35.35-5.24V86a35.71,35.71,0,0,1,35.74,35.74Z" style="fill:#dbdbdb"></path><path d="M74.13,193v29.47L55,244.88A29.47,29.47,0,0,1,74.13,193Z" style="fill:#ebebeb"></path><path d="M109.6,225.47A29.47,29.47,0,0,1,61,247.88l19.12-22.41V196a29.45,29.45,0,0,1,29.47,29.47Z" style="fill:#ebebeb"></path><path d="M109.6,225.47A29.47,29.47,0,0,1,61,247.88l19.12-22.41V196a29.45,29.45,0,0,1,29.47,29.47Z" style="fill:#dbdbdb"></path><rect x="60.51" y="170.09" width="1" height="38.01" style="fill:#c7c7c7"></rect><path d="M61,170.59a3.17,3.17,0,1,1,3.17-3.16A3.17,3.17,0,0,1,61,170.59Zm0-5.33a2.17,2.17,0,1,0,2.17,2.17A2.17,2.17,0,0,0,61,165.26Z" style="fill:#c7c7c7"></path><rect x="69.09" y="164.76" width="29.53" height="1.33" style="fill:#c7c7c7"></rect><rect x="69.09" y="167.43" width="16.71" height="1.33" style="fill:#c7c7c7"></rect><rect x="375.46" y="141.7" width="38.01" height="1" style="fill:#c7c7c7"></rect><path d="M416.14,145.37a3.17,3.17,0,1,1,3.16-3.17A3.16,3.16,0,0,1,416.14,145.37Zm0-5.33a2.17,2.17,0,1,0,2.16,2.16A2.16,2.16,0,0,0,416.14,140Z" style="fill:#c7c7c7"></path><rect x="425.8" y="140.2" width="29.53" height="1.33" style="fill:#c7c7c7"></rect><rect x="425.8" y="142.87" width="16.71" height="1.33" style="fill:#c7c7c7"></rect></g><g id="freepik--Shadow--inject-74"><ellipse cx="250" cy="445.68" rx="207.36" ry="18.94" style="fill:#ebebeb"></ellipse></g><g id="freepik--Plant--inject-74"><path d="M78.31,258.39s-20.19-2.83-15.47-27.2C62.84,231.19,85.4,236.25,78.31,258.39Z" style="fill:#FFC727"></path><path d="M78.31,258.39s-20.19-2.83-15.47-27.2C62.84,231.19,85.4,236.25,78.31,258.39Z" style="opacity:0.1"></path><path d="M77.29,253.3q-.6-1.85-1.38-3.63c0-.16,0-.31,0-.46,0-.34-.06-.67-.08-1-.06-.73-.11-1.45-.15-2.18-.08-1.46-.18-2.91-.2-4.37a.06.06,0,0,0-.12,0c0,1.46,0,2.92,0,4.38,0,.72.07,1.45.12,2.18l0,.48a43.18,43.18,0,0,0-4-6.92c-.69-1-1.42-1.9-2.2-2.8s-1.66-1.79-2.47-2.71c-.06-.06-.14,0-.09.09a35.76,35.76,0,0,1,3.89,5.18c.62.92,1.2,1.88,1.75,2.85l-.19-.08L71.4,244l-1.65-.62-3.25-1.21c-.06,0-.11.09,0,.11,1.07.43,2.14.88,3.2,1.34l1.56.67c.26.12.52.22.79.33a2.58,2.58,0,0,0,.53.19c.41.73.81,1.46,1.19,2.21a53.11,53.11,0,0,1,2.46,5.82l.15.42a11.48,11.48,0,0,0-1.66-.8l-2.09-.95c-1.41-.65-2.82-1.31-4.18-2.08-.06,0-.12.07-.06.11,1.39.76,2.75,1.56,4.14,2.32.7.37,1.39.74,2.11,1.08a6.3,6.3,0,0,0,1.89.76,24.48,24.48,0,0,1,1.33,5.73c.22,2.76.2,5.54.26,8.3,0,.05.07,0,.07,0,.2-2.51.32-5,.33-7.55A22.12,22.12,0,0,0,77.29,253.3Z" style="fill:#263238"></path><path d="M74.18,239a23.79,23.79,0,0,0-.2,4.3s.06,0,.06,0c.08-1.43.09-2.85.26-4.27C74.31,238.92,74.19,238.89,74.18,239Z" style="fill:#263238"></path><path d="M68.41,240.19a15.31,15.31,0,0,1-2.6-1.28c-.07,0-.13.07-.06.11a9.71,9.71,0,0,0,2.62,1.25S68.46,240.21,68.41,240.19Z" style="fill:#263238"></path><path d="M79,297.08c0-2.23-.06-4.46-.08-6.69,0-7.41-.1-14.82-.24-22.23q-.15-8.82-.41-17.64a.1.1,0,0,0,0-.08l0-4.81s0-.07-.09-.06-.1,0-.1.06l0,4.83a.07.07,0,0,0,0,.06c-.3,10.47-.57,20.94-.63,31.41,0,2.13,0,4.26,0,6.39q-.11,10.24-.08,20.48c0,1.09,0,2.17,0,3.26,0,6.25.06,12.49.07,18.74,0,.33.37.5.77.52s.93-.17.93-.55c0-6.89,0-13.78,0-20.66C79,305.77,79,301.42,79,297.08Z" style="fill:#263238"></path><path d="M70.52,290.31s-9.71-7.2-18.93-2.34-10.66,23.6-10.66,23.6S54.47,313.51,63,305.4C71.2,297.58,70.52,290.31,70.52,290.31Z" style="fill:#FFC727"></path><path d="M73.17,290.75a11.59,11.59,0,0,0-5.63-.73,7.87,7.87,0,0,0-1.19-.12L65,289.8c-.94-.08-1.88-.13-2.83-.2-1.91-.15-3.84-.26-5.75-.46-.06,0-.08.12,0,.12,1.89.25,3.78.52,5.67.71,1,.1,2,.2,2.93.27.23,0,.47,0,.72.07-.3.06-.58.13-.87.21a23,23,0,0,0-4.4,1.79c-.76.14-1.52.35-2.27.53-1.2.28-2.4.59-3.59.9-2.36.62-4.7,1.31-7,2-.07,0,0,.13,0,.11,2.34-.57,4.69-1.1,7-1.65l3.42-.82.89-.21a28.38,28.38,0,0,0-6.9,6,37.68,37.68,0,0,0-4.8,7.57c0,.07.06.14.1.07a36.87,36.87,0,0,1,5.81-7.62c0,.13-.09.25-.13.38l-.54,1.72c-.36,1.14-.72,2.29-1.06,3.43,0,.08.09.11.12,0,.41-1.1.79-2.22,1.19-3.33l.57-1.64c.1-.29.2-.57.29-.86,0-.08.07-.17.1-.26a34.13,34.13,0,0,1,3.44-2.93,25.86,25.86,0,0,1,5.16-3c0,.17-.07.34-.1.5-.1.44-.2.89-.29,1.33-.19.92-.37,1.84-.55,2.76-.36,1.88-.59,3.78-.94,5.66a.06.06,0,0,0,.12,0c.43-1.89,1-3.75,1.42-5.64.21-1,.42-1.9.62-2.85l.27-1.33a6,6,0,0,0,.13-.74l.53-.22a15.36,15.36,0,0,1,8.08-1.11,8,8,0,0,1,5.85,4.69c.08.21.42.08.37-.14A7.53,7.53,0,0,0,73.17,290.75Z" style="fill:#263238"></path><path d="M58.3,298.75c-.27,1.23-.55,2.46-.82,3.69A27.68,27.68,0,0,0,56.8,306a0,0,0,0,0,.08,0,27.77,27.77,0,0,0,.83-3.61c.24-1.22.48-2.43.71-3.65A.06.06,0,1,0,58.3,298.75Z" style="fill:#263238"></path><path d="M48.91,301.88c-1.24.63-2.44,1.34-3.73,1.85-.08,0,0,.16,0,.12a39.43,39.43,0,0,0,3.71-1.92S48.94,301.86,48.91,301.88Z" style="fill:#263238"></path><path d="M72.7,277.09s-11.86.76-17.39-7.07S51,251,51,251s12.47,1.51,17.42,7.13S72.7,277.09,72.7,277.09Z" style="fill:#FFC727"></path><path d="M78.28,288.8c-.42-1.27-.93-2.52-1.41-3.77s-1-2.38-1.47-3.55a73,73,0,0,0-3.56-7c-.84-1.44-1.73-2.84-2.66-4.22,0-.21-.06-.42-.09-.63-.06-.37-.11-.74-.17-1.1-.11-.75-.25-1.5-.37-2.25-.27-1.64-.61-3.27-.87-4.91,0-.08-.14-.08-.13,0,.24,1.62.41,3.25.63,4.87.11.8.22,1.59.34,2.39,0,.29.09.57.13.86a85.8,85.8,0,0,0-5.87-7.62l-.86-1c0-.1-.08-.18-.11-.28s-.18-.45-.26-.68c-.18-.47-.35-.94-.52-1.41-.33-.93-.63-1.87-.88-2.82,0-.08-.14,0-.12,0q.36,1.47.78,2.91c.14.47.29.92.45,1.38l.09.23c-1.52-1.65-3.1-3.25-4.7-4.82-.06-.06-.14,0-.08.09A84.92,84.92,0,0,1,65,265.84a5.66,5.66,0,0,0-.88-.22c-.92-.18-1.84-.31-2.76-.43-1.94-.25-3.86-.49-5.79-.79a.06.06,0,0,0,0,.12c1.84.36,3.66.77,5.49,1.19.86.2,1.73.37,2.59.54a16.14,16.14,0,0,1,2.09.59l.58.83c.87,1.26,1.7,2.56,2.52,3.86l-1.21-.24c-.92-.17-1.84-.34-2.76-.49-1.81-.3-3.62-.61-5.41-1a.06.06,0,0,0,0,.12c1.82.42,3.62.92,5.42,1.4.87.23,1.74.45,2.62.64l1.32.28a4,4,0,0,0,.53.1q2.61,4.21,4.87,8.62c.66,1.29,1.3,2.6,1.92,3.91s1.18,2.72,1.76,4.09C77.94,289.21,78.37,289.1,78.28,288.8Z" style="fill:#263238"></path><path d="M66.13,261.53q-.34-1.71-.72-3.39c0-.08-.13,0-.12,0,.23,1.11.44,2.23.64,3.35a31.51,31.51,0,0,0,.68,3.32s0,0,0,0A24.59,24.59,0,0,0,66.13,261.53Z" style="fill:#263238"></path><path d="M59.2,261.2a18,18,0,0,0-1.7-.72l-.9-.36-.46-.18a1.86,1.86,0,0,1-.5-.22c-.09-.07-.15.09-.06.11a1.87,1.87,0,0,1,.51.2l.45.2.86.39a16.45,16.45,0,0,0,1.76.69C59.23,261.34,59.27,261.23,59.2,261.2Z" style="fill:#263238"></path><path d="M84.85,267.76S92,254.34,103,252.26s17.61,9.17,17.61,9.17-8,10.18-18,12S84.85,267.76,84.85,267.76Z" style="fill:#FFC727"></path><path d="M110.29,258.28a29.31,29.31,0,0,0-8.57.1c.16-.09.32-.18.49-.26l2.42-1.25c1.68-.87,3.37-1.8,5.13-2.51a.06.06,0,1,0-.05-.11c-1.71.8-3.48,1.47-5.2,2.25-.85.4-1.7.81-2.53,1.25-.54.29-1.14.56-1.67.9A29.64,29.64,0,0,0,93.37,261l1.36-1.49c1-1.12,2-2.29,3.14-3.3.06-.06,0-.14-.09-.09-1.14,1-2.35,2-3.46,3.08-.53.53-1,1.07-1.55,1.63-.25.28-.5.56-.74.86a28.82,28.82,0,0,0-14.65,19.79.06.06,0,0,0,.12,0,33,33,0,0,1,8-13.59,31.55,31.55,0,0,1,14.64-8.47,32.13,32.13,0,0,1,10.1-.92A.11.11,0,0,0,110.29,258.28Z" style="fill:#263238"></path><path d="M120.58,261.43s-8,10.18-18,12c-7.65,1.35-13.94-2.64-16.5-4.6l-.55-.91s5.17-4.36,15-6.87S120.58,261.43,120.58,261.43Z" style="opacity:0.1"></path><path d="M103.94,253.49a27.61,27.61,0,0,0-2.43,1.61,15.29,15.29,0,0,0-2.1,1.92.06.06,0,1,0,.09.09c.73-.63,1.45-1.26,2.21-1.85a22,22,0,0,1,2.3-1.66C104.07,253.56,104,253.45,103.94,253.49Z" style="fill:#263238"></path><path d="M109.94,255.76l-1.22.49-1.22.5c-.09,0,0,.18,0,.14l1.22-.49,1.21-.52C110.05,255.85,110,255.73,109.94,255.76Z" style="fill:#263238"></path><path d="M83.42,284.65s1.92,13.3,11.93,18,22.21,0,22.21,0S112.76,273.81,83.42,284.65Z" style="fill:#FFC727"></path><path d="M110.66,294c-.92-.1-1.84-.26-2.75-.43l-1.35-.25-.7-.14-.81-.75a41,41,0,0,0-6.12-4.44,33.38,33.38,0,0,0-3.67-1.88h.19l3.29.15c2.2.1,4.4.15,6.59.29.08,0,.08-.12,0-.12-2.21-.15-4.4-.39-6.6-.58l-3.2-.29-1.65-.14-.42-.05c-.57-.21-1.15-.41-1.73-.59a15.59,15.59,0,0,0-8.48-.47c-2.51.64-5,2.29-5.68,4.95,0,.09.12.15.16.06.94-2.22,3.4-3.33,5.62-3.79a13.31,13.31,0,0,1,4.54-.09,11.15,11.15,0,0,0,.5,2c.28.94.55,1.87.84,2.81.56,1.87,1.19,3.72,1.74,5.59,0,.08.14,0,.12,0-.46-1.87-.86-3.76-1.31-5.63-.22-.92-.45-1.83-.68-2.75a15.57,15.57,0,0,0-.5-1.89,22.83,22.83,0,0,1,2.6.61,37.89,37.89,0,0,1,4.53,1.66c.15,1,.36,1.89.58,2.83.27,1.17.58,2.33,1,3.48a.06.06,0,1,0,.11,0c0-.07,0-.15,0-.22h0c-.22-1.09-.46-2.17-.69-3.26-.18-.88-.35-1.76-.55-2.63a37.76,37.76,0,0,1,3.65,1.84c0,.27.09.55.13.8.07.46.16.91.24,1.36.19,1,.39,2.05.64,3.07a46.9,46.9,0,0,0,1.72,5.79.08.08,0,0,0,0,.08l.06.06c0,.05.11,0,.1-.06-.46-2-1-3.93-1.43-5.91-.21-1-.43-2-.63-3-.1-.49-.19-1-.28-1.49,0-.14,0-.29-.07-.44a41.29,41.29,0,0,1,3.9,2.6,42.11,42.11,0,0,1,6,5.44c.07.08.21,0,.15-.12a36.54,36.54,0,0,0-2.39-2.91c-.5-.54-1-1.06-1.56-1.57l.17,0,1.41.21c.93.13,1.85.22,2.78.32C110.71,294.08,110.74,294,110.66,294Z" style="fill:#263238"></path><path d="M103.63,298.47h0l-.06-.35c0-.15-.1-.29-.12-.44h0c-.21-.89-.38-1.78-.54-2.68a.06.06,0,0,0-.11,0,10.7,10.7,0,0,0,.76,3.48s.08,0,.07,0Z" style="fill:#263238"></path><path d="M95.25,298.25a.06.06,0,0,0-.06-.05c-.28-1.18-.55-2.36-.79-3.55-.13-.62-.26-1.25-.38-1.87-.06-.34-.13-.67-.19-1a2.91,2.91,0,0,0-.21-.87s-.11,0-.11,0a5.5,5.5,0,0,0,.25,1.79c.12.65.25,1.29.39,1.94.29,1.31.62,2.62,1,3.91a.07.07,0,0,0,.13,0C95.26,298.45,95.26,298.35,95.25,298.25Z" style="fill:#263238"></path><path d="M109.75,290.12c-1.83-.25-3.66-.52-5.49-.74-.07,0-.11.11,0,.12,1.83.27,3.66.5,5.49.74C109.8,290.25,109.83,290.13,109.75,290.12Z" style="fill:#263238"></path><path d="M78.29,253.43S72.17,226.56,101,215.69C101,215.69,109,251.06,78.29,253.43Z" style="fill:#FFC727"></path><path d="M84.52,238.19l.31-.19,1.64-.91,3.34-1.87c2.21-1.23,4.38-2.52,6.6-3.72.07,0,0-.14-.06-.11-2.23,1.21-4.49,2.34-6.72,3.52l-3.31,1.75-1.35.72c1-1.83,2-3.62,3.12-5.34,1.51-2.3,3.16-4.5,4.88-6.64.08-.1,0-.23-.14-.14a45.81,45.81,0,0,0-6.68,8.19,2.72,2.72,0,0,0,0-.28c0-.67,0-1.34.06-2,0-1.31,0-2.63,0-3.93,0-.08-.12-.08-.13,0,0,1.29-.2,2.58-.28,3.87,0,.64-.06,1.28-.08,1.93,0,.35,0,.74,0,1.12Q84.8,235.58,84,237a51.62,51.62,0,0,0-2.58,5.41c0-.67-.07-1.33-.11-2C81.22,239,81,237.5,81,236c0-.08-.13-.08-.13,0,0,1.47,0,2.95,0,4.42,0,.73,0,1.47.09,2.2,0,.27,0,.55,0,.82a50.31,50.31,0,0,0-2.18,7.39A78.92,78.92,0,0,0,77.75,259a0,0,0,0,0,0,0,43.45,43.45,0,0,1,1.53-7.23c.36-1.27.74-2.53,1.14-3.79,1.2-.56,2.35-1.27,3.51-1.91l3.63-2c2.4-1.32,4.81-2.67,7.29-3.83.08,0,0-.14-.06-.11-2.52,1.14-5,2.22-7.52,3.47-1.24.61-2.45,1.27-3.65,1.95-1,.56-2,1.13-3,1.78.29-.84.58-1.67.9-2.49A70.29,70.29,0,0,1,84.52,238.19Z" style="fill:#263238"></path><path d="M82.09,232.05c0-.08-.13-.08-.12,0,.1,1.53.15,3.07.32,4.59a.07.07,0,1,0,.13,0C82.37,235.11,82.2,233.58,82.09,232.05Z" style="fill:#263238"></path><path d="M95.93,237.18c-1.81.73-3.63,1.42-5.43,2.17,0,0,0,.1,0,.08,1.82-.68,3.62-1.42,5.44-2.13C96,237.27,96,237.15,95.93,237.18Z" style="fill:#263238"></path><path d="M98.67,224.79a47.68,47.68,0,0,0-5.13,2.75c-.08.05,0,.18.08.13,1.68-1,3.38-1.92,5.12-2.78C98.81,224.86,98.75,224.75,98.67,224.79Z" style="fill:#263238"></path><rect x="56.61" y="311.53" width="41.63" height="43.88" style="fill:#c7c7c7"></rect><rect x="53.74" y="327.06" width="2.13" height="75.17" style="fill:#263238"></rect><rect x="98.75" y="327.06" width="2.13" height="75.17" style="fill:#263238"></rect><rect x="77.38" y="327.06" width="2.13" height="75.17" style="fill:#263238"></rect><rect x="54.81" y="352.6" width="45.01" height="6.08" style="fill:#263238"></rect></g><g id="freepik--Floor--inject-74"><polygon points="46.66 402.23 97.5 401.98 148.33 401.89 250 401.73 351.67 401.89 402.5 401.98 453.34 402.23 402.5 402.47 351.67 402.56 250 402.72 148.33 402.56 97.5 402.47 46.66 402.23" style="fill:#263238"></polygon></g><g id="freepik--Device--inject-74"><rect x="124.49" y="51.7" width="251.2" height="375.66" rx="10.21" style="fill:#455a64"></rect><rect x="135.22" y="78.22" width="229.86" height="323.34" style="fill:#fff"></rect><g id="freepik--u5Zjqx--inject-74"><path d="M175.45,85.1l-.3.29-.16.16a4,4,0,0,0-5.63,0l-.16-.17-.28-.29h0l0,0c.12-.11.24-.22.37-.32a4.26,4.26,0,0,1,.85-.55,4.18,4.18,0,0,1,1.13-.38l.57-.07h.49l.39,0a4.24,4.24,0,0,1,1,.24,4.94,4.94,0,0,1,.7.33,5.06,5.06,0,0,1,.67.47l.31.28Z" style="fill:#c7c7c7"></path><path d="M170.29,86.47c-.16-.15-.31-.3-.46-.46a3.31,3.31,0,0,1,4.69,0l-.46.46a2.67,2.67,0,0,0-3.77,0Z" style="fill:#c7c7c7"></path><path d="M173.6,86.93l-.46.46a1.36,1.36,0,0,0-1.93,0l-.46-.46A2,2,0,0,1,173.6,86.93Z" style="fill:#c7c7c7"></path><path d="M172.59,87.81a.42.42,0,1,1-.42-.42A.42.42,0,0,1,172.59,87.81Z" style="fill:#c7c7c7"></path></g><path d="M147,86a1.21,1.21,0,1,1,1.2,1.2A1.2,1.2,0,0,1,147,86Z" style="fill:#c7c7c7"></path><path d="M150.77,86a1.2,1.2,0,1,1,1.2,1.2A1.2,1.2,0,0,1,150.77,86Z" style="fill:#c7c7c7"></path><path d="M154.55,86a1.21,1.21,0,1,1,1.21,1.2A1.2,1.2,0,0,1,154.55,86Z" style="fill:#c7c7c7"></path><path d="M158.34,86a1.21,1.21,0,1,1,1.2,1.2A1.2,1.2,0,0,1,158.34,86Z" style="fill:#c7c7c7"></path><path d="M162.13,86a1.2,1.2,0,1,1,1.2,1.2A1.2,1.2,0,0,1,162.13,86Z" style="fill:#c7c7c7"></path><path d="M352.15,88.61h-9.8V84.06h9.8Zm-9.29-.51h8.78V84.57h-8.78Z" style="fill:#c7c7c7"></path><rect x="343.17" y="84.84" width="6.31" height="2.99" style="fill:#c7c7c7"></rect><rect x="352.15" y="85.12" width="0.87" height="2.42" style="fill:#c7c7c7"></rect><polygon points="156.29 390.26 155.49 390.26 155.49 393.94 153.99 393.94 153.99 392.07 151.34 392.07 151.34 393.94 149.85 393.94 149.85 390.26 149.05 390.26 152.67 386.52 156.29 390.26" style="fill:#ebebeb"></polygon><rect x="342.22" y="386.52" width="8.73" height="1.25" style="fill:#ebebeb"></rect><rect x="342.22" y="389.61" width="8.73" height="1.25" style="fill:#ebebeb"></rect><rect x="342.22" y="392.69" width="8.73" height="1.25" style="fill:#ebebeb"></rect><polygon points="252.48 389.74 250 392.38 247.52 389.74 247.95 389.33 250 391.51 252.04 389.33 252.48 389.74" style="fill:#ebebeb"></polygon><path d="M250,395.12a4.51,4.51,0,1,1,4.5-4.51A4.51,4.51,0,0,1,250,395.12Zm0-8.42a3.91,3.91,0,1,0,3.91,3.91A3.92,3.92,0,0,0,250,386.7Z" style="fill:#ebebeb"></path><rect x="147.39" y="113.73" width="118.34" height="123.6" style="fill:#FFC727;opacity:0.30000000000000004"></rect><rect x="275.42" y="113.73" width="77.59" height="123.6" style="fill:#FFC727;opacity:0.1"></rect><path d="M324,137.39l-7.8,27.29v28.38a28.38,28.38,0,1,1,7.8-55.67Z" style="fill:#a6a6a6"></path><path d="M333,187.53a28.13,28.13,0,0,1-16.81,5.53V164.68Z" style="fill:#fff"></path><path d="M344.54,164.68A28.29,28.29,0,0,1,333,187.53l-16.81-22.85,22.07-17.84A28.22,28.22,0,0,1,344.54,164.68Z" style="fill:#37474f"></path><path d="M344.54,137.65l-22.07,17.84,7.8-27.3A28.42,28.42,0,0,1,344.54,137.65Z" style="fill:#FFC727"></path><rect x="307.24" y="209.75" width="33.13" height="3.18" style="fill:#455a64"></rect><rect x="307.24" y="216.39" width="21.99" height="3.18" style="fill:#455a64"></rect><rect x="291.95" y="209.7" width="9.92" height="9.92" style="fill:#a6a6a6"></rect><rect x="234.68" y="247.15" width="118.34" height="123.6" transform="translate(587.7 617.91) rotate(180)" style="fill:#FFC727;opacity:0.30000000000000004"></rect><rect x="260.13" y="351.8" width="5.33" height="5.33" style="fill:#FFC727"></rect><rect x="269.17" y="351.8" width="58.4" height="1.58" style="fill:#455a64"></rect><rect x="269.17" y="355.56" width="37.73" height="1.58" style="fill:#455a64"></rect><path d="M247.89,274.11c15.32-.13,30.64-.1,46-.15s30.64,0,46,.15c-15.32.14-30.64.11-46,.16S263.21,274.25,247.89,274.11Z" style="fill:#455a64"></path><path d="M247.89,287.07c15.32-.14,30.64-.11,46-.16s30.64,0,46,.16c-15.32.13-30.64.1-46,.15S263.21,287.2,247.89,287.07Z" style="fill:#455a64"></path><path d="M247.89,300c15.32-.14,30.64-.11,46-.16s30.64,0,46,.16c-15.32.13-30.64.1-46,.15S263.21,300.15,247.89,300Z" style="fill:#455a64"></path><path d="M247.89,313c15.32-.14,30.64-.11,46-.16s30.64,0,46,.16c-15.32.13-30.64.1-46,.15S263.21,313.1,247.89,313Z" style="fill:#455a64"></path><path d="M247.89,325.92c15.32-.14,30.64-.11,46-.16s30.64,0,46,.16c-15.32.13-30.64.1-46,.15S263.21,326.05,247.89,325.92Z" style="fill:#455a64"></path><path d="M266.4,265.7c.13,12.1.1,24.2.15,36.3s0,24.2-.15,36.3c-.14-12.1-.11-24.2-.16-36.3S266.26,277.8,266.4,265.7Z" style="fill:#455a64"></path><path d="M282.29,265.7c.14,12.1.1,24.2.16,36.3s0,24.2-.16,36.3c-.13-12.1-.1-24.2-.16-36.3S282.16,277.8,282.29,265.7Z" style="fill:#455a64"></path><path d="M298.19,265.7c.13,12.1.1,24.2.15,36.3s0,24.2-.15,36.3c-.14-12.1-.1-24.2-.16-36.3S298.05,277.8,298.19,265.7Z" style="fill:#455a64"></path><path d="M314.08,265.7c.14,12.1.1,24.2.16,36.3s0,24.2-.16,36.3c-.13-12.1-.1-24.2-.15-36.3S314,277.8,314.08,265.7Z" style="fill:#455a64"></path><path d="M330,265.7c.13,12.1.1,24.2.16,36.3s0,24.2-.16,36.3c-.14-12.1-.1-24.2-.16-36.3S329.84,277.8,330,265.7Z" style="fill:#455a64"></path><path d="M250.2,316.52c2.81,0,4.48-13.15,8.46-13.15s4.39,9.6,7.74,9.6,3.24-16.86,7.73-16.86,3.46,6.84,8.16,6.84,2.93-15.88,7.84-15.88S293.06,309,298.19,309c3.24,0,4.49-6.95,8.36-6.95,2.57,0,4.08,3.47,7.43,3.47s4.08-13.36,8.26-13.36S326.9,300,330,300s4.18-12.95,9.83-12.95V338.3H250.2Z" style="fill:#FFC727;opacity:0.5"></path><path d="M250.2,317.16v-1.27c.85,0,2-3.07,2.88-5.32,1.47-3.85,3-7.83,5.58-7.83s3.72,2.91,4.81,5.49c.85,2,1.74,4.1,2.92,4.1s2-4.05,2.62-7c1.08-4.85,2.21-9.86,5.12-9.86,2.61,0,3.63,2,4.53,3.71s1.63,3.13,3.63,3.13c1.81,0,2.52-3.71,3.2-7.29.81-4.22,1.64-8.59,4.64-8.59s3.75,5.5,4.55,11.32c.65,4.7,1.47,10.56,3.51,10.56,1.22,0,2.21-1.44,3.27-3,1.29-1.86,2.74-4,5.09-4a6,6,0,0,1,3.58,1.7,6.26,6.26,0,0,0,3.85,1.78c1.16,0,2.22-3.18,3.07-5.73,1.25-3.76,2.54-7.64,5.19-7.64s3.93,2.53,5.08,4.75c.83,1.63,1.62,3.16,2.66,3.16.88,0,1.89-2.46,2.77-4.63,1.51-3.7,3.39-8.32,7.06-8.32v1.27c-2.83,0-4.46,4-5.9,7.53-1.23,3-2.2,5.42-3.93,5.42s-2.76-1.87-3.78-3.84-2.09-4.07-4-4.07-2.94,3.6-4,6.77c-1.18,3.54-2.2,6.6-4.26,6.6a7.32,7.32,0,0,1-4.62-2.05,4.93,4.93,0,0,0-2.81-1.43c-1.69,0-2.89,1.74-4.06,3.43s-2.42,3.52-4.3,3.52c-3.14,0-3.92-5.66-4.75-11.66-.63-4.55-1.42-10.22-3.31-10.22s-2.73,4-3.4,7.56c-.82,4.28-1.59,8.32-4.44,8.32s-3.81-2-4.74-3.82c-.85-1.62-1.57-3-3.42-3s-3,4.92-3.89,8.87c-1,4.46-1.79,8-3.85,8s-3-2.37-4.08-4.88c-1-2.32-2-4.72-3.65-4.72s-3.21,3.9-4.41,7C253,314.45,251.92,317.16,250.2,317.16Z" style="fill:#FFC727"></path><path d="M250.2,266.48q.17,18,.2,35.91l.1,35.91-.3-.3,44.81.08,22.4.06,22.4.16-22.4.16-22.4.06-44.81.07h-.29v-.29l.1-35.91C250,290.42,250.1,278.45,250.2,266.48Z" style="fill:#455a64"></path><rect x="147.39" y="247.15" width="77.59" height="123.6" transform="translate(372.36 617.91) rotate(180)" style="fill:#FFC727;opacity:0.1"></rect><path d="M174.46,263.89a11.63,11.63,0,1,1-1.54-5.79A11.64,11.64,0,0,1,174.46,263.89Z" style="fill:#455a64"></path><path d="M172.92,258.1l-10.1,5.79V252.25A11.63,11.63,0,0,1,172.92,258.1Z" style="fill:#FFC727"></path><circle cx="162.82" cy="263.88" r="8.05" transform="translate(-123.69 382.45) rotate(-80.81)" style="fill:#fff"></circle><rect x="159.47" y="262.1" width="6.7" height="0.95" style="fill:#263238"></rect><rect x="157.82" y="264.73" width="10.02" height="0.95" style="fill:#a6a6a6"></rect><path d="M174.46,293.93a10.76,10.76,0,0,1-.13,1.71,11.55,11.55,0,1,1,.13-1.71Z" style="fill:#455a64"></path><path d="M174.46,293.93a10.76,10.76,0,0,1-.13,1.71l-11.51-1.71V282.3a11.63,11.63,0,0,1,11.64,11.63Z" style="fill:#FFC727"></path><circle cx="162.82" cy="293.93" r="8.05" transform="translate(-160.58 385.13) rotate(-76.76)" style="fill:#fff"></circle><rect x="159.47" y="292.14" width="6.7" height="0.95" style="fill:#263238"></rect><rect x="157.81" y="294.77" width="10.02" height="0.95" style="fill:#a6a6a6"></rect><path d="M174.46,324a11.63,11.63,0,1,1-1.54-5.79A11.63,11.63,0,0,1,174.46,324Z" style="fill:#455a64"></path><path d="M174.46,324A11.63,11.63,0,0,1,167,334.84L162.82,324V312.34A11.63,11.63,0,0,1,174.46,324Z" style="fill:#FFC727"></path><path d="M170.87,324a8,8,0,1,1-8.05-8.05A8,8,0,0,1,170.87,324Z" style="fill:#fff"></path><rect x="159.47" y="322.19" width="6.7" height="0.95" style="fill:#263238"></rect><rect x="157.82" y="324.82" width="10.02" height="0.95" style="fill:#a6a6a6"></rect><path d="M174.46,354a11.63,11.63,0,1,1-1.54-5.78A11.52,11.52,0,0,1,174.46,354Z" style="fill:#455a64"></path><path d="M174.46,354a11.63,11.63,0,0,1-19.19,8.85l7.55-8.85V342.39A11.63,11.63,0,0,1,174.46,354Z" style="fill:#FFC727"></path><circle cx="162.82" cy="354.02" r="8.05" transform="translate(-212.67 458.19) rotate(-80.81)" style="fill:#fff"></circle><rect x="159.47" y="352.23" width="6.7" height="0.95" style="fill:#263238"></rect><rect x="157.81" y="354.86" width="10.02" height="0.95" style="fill:#a6a6a6"></rect><rect x="181.55" y="260.3" width="32.26" height="0.9" style="fill:#455a64"></rect><rect x="181.55" y="263.44" width="32.26" height="0.9" style="fill:#455a64"></rect><rect x="181.55" y="266.57" width="32.26" height="0.9" style="fill:#455a64"></rect><rect x="181.55" y="290.35" width="32.26" height="0.9" style="fill:#455a64"></rect><rect x="181.55" y="293.48" width="32.26" height="0.9" style="fill:#455a64"></rect><rect x="181.55" y="296.62" width="32.26" height="0.9" style="fill:#455a64"></rect><rect x="181.55" y="320.4" width="32.26" height="0.9" style="fill:#455a64"></rect><rect x="181.55" y="323.53" width="32.26" height="0.9" style="fill:#455a64"></rect><rect x="181.55" y="326.66" width="32.26" height="0.9" style="fill:#455a64"></rect><rect x="181.55" y="350.44" width="32.26" height="0.9" style="fill:#455a64"></rect><rect x="181.55" y="353.58" width="32.26" height="0.9" style="fill:#455a64"></rect><rect x="181.55" y="356.71" width="32.26" height="0.9" style="fill:#455a64"></rect><rect x="166.7" y="146.91" width="8.19" height="71.84" style="fill:#fff"></rect><rect x="180.78" y="158.85" width="8.19" height="59.9" style="fill:#fff"></rect><rect x="194.86" y="180.63" width="8.19" height="38.13" style="fill:#fff"></rect><rect x="208.94" y="157.81" width="8.19" height="60.95" style="fill:#fff"></rect><rect x="223.02" y="167.82" width="8.19" height="50.94" style="fill:#fff"></rect><rect x="237.1" y="136.9" width="8.19" height="81.86" style="fill:#fff"></rect><path d="M162,131.91l.09,21.71.05,21.72.06,43.42-.2-.36c19.9-.1,39.8,0,59.7.07l16.6.08,14.72.21-14.72.21-16.6.08c-19.9,0-39.8.17-59.7.07h-.21v-.36l.06-43.42,0-21.72Z" style="fill:#263238"></path><path d="M160.14,136.9a3.93,3.93,0,0,1,1.81-.4,3.8,3.8,0,0,1,1.8.4,3.92,3.92,0,0,1-1.8.4A4.07,4.07,0,0,1,160.14,136.9Z" style="fill:#263238"></path><path d="M160.14,145.52a3.93,3.93,0,0,1,1.81-.4,3.8,3.8,0,0,1,1.8.4,4.27,4.27,0,0,1-3.61,0Z" style="fill:#263238"></path><path d="M160.14,154.14a4.18,4.18,0,0,1,3.61,0,4.27,4.27,0,0,1-3.61,0Z" style="fill:#263238"></path><path d="M160.14,162.75a4.27,4.27,0,0,1,3.61,0,4.18,4.18,0,0,1-3.61,0Z" style="fill:#263238"></path><path d="M160.14,171.37a4.27,4.27,0,0,1,3.61,0,4.27,4.27,0,0,1-3.61,0Z" style="fill:#263238"></path><path d="M160.14,180a4.07,4.07,0,0,1,1.81-.4,3.92,3.92,0,0,1,1.8.4,3.8,3.8,0,0,1-1.8.4A3.93,3.93,0,0,1,160.14,180Z" style="fill:#263238"></path><path d="M160.14,188.61a3.93,3.93,0,0,1,1.81-.4,3.8,3.8,0,0,1,1.8.4,3.92,3.92,0,0,1-1.8.4A4.07,4.07,0,0,1,160.14,188.61Z" style="fill:#263238"></path><path d="M160.14,197.23a3.93,3.93,0,0,1,1.81-.4,3.8,3.8,0,0,1,1.8.4,4.27,4.27,0,0,1-3.61,0Z" style="fill:#263238"></path><path d="M160.14,205.85a4.18,4.18,0,0,1,3.61,0,4.27,4.27,0,0,1-3.61,0Z" style="fill:#263238"></path><rect x="248.05" y="39.83" width="3.91" height="54.7" rx="1.25" transform="translate(317.19 -182.82) rotate(90)" style="fill:#263238"></rect><circle cx="250" cy="414.7" r="7.07" transform="translate(-111.54 92.58) rotate(-17.22)" style="fill:#263238"></circle></g><g id="freepik--chart-2--inject-74"><path d="M372.27,207.7v85.77H260.78v-4.06a5.4,5.4,0,0,1-1.56.22,6.28,6.28,0,0,1-1.24-.13,5.8,5.8,0,0,1-1.11.11,5.28,5.28,0,0,1-1.55-.23,6,6,0,0,1-1.58.21,6.1,6.1,0,0,1-1.9-.31,6.82,6.82,0,0,1-1.74.3h-.19a5.31,5.31,0,0,1-5.26-4.64,6.18,6.18,0,0,1-.65-2.78,6.29,6.29,0,0,1,6.29-6.28,6.4,6.4,0,0,1,1.76.25,6,6,0,0,1,1.69-.25,6.24,6.24,0,0,1,1.56.2,5.85,5.85,0,0,1,1.69-.25,5.68,5.68,0,0,1,1.24.14,5.11,5.11,0,0,1,2.55.09V273.2a5.54,5.54,0,0,1-1.63.24,6.36,6.36,0,0,1-1.24-.13,5.7,5.7,0,0,1-1.1.11,5.28,5.28,0,0,1-1.55-.23,6.4,6.4,0,0,1-1.58.21,6.15,6.15,0,0,1-1.71-.25,6.4,6.4,0,0,1-1.76.25,6.28,6.28,0,0,1-6.27-6.26,6.11,6.11,0,0,1,.44-2.3,5.89,5.89,0,0,1,5.83-5.15,5.66,5.66,0,0,1,1.71.26,6.1,6.1,0,0,1,1.76-.26,6.24,6.24,0,0,1,1.56.2,5.84,5.84,0,0,1,1.68-.25,5.61,5.61,0,0,1,1.24.14,5.12,5.12,0,0,1,2.62.11v-3a5.54,5.54,0,0,1-2,.35,5.61,5.61,0,0,1-1.24-.13,5.08,5.08,0,0,1-1.1.12,5,5,0,0,1-1.55-.24,6,6,0,0,1-3.43-.08,5.29,5.29,0,0,1-7-5.78,5.29,5.29,0,0,1,4.74-7.64h2.38l.48.1h.05a6.42,6.42,0,0,1,1.16-.11,5.81,5.81,0,0,1,1.56.21,5.84,5.84,0,0,1,1.68-.25,5.67,5.67,0,0,1,1.24.13,5.08,5.08,0,0,1,1.1-.12,5,5,0,0,1,1.85.35v-3a5.4,5.4,0,0,1-1.56.22,6.28,6.28,0,0,1-1.24-.13,5.8,5.8,0,0,1-1.11.11,5.28,5.28,0,0,1-1.55-.23,6,6,0,0,1-1.58.21,6.15,6.15,0,0,1-1.71-.25,6.28,6.28,0,0,1-7.49-3.47l-.44-.53-.09-1.7c0-.17,0-.34,0-.52a8,8,0,0,1,.51-2.85,6.82,6.82,0,0,1,2.59-3.3,6.58,6.58,0,0,1,3.39-1.09h.18a4.87,4.87,0,0,1,1.48.22,6.06,6.06,0,0,1,1.6-.22,6.24,6.24,0,0,1,1.56.2,5.85,5.85,0,0,1,1.69-.25,5.68,5.68,0,0,1,1.24.14,5.11,5.11,0,0,1,2.55.09v-2.88a5.84,5.84,0,0,1-1.73.26,5.61,5.61,0,0,1-1.24-.13,5.1,5.1,0,0,1-1.11.12,5,5,0,0,1-1.56-.24,5.89,5.89,0,0,1-1.57.21,6,6,0,0,1-1.74-.26,6.51,6.51,0,0,1-1.76.25A6.36,6.36,0,0,1,245.6,223c-.08-.09-.17-.18-.25-.28h-.49V222a5.37,5.37,0,0,1-.52-4.53,5.6,5.6,0,0,1-.11-1.09,5.3,5.3,0,0,1,5.3-5.3h1.56a4.83,4.83,0,0,1,1.21.15,5.95,5.95,0,0,1,2.85.07,5.77,5.77,0,0,1,1.67-.25,5.67,5.67,0,0,1,1.24.13,5,5,0,0,1,1.1-.12,5.09,5.09,0,0,1,1.62.26V207.7Z" style="fill:#fff"></path><rect x="265.78" y="228.88" width="101.48" height="11.03" style="fill:#ebebeb"></rect><rect x="269.46" y="232" width="44.62" height="4.77" style="fill:#455a64"></rect><path d="M251.57,234.74a1.28,1.28,0,0,1-2.56.13h0c0-.1,0-.2,0-.3a3,3,0,0,1,.19-1.09,1.83,1.83,0,0,1,.68-.9,1.48,1.48,0,0,1,.79-.25.29.29,0,0,1,.31.28.31.31,0,0,1-.28.31.92.92,0,0,0-.5.14,1.1,1.1,0,0,0-.34.37.61.61,0,0,1-.07.14,1.25,1.25,0,0,1,.51-.1A1.28,1.28,0,0,1,251.57,234.74Zm-.59,0a.7.7,0,1,0-1.39,0,.7.7,0,0,0,1.39,0Z" style="fill:#263238"></path><path d="M252.4,234.17a2.18,2.18,0,0,1,.36-1.27,1.18,1.18,0,0,1,1-.59,1.19,1.19,0,0,1,1,.59,2.4,2.4,0,0,1,0,2.53,1.19,1.19,0,0,1-1,.59,1.18,1.18,0,0,1-1-.59A2.17,2.17,0,0,1,252.4,234.17Zm2.09,0a1.84,1.84,0,0,0-.25-.95.62.62,0,0,0-.5-.32.63.63,0,0,0-.5.32,1.75,1.75,0,0,0-.26.95,1.71,1.71,0,0,0,.26.93.65.65,0,0,0,.5.33.63.63,0,0,0,.5-.33A1.8,1.8,0,0,0,254.49,234.17Z" style="fill:#263238"></path><path d="M256.11,233.23h0a.89.89,0,0,1,.88-.95.88.88,0,0,1,.86.94h0a.9.9,0,0,1-.88.95A.89.89,0,0,1,256.11,233.23Zm1.27,0h0c0-.3-.17-.54-.41-.54s-.39.24-.39.53h0c0,.3.17.54.41.54S257.38,233.52,257.38,233.23Zm-.67,2.47,2.44-3.32a.19.19,0,0,1,.18-.09.21.21,0,0,1,.21.2.22.22,0,0,1-.05.14L257.06,236a.21.21,0,0,1-.19.1.2.2,0,0,1-.2-.21A.33.33,0,0,1,256.71,235.7Zm1.64-.57h0a.88.88,0,1,1,1.75,0v0a.9.9,0,0,1-.88.94A.88.88,0,0,1,258.35,235.13Zm1.27,0h0c0-.3-.17-.54-.4-.54s-.4.24-.4.52v0c0,.3.17.54.41.54S259.62,235.41,259.62,235.13Z" style="fill:#263238"></path><rect x="265.78" y="212.69" width="101.48" height="11.03" style="fill:#ebebeb"></rect><rect x="269.46" y="215.82" width="22" height="4.77" style="fill:#FFC727"></rect><path d="M251,217.58a1.3,1.3,0,0,1,0,1.86,1.29,1.29,0,0,1-.93.39,1.32,1.32,0,0,1-.93-.39.31.31,0,0,1,0-.42.3.3,0,0,1,.43,0,.69.69,0,0,0,.5.21.72.72,0,0,0,.72-.72.72.72,0,0,0-.71-.71.29.29,0,0,1-.22-.1h0a.3.3,0,0,1,0-.42l.54-.55h-.85a.3.3,0,0,1,0-.6h1.56a.29.29,0,0,1,.3.3.33.33,0,0,1,0,.14.18.18,0,0,1,0,.07l-.67.69A1.23,1.23,0,0,1,251,217.58Z" style="fill:#263238"></path><path d="M252.23,218a2.18,2.18,0,0,1,.36-1.27,1.17,1.17,0,0,1,1-.58,1.18,1.18,0,0,1,1,.58,2.26,2.26,0,0,1,.36,1.27,2.28,2.28,0,0,1-.36,1.27,1.21,1.21,0,0,1-1,.58,1.19,1.19,0,0,1-1-.58A2.21,2.21,0,0,1,252.23,218Zm2.09,0a1.81,1.81,0,0,0-.25-.94.63.63,0,0,0-.5-.33.65.65,0,0,0-.5.33,1.89,1.89,0,0,0,0,1.88.65.65,0,0,0,.5.33.63.63,0,0,0,.5-.33A1.81,1.81,0,0,0,254.32,218Z" style="fill:#263238"></path><path d="M255.94,217h0a.89.89,0,0,1,.88-.95.88.88,0,0,1,.86.94h0a.87.87,0,1,1-1.74,0Zm1.27,0h0c0-.29-.17-.54-.41-.54s-.39.25-.39.53h0c0,.3.17.54.41.54S257.21,217.33,257.21,217Zm-.67,2.48,2.44-3.33a.19.19,0,0,1,.18-.09.21.21,0,0,1,.21.21.19.19,0,0,1-.05.13l-2.43,3.33a.22.22,0,0,1-.19.09.2.2,0,0,1-.2-.2A.26.26,0,0,1,256.54,219.52Zm1.64-.58h0a.88.88,0,1,1,1.75,0h0a.9.9,0,0,1-.88.95A.89.89,0,0,1,258.18,218.94Zm1.27,0h0c0-.3-.17-.54-.4-.54s-.4.24-.4.53h0c0,.3.17.54.41.54S259.45,219.23,259.45,218.94Z" style="fill:#263238"></path><rect x="265.78" y="277.44" width="101.48" height="11.03" style="fill:#ebebeb"></rect><rect x="269.46" y="280.56" width="76.14" height="4.77" style="fill:#FFC727"></rect><path d="M249,282.15a1.28,1.28,0,0,1,2.56-.13h0c0,.1,0,.2,0,.3a3.16,3.16,0,0,1-.18,1.09,1.92,1.92,0,0,1-.69.91,1.57,1.57,0,0,1-.79.25.3.3,0,1,1,0-.59,1,1,0,0,0,.83-.52l.07-.14a1.26,1.26,0,0,1-.51.11A1.29,1.29,0,0,1,249,282.15Zm.59,0a.7.7,0,0,0,.7.7.7.7,0,1,0-.7-.7Z" style="fill:#263238"></path><path d="M252.4,282.73a2.18,2.18,0,0,1,.36-1.27,1.18,1.18,0,0,1,1-.59,1.19,1.19,0,0,1,1,.59,2.4,2.4,0,0,1,0,2.53,1.19,1.19,0,0,1-1,.59,1.18,1.18,0,0,1-1-.59A2.17,2.17,0,0,1,252.4,282.73Zm2.09,0a1.87,1.87,0,0,0-.25-1,.62.62,0,0,0-.5-.32.63.63,0,0,0-.5.32,1.78,1.78,0,0,0-.26,1,1.71,1.71,0,0,0,.26.93.65.65,0,0,0,.5.33.63.63,0,0,0,.5-.33A1.8,1.8,0,0,0,254.49,282.73Z" style="fill:#263238"></path><path d="M256.11,281.79h0a.89.89,0,0,1,.88-.95.88.88,0,0,1,.86.94h0a.9.9,0,0,1-.88,1A.89.89,0,0,1,256.11,281.79Zm1.27,0h0c0-.3-.17-.54-.41-.54s-.39.24-.39.53h0c0,.3.17.54.41.54S257.38,282.07,257.38,281.79Zm-.67,2.47,2.44-3.32a.19.19,0,0,1,.18-.09.21.21,0,0,1,.21.2.24.24,0,0,1-.05.14l-2.43,3.32a.21.21,0,0,1-.19.1.2.2,0,0,1-.2-.21A.33.33,0,0,1,256.71,284.26Zm1.64-.57v0a.88.88,0,1,1,1.75,0h0a.9.9,0,0,1-.88.95A.88.88,0,0,1,258.35,283.69Zm1.27,0v0c0-.29-.17-.54-.4-.54s-.4.25-.4.53h0c0,.31.17.55.41.55S259.62,284,259.62,283.69Z" style="fill:#263238"></path><rect x="265.78" y="261.25" width="101.48" height="11.03" style="fill:#ebebeb"></rect><rect x="269.46" y="264.38" width="68.43" height="4.77" style="fill:#455a64"></rect><path d="M251.48,267.13a1.27,1.27,0,0,1-2.54,0,1.23,1.23,0,0,1,.57-1.05.87.87,0,0,1,.7-1.4.88.88,0,0,1,.7,1.4A1.25,1.25,0,0,1,251.48,267.13Zm-.58,0a.69.69,0,1,0-.69.68A.68.68,0,0,0,250.9,267.13Zm-1-1.58a.29.29,0,0,0,.3.3.3.3,0,1,0,0-.59A.29.29,0,0,0,249.91,265.55Z" style="fill:#263238"></path><path d="M252.33,266.54a2.34,2.34,0,0,1,.36-1.27,1.21,1.21,0,0,1,1-.59,1.19,1.19,0,0,1,1,.59,2.4,2.4,0,0,1,0,2.53,1.19,1.19,0,0,1-1,.59,1.21,1.21,0,0,1-1-.59A2.33,2.33,0,0,1,252.33,266.54Zm2.1,0a1.78,1.78,0,0,0-.26-1,.63.63,0,0,0-.49-.32.64.64,0,0,0-.5.32,1.85,1.85,0,0,0,0,1.89.64.64,0,0,0,.5.32.63.63,0,0,0,.49-.32A1.77,1.77,0,0,0,254.43,266.54Z" style="fill:#263238"></path><path d="M256,265.6h0a.9.9,0,0,1,.88-.95.88.88,0,0,1,.87.94h0a.9.9,0,0,1-.88,1A.89.89,0,0,1,256,265.6Zm1.28,0h0c0-.3-.17-.54-.41-.54s-.4.24-.4.53h0c0,.3.17.54.41.54S257.32,265.89,257.32,265.6Zm-.67,2.47,2.43-3.32a.22.22,0,0,1,.4.11.29.29,0,0,1-.05.14L257,268.32a.23.23,0,0,1-.19.1.21.21,0,0,1-.21-.21A.24.24,0,0,1,256.65,268.07Zm1.63-.57h0a.9.9,0,0,1,.88-.95.89.89,0,0,1,.87.94h0a.89.89,0,0,1-.88.94A.88.88,0,0,1,258.28,267.5Zm1.28,0h0c0-.3-.17-.54-.41-.54s-.39.24-.39.53h0c0,.3.16.54.4.54S259.56,267.78,259.56,267.5Z" style="fill:#263238"></path><rect x="265.78" y="245.06" width="101.48" height="11.03" style="fill:#ebebeb"></rect><rect x="269.46" y="248.19" width="58.09" height="4.77" style="fill:#FFC727"></rect><path d="M251.37,248.9,250,252a.27.27,0,0,1-.27.18l-.11,0a.3.3,0,0,1-.16-.38l1.15-2.71h-1.37a.3.3,0,0,1-.29-.3.28.28,0,0,1,.29-.29h1.87l.11,0,0,0s0,0,0,0l0,0,0,0v0l0,0v0l0,0v.12S251.37,248.88,251.37,248.9Z" style="fill:#263238"></path><path d="M252,250.35a2.2,2.2,0,0,1,.36-1.26,1.2,1.2,0,0,1,1-.59,1.22,1.22,0,0,1,1,.59,2.28,2.28,0,0,1,.35,1.26,2.36,2.36,0,0,1-.35,1.27,1.25,1.25,0,0,1-1,.59,1.22,1.22,0,0,1-1-.59A2.28,2.28,0,0,1,252,250.35Zm2.09,0a1.74,1.74,0,0,0-.25-.94.62.62,0,0,0-.49-.32.63.63,0,0,0-.51.32,1.74,1.74,0,0,0-.25.94,1.72,1.72,0,0,0,.25.94.65.65,0,0,0,.51.33.63.63,0,0,0,.49-.33A1.72,1.72,0,0,0,254.09,250.35Z" style="fill:#263238"></path><path d="M255.71,249.41h0a.88.88,0,1,1,1.75,0h0a.88.88,0,1,1-1.75,0Zm1.27,0h0c0-.29-.16-.54-.4-.54s-.4.25-.4.53h0c0,.3.17.54.41.54S257,249.7,257,249.41Zm-.66,2.48,2.43-3.32a.19.19,0,0,1,.18-.1.21.21,0,0,1,.21.21.19.19,0,0,1-.05.13l-2.43,3.33a.21.21,0,0,1-.18.09.2.2,0,0,1-.21-.2A.2.2,0,0,1,256.32,251.89Zm1.63-.58h0a.88.88,0,1,1,1.75,0h0a.9.9,0,0,1-.88.95A.89.89,0,0,1,258,251.31Zm1.28,0h0c0-.3-.17-.54-.41-.54s-.4.24-.4.53h0c0,.3.17.54.41.54S259.23,251.6,259.23,251.31Z" style="fill:#263238"></path></g><g id="freepik--chart-1--inject-74"><path d="M267.18,106.68A49.82,49.82,0,0,1,235.38,153l-4.67,1.79-.43-1.13-.89.34a49.56,49.56,0,1,1-17.77-95.83h1v-1h5a49.51,49.51,0,0,1,49.56,49.56Z" style="fill:#fff"></path><path d="M227.59,149.29a44.56,44.56,0,1,1-16-86.17v44.56Z" style="fill:#37474f"></path><path d="M262.18,106.68a44.55,44.55,0,0,1-28.59,41.61l-16-41.61V62.12a44.52,44.52,0,0,1,44.56,44.56Z" style="fill:#FFC727"></path><path d="M191.67,83.32l.21,0a2,2,0,0,1,1.6,2,1.92,1.92,0,0,1-1.18,1.87,2,2,0,0,1-2.18-.3,1.91,1.91,0,0,1-.64-2.07,2,2,0,0,1,1.63-1.47l.11,0Z" style="fill:#fff"></path><path d="M191.65,103.65v-3.36c0-.16,0-.16-.17-.16s-.24,0-.24.23v6.57a1.09,1.09,0,0,1-.42.89.61.61,0,0,1-.46.16,1.22,1.22,0,0,0-.27,0c-.4.06-.82-.41-.85-.8,0-.17,0-.34,0-.51v-6.42c0-.1,0-.13-.13-.12h-2.24c-.17,0-.18,0-.13-.18.66-2.27,1.31-4.55,2-6.82l.67-2.32c0-.14,0-.15-.11-.15-.33,0-.26,0-.35.26-.49,1.69-1,3.39-1.45,5.08a.83.83,0,0,1-.61.65.89.89,0,0,1-.91-.27.77.77,0,0,1-.16-.79c.17-.61.35-1.22.52-1.83.38-1.3.75-2.61,1.13-3.91a2.87,2.87,0,0,1,1.35-1.74,2.42,2.42,0,0,1,1.11-.29h3a2.53,2.53,0,0,1,2.31,1.38,6.66,6.66,0,0,1,.49,1.38c.46,1.62.93,3.24,1.39,4.86a1.39,1.39,0,0,1,0,.7c0,.27-.28.4-.52.49a.86.86,0,0,1-1.13-.61c-.48-1.75-1-3.49-1.49-5.24a.15.15,0,0,0-.16-.12c-.3,0-.31,0-.22.29q1.08,3.78,2.17,7.55l.42,1.46c0,.16,0,.17-.12.17h-2.23c-.17,0-.17,0-.17.17V107a.94.94,0,0,1-.54.89.46.46,0,0,1-.23.06h-.25a1,1,0,0,1-1-1Z" style="fill:#fff"></path><path d="M185.32,119.32a2.91,2.91,0,0,1-5.8.3s0,0,0,0q0-.34,0-.69a7.07,7.07,0,0,1,.42-2.46,4.21,4.21,0,0,1,1.55-2,3.45,3.45,0,0,1,1.8-.56.66.66,0,0,1,.69.64.67.67,0,0,1-.64.69,2.19,2.19,0,0,0-1.13.34,2.49,2.49,0,0,0-.76.84,2.23,2.23,0,0,0-.15.31,2.75,2.75,0,0,1,1.15-.24A2.9,2.9,0,0,1,185.32,119.32Zm-1.33,0a1.58,1.58,0,1,0-3.15,0,1.58,1.58,0,0,0,3.15,0Z" style="fill:#fff"></path><path d="M191.62,117.14a2.92,2.92,0,0,1,.88,2.11,3,3,0,0,1-.88,2.1,2.9,2.9,0,0,1-2.09.87h0a2.91,2.91,0,0,1-2.09-.87.68.68,0,1,1,1-1,1.6,1.6,0,0,0,1.16.48,1.64,1.64,0,0,0,1.61-1.62,1.54,1.54,0,0,0-.48-1.15,1.52,1.52,0,0,0-1.13-.47,1.6,1.6,0,0,0-1.16.47.69.69,0,0,1-1,0,1.83,1.83,0,0,0-.13-.16s0,0,0,0a.08.08,0,0,0,0-.06s0-.06,0-.09,0,0,0,0a.74.74,0,0,1,0-.21l.36-3.1a.76.76,0,0,1,.3-.48s0,0,.05,0l0,0a.62.62,0,0,1,.31-.07h3.54a.68.68,0,1,1,0,1.35h-2.95l-.15,1.19a3.22,3.22,0,0,1,.81-.11A2.91,2.91,0,0,1,191.62,117.14Z" style="fill:#fff"></path><path d="M194.34,115.9v0a2,2,0,0,1,2-2.15,2,2,0,0,1,2,2.12v0a2,2,0,0,1-2,2.15A2,2,0,0,1,194.34,115.9Zm2.89,0v0c0-.67-.39-1.22-.92-1.22s-.9.55-.9,1.19v0c0,.68.38,1.22.92,1.22S197.23,116.55,197.23,115.9Zm-1.51,5.6,5.5-7.52a.49.49,0,0,1,.89.26.55.55,0,0,1-.11.31l-5.5,7.52a.5.5,0,0,1-.42.21.45.45,0,0,1-.47-.46A.59.59,0,0,1,195.72,121.5Zm3.69-1.3v0a2,2,0,0,1,2-2.14,2,2,0,0,1,2,2.12v0a2,2,0,0,1-2,2.15A2,2,0,0,1,199.41,120.2Zm2.89,0v0c0-.67-.38-1.22-.92-1.22s-.9.55-.9,1.2v0c0,.69.38,1.23.92,1.23S202.3,120.84,202.3,120.2Z" style="fill:#fff"></path><g id="freepik--1jhwpttif--inject-74"><path d="M235.06,90.24a3.09,3.09,0,0,1,.22-.79,2.49,2.49,0,0,1,2.3-1.54c1.55,0,3.09,0,4.63,0a2.6,2.6,0,0,1,2.51,2.33c0,.15,0,.3,0,.46v6a.89.89,0,0,1-.43.82.88.88,0,0,1-1.33-.76v-5.4c0-.29,0-.25-.25-.26,0,0,0,0-.07,0s-.15,0-.14.14v15.53a1.19,1.19,0,0,1-.68,1.14.37.37,0,0,1-.23,0,3,3,0,0,0-.42,0,.88.88,0,0,1-.8-.41,1.12,1.12,0,0,1-.25-.77v-9c0-.1,0-.14-.14-.14-.34,0-.34,0-.34.34,0,2.91,0,5.83,0,8.74a1.18,1.18,0,0,1-.68,1.13.09.09,0,0,1-.05,0,1.73,1.73,0,0,1-1.12-.12,1.15,1.15,0,0,1-.52-1c0-1.47,0-2.94,0-4.41V91.32c0-.22,0-.22-.21-.22s-.24,0-.24.24v5.4a.89.89,0,0,1-.58.85A.87.87,0,0,1,235.1,97s0-.08,0-.12Z" style="fill:#fff"></path><path d="M239.9,87.37a2,2,0,1,1,2-2A2,2,0,0,1,239.9,87.37Z" style="fill:#fff"></path></g><path d="M234.31,120a.66.66,0,0,1-.67.66h-.12v.91a.66.66,0,0,1-1.32,0v-.91h-3.78a.56.56,0,0,1-.4-.14.64.64,0,0,1-.11-.92l4.44-5.52s0,0,0,0l0,0,.06,0s0,0,0,0l.07,0s0,0,0,0l.07,0H233l.07,0,0,0,.06,0a.13.13,0,0,0,.06,0,0,0,0,0,1,0,0,0,0,0,0,1,0,0l0,0,0,0,.05.06a.11.11,0,0,0,0,0,.64.64,0,0,1,0,.07s0,0,0,0a.15.15,0,0,1,0,.07s0,0,0,.06v4.88h.12A.67.67,0,0,1,234.31,120Zm-2.11-3.62-2.39,3h2.39Z" style="fill:#fff"></path><path d="M240.29,117.14a2.91,2.91,0,0,1,.87,2.11,3,3,0,0,1-.87,2.1,2.92,2.92,0,0,1-2.1.87h0a2.88,2.88,0,0,1-2.09-.87.65.65,0,0,1,0-1,.67.67,0,0,1,1,0,1.61,1.61,0,0,0,2.29,0,1.63,1.63,0,0,0,.48-1.14,1.58,1.58,0,0,0-.48-1.15,1.53,1.53,0,0,0-1.14-.47,1.56,1.56,0,0,0-1.15.47.69.69,0,0,1-1,0c-.05,0-.08-.11-.13-.16s0,0,0,0a.09.09,0,0,0,0-.06s0-.06,0-.09,0,0,0,0a.74.74,0,0,1,0-.21l.36-3.1a.68.68,0,0,1,.3-.48l0,0,0,0a.64.64,0,0,1,.31-.07h3.54a.68.68,0,1,1,0,1.35h-2.95l-.14,1.19a3.15,3.15,0,0,1,.8-.11A2.93,2.93,0,0,1,240.29,117.14Z" style="fill:#fff"></path><path d="M243,115.9v0a2,2,0,0,1,2-2.15,2,2,0,0,1,2,2.12v0a2,2,0,1,1-4,0Zm2.89,0v0c0-.67-.38-1.22-.92-1.22s-.9.55-.9,1.19v0c0,.68.38,1.22.92,1.22S245.89,116.55,245.89,115.9Zm-1.51,5.6,5.51-7.52a.46.46,0,0,1,.41-.21.46.46,0,0,1,.47.47.55.55,0,0,1-.1.31l-5.51,7.52a.49.49,0,0,1-.42.21.46.46,0,0,1-.47-.46A.59.59,0,0,1,244.38,121.5Zm3.7-1.3v0a2,2,0,1,1,3.95,0v0a2,2,0,0,1-2,2.15A2,2,0,0,1,248.08,120.2Zm2.89,0v0c0-.67-.39-1.22-.93-1.22s-.9.55-.9,1.2v0c0,.69.39,1.23.93,1.23S251,120.84,251,120.2Z" style="fill:#fff"></path></g><g id="freepik--character-2--inject-74"><path d="M313.64,447.57c2.29.71,67.12-.68,69.57-2.29.92-.6,1.27-10.07,1.36-21.5,0-2.47,0-5,0-7.61,0-3.07,0-6.18-.06-9.19-.17-13.54-.58-25.47-.58-25.47l-42.21.79.49,25.46.18,9.19.36,7.6s-24.58,11.64-27.07,13.7S311.37,446.87,313.64,447.57Z" style="fill:#f7a9a0"></path><path d="M313.64,447.57c2.29.71,67.12-.68,69.57-2.29.92-.6,1.27-10.07,1.36-21.5,0-2.47,0-5,0-7.61,0-3.07,0-6.18-.06-9.19l-42.3.78.18,9.19.36,7.6s-24.58,11.64-27.07,13.7S311.37,446.87,313.64,447.57Z" style="fill:#fff"></path><path d="M313.45,447.67c1.49.46,29.11.05,49.21-.74,4.65-.19,8.9-.39,12.33-.61,4.73-.3,7.9-.62,8.41-1,1.13-.75,1.42-14.63,1.4-29.27l-42.42.79.36,7.64s-24.72,11.7-27.22,13.77S311.16,447,313.45,447.67Z" style="fill:#FFC727"></path><path d="M313.45,447.67c1.49.46,29.11.05,49.21-.74,4.65-.19,8.9-.39,12.33-.61,4.73-.3,7.9-.62,8.41-1,1.13-.75,1.42-14.63,1.4-29.27l-42.42.79.36,7.64s-24.72,11.7-27.22,13.77S311.16,447,313.45,447.67Z" style="opacity:0.30000000000000004"></path><path d="M314.33,445c10.92-.5,55-1.49,65.86-1.16.09,0,.09.06,0,.07-10.82.73-54.93,1.37-65.87,1.27C314.1,445.22,314.1,445.05,314.33,445Z" style="fill:#263238"></path><path d="M341.15,422.13c4.28-.9,9.55-.35,12.91,2.65.13.11,0,.29-.18.25a60.78,60.78,0,0,0-12.7-2.36A.27.27,0,0,1,341.15,422.13Z" style="fill:#263238"></path><path d="M338.08,424.07c4.29-.9,9.56-.35,12.91,2.64.13.12,0,.3-.18.26a60.14,60.14,0,0,0-12.7-2.36A.27.27,0,0,1,338.08,424.07Z" style="fill:#263238"></path><path d="M335,426c4.28-.89,9.56-.34,12.91,2.65.13.12,0,.3-.18.26a60.14,60.14,0,0,0-12.7-2.36A.28.28,0,0,1,335,426Z" style="fill:#263238"></path><path d="M332,427.94c4.29-.89,9.56-.35,12.91,2.65.13.11,0,.3-.17.25A61,61,0,0,0,332,428.48.27.27,0,0,1,332,427.94Z" style="fill:#263238"></path><path d="M346.63,447.44c5.46-.14,11-.32,16-.52,4.65-.17,8.9-.38,12.33-.6,4.73-.3,7.9-.62,8.41-1,1-.66,1.34-11.38,1.39-23.87C375.17,427.92,356.25,440.85,346.63,447.44Z" style="opacity:0.1"></path><path d="M338.6,424l48.17.05s-2.64-108.43-2.12-111c1.24-6,28.64-101.64,28.64-101.64l-38,.66-10.23.23s-1.64,15.92-2.1,17.61c-6.35,23.19-18.76,62.79-21.29,77.47C337.24,332.89,338.6,424,338.6,424Z" style="fill:#37474f"></path><path d="M340.16,416c7.52-.2,34.13-1,44.15-.24a.07.07,0,0,1,0,.14c-3.43.56-36.63.41-44.14.31A.11.11,0,1,1,340.16,416Z" style="fill:#263238"></path><path d="M380.87,310.72c1.44-5.86,12.17-42.38,15.45-53.91s6.36-23.12,9.19-34.76c.36-1.48.72-3,1.12-4.42,0-.12.21-.07.19.05-1.09,5.87-2.52,11.68-3.9,17.48s-2.84,11.59-4.39,17.35q-4.66,17.37-10.18,34.49c-1.83,5.68-4.86,17.36-6.48,23.12s1,100.18.86,101.71a.35.35,0,0,1-.69,0C381.83,400.7,379.45,316.51,380.87,310.72Z" style="fill:#263238"></path><path d="M375.24,212.13s9.31,101.48,9.41,101c1.2-5.83,27-95.74,28.57-101.36,0-.18.07-.27.07-.27Z" style="fill:#263238"></path><path d="M362.2,453.13c2.29.71,67.12-.68,69.57-2.29.92-.61,1.27-10.07,1.36-21.5,0-2.48,0-5,0-7.62,0-3.06,0-6.17-.06-9.18-.17-13.55-.58-25.47-.58-25.47l-42.21.78.49,25.47.18,9.19.36,7.6s-24.58,11.64-27.07,13.7S359.93,452.42,362.2,453.13Z" style="fill:#f7a9a0"></path><path d="M362.2,453.13c2.29.71,67.12-.68,69.57-2.29.92-.61,1.27-10.07,1.36-21.5,0-2.48,0-5,0-7.62,0-3.06,0-6.17-.06-9.18l-42.3.78.18,9.19.36,7.6s-24.58,11.64-27.07,13.7S359.93,452.42,362.2,453.13Z" style="fill:#fff"></path><path d="M362,453.23c1.49.46,29.11,0,49.21-.74,4.65-.19,8.9-.4,12.33-.61,4.73-.31,7.9-.62,8.41-1,1.13-.75,1.41-14.63,1.4-29.27l-42.42.78.36,7.65s-24.72,11.7-27.22,13.77S359.72,452.51,362,453.23Z" style="fill:#FFC727"></path><path d="M362,453.23c1.49.46,29.11,0,49.21-.74,4.65-.19,8.9-.4,12.33-.61,4.73-.31,7.9-.62,8.41-1,1.13-.75,1.41-14.63,1.4-29.27l-42.42.78.36,7.65s-24.72,11.7-27.22,13.77S359.72,452.51,362,453.23Z" style="opacity:0.30000000000000004"></path><path d="M362.89,450.6c10.92-.5,55-1.5,65.86-1.16.09,0,.09.06,0,.06-10.82.74-54.93,1.38-65.87,1.28C362.66,450.78,362.66,450.61,362.89,450.6Z" style="fill:#263238"></path><path d="M389.71,427.69c4.28-.9,9.55-.35,12.91,2.64.13.12,0,.3-.18.26a60.14,60.14,0,0,0-12.7-2.36A.27.27,0,0,1,389.71,427.69Z" style="fill:#263238"></path><path d="M386.64,429.62c4.29-.89,9.56-.34,12.91,2.65.13.12,0,.3-.18.26a60.14,60.14,0,0,0-12.7-2.36A.28.28,0,0,1,386.64,429.62Z" style="fill:#263238"></path><path d="M383.58,431.56c4.28-.89,9.56-.35,12.91,2.65.13.11,0,.3-.18.25a60.78,60.78,0,0,0-12.7-2.36A.27.27,0,0,1,383.58,431.56Z" style="fill:#263238"></path><path d="M380.51,433.5c4.29-.9,9.56-.35,12.91,2.64.13.12,0,.3-.17.26A61,61,0,0,0,380.54,434,.27.27,0,0,1,380.51,433.5Z" style="fill:#263238"></path><path d="M383.61,424c3.09,2.3,7.07,3.19,10.65,4.42a.53.53,0,0,0,.66-.55.11.11,0,0,0,.1-.15,22.94,22.94,0,0,0-6.83-9.71c-1.83-1.47-5-2.45-6.64-.09S381.8,422.65,383.61,424Zm-1.17-3.43c-.86-4.71,4.26-2.34,5.56-1.2a25.34,25.34,0,0,1,2.34,2.41c1.52,1.76,2.77,3.7,4.11,5.59-1.72-.72-3.49-1.28-5.23-1.93C387.14,424.65,382.91,423.15,382.44,420.56Z" style="fill:#263238"></path><path d="M409.24,420.84c-1.1-2.65-4.4-2.37-6.5-1.33a22.91,22.91,0,0,0-8.75,8,.11.11,0,0,0,.06.17.53.53,0,0,0,.53.68c3.76-.44,7.84-.45,11.35-2C408,425.42,410.28,423.36,409.24,420.84Zm-9.1,5.71c-1.84.26-3.69.44-5.52.77a68.79,68.79,0,0,1,5.21-4.58,26,26,0,0,1,2.79-1.86c1.52-.83,7-2.05,5.18,2.36C406.79,425.67,402.34,426.23,400.14,426.55Z" style="fill:#263238"></path><path d="M389.89,428.94l46.74-.87s-13.12-168.58-11.49-177.52c2.67-14.62-.26-28-4.15-39.23l-48,.85s-.67,12.8,4.17,20.34c0,0,4.32,2.62,6.42,3.78Z" style="fill:#37474f"></path><path d="M391.18,420.64c7.09-.32,5.05-.33,12.14-.56,3.47-.12,26.27-.86,29.53-.4a.07.07,0,0,1,0,.14c-3.23.62-26,1-29.51,1-7.1.1-5.06,0-12.16,0A.11.11,0,0,1,391.18,420.64Z" style="fill:#263238"></path><path d="M374.25,230.52a86.84,86.84,0,0,1,12.95,7.34.15.15,0,0,1-.15.26c-4.38-2.31-8.85-4.56-13.09-7.1A.29.29,0,1,1,374.25,230.52Z" style="fill:#263238"></path><path d="M380,229.75a21,21,0,0,1,.67,2.68,5.92,5.92,0,0,1,.18,2.17c0,.14-.22.13-.29,0a7.39,7.39,0,0,1-.75-2.16c-.23-.83-.48-1.66-.69-2.5C379,229.42,379.86,229.21,380,229.75Z" style="fill:#263238"></path><path d="M380.37,225.36c-.14-.76-.27-1.52-.43-2.27s-.36-1.57-.46-2.36c0-.12-.21-.08-.19.05.13.75.16,1.54.23,2.31s.17,1.54.26,2.31c.17,1.43.44,2.87.75,4.28a5,5,0,0,1-2.11-.83,4,4,0,0,1-1.16-2.17c-.24-.86-.44-1.74-.7-2.6a17.19,17.19,0,0,1-.72-2.91c0-.12-.21-.08-.19.05a31.31,31.31,0,0,0,1.27,6.11,3.37,3.37,0,0,0,1.19,2,6.61,6.61,0,0,0,2.56.71c.1,0,.25,0,.24-.13A43.62,43.62,0,0,0,380.37,225.36Z" style="fill:#263238"></path><path d="M417.73,250.11c.27-3.36.75-6.69,1-10,.61-6.73-.46-13.36-1.58-20-.26-1.54.46-.76.48-.64a78.49,78.49,0,0,1,1.82,18.15c-.17,5.91-1.11,11.75-1.1,17.67s.6,12,1.09,17.94l1.5,18c2,24.13,3.88,48.28,5.8,72.42q.79,10.11,1.56,20.22c.52,6.86,1.31,23.78,1.69,30.65,0,.6-.85.57-.91,0-1.25-12.11-2.25-34.33-3.25-46.46S424,344,423,332s-1.91-24-2.84-36q-.71-9-1.38-18c-.45-6-1-12-1.21-18A87.83,87.83,0,0,1,417.73,250.11Z" style="fill:#263238"></path><path d="M401,219.93c0-.07.14-.1.18,0a7.9,7.9,0,0,1,.48,2.45,17.19,17.19,0,0,0,.67,2.63,10.6,10.6,0,0,0,2.82,4.55c2.92,2.63,6.77,3.55,10.49,4.39.14,0,.09.21,0,.23a16.75,16.75,0,0,1-6.47-.89,13.6,13.6,0,0,1-5-2.7,9.32,9.32,0,0,1-2.78-4.82,16.18,16.18,0,0,1-.36-2.95c0-.47,0-1-.05-1.42A3.9,3.9,0,0,1,401,219.93Z" style="fill:#263238"></path><path d="M387.38,154.89c-3.34,9.83-20,45.24-30.75,47.17-7.62,1.37-36.34-4.42-42.86-7.75-3.7-1.9,6-23.68,11-22.91,6.17,1,23.61,5.85,27.25,5.29,2-.3,12.22-11.91,26.88-27.51C386.39,141.16,390.26,146.4,387.38,154.89Z" style="fill:#f7a9a0"></path><path d="M315.35,195c-2.81-.59-17.15-4.79-20.43-6.65s-12.32-7.87-11.15-10.53,4-1.1,4-1.1-3.41-3.15-2-5.71,5.68,0,5.68,0-3.28-3.49-1.68-5.94,5.45.83,5.45.83-3.14-3-1-4.52c2.61-1.77,7.77,4.5,11.54,6.28.85.4,17.94,6.93,17.94,6.93Z" style="fill:#f7a9a0"></path><path d="M294.83,165.61c3.81,4.61,6.27,6,11.85,7.8.11,0,.08.21,0,.18-5.63-1.3-9-2.56-12-7.81C294.45,165.53,294.65,165.39,294.83,165.61Z" style="fill:#263238"></path><path d="M291.1,170.63c4.37,4.44,7,5.93,12.73,8.29a.07.07,0,0,1-.05.14c-5.79-1.84-9.09-3.17-12.87-8.18C290.74,170.66,290.9,170.43,291.1,170.63Z" style="fill:#263238"></path><path d="M288,176.83c4.54,4,7.38,5.76,13.21,7.33a.11.11,0,0,1,0,.22c-6.11-1-9.67-3.2-13.28-7.4C287.66,176.7,287.73,176.58,288,176.83Z" style="fill:#263238"></path><path d="M328.45,172.12s-5.41-5.92-8.29-7.66-16-4.32-16.72-1.51c-.92,3.62,6.36,6.59,10.12,7.58,0,0-2.14,8.37,2.62,11.63S328.45,172.12,328.45,172.12Z" style="fill:#f7a9a0"></path><path d="M303.52,164c1.53,3.91,6.55,4.89,10.12,6.13a.33.33,0,0,1,.18.53c-.66,3.57-.56,8.8,2.13,11.52.08.08,0,.21-.11.14-3.28-2.54-3.8-7.66-2.83-11.52-3.68-1.21-8.67-2.41-9.53-6.78A0,0,0,0,1,303.52,164Z" style="fill:#263238"></path><path d="M328.45,171.38l-10,26.62s28.82,7.1,40.29,4.39c8.54-2,24.2-32.62,29.15-46.24s-3.42-13.82-10.26-6.69-24.39,25.94-25.6,26.36C351.23,176.1,328.45,171.38,328.45,171.38Z" style="fill:#FFC727"></path><polygon points="317.15 199.66 324.05 201.69 333.47 170.72 327 168.31 317.15 199.66" style="fill:#FFC727"></polygon><path d="M329.08,186.31c.61-2.15,1.2-4.31,1.79-6.48s1.24-4.31,1.67-6.49c0-.1-.12-.16-.16-.06-.77,2-1.34,4.13-2,6.19s-1.33,4.38-2,6.57c-1.3,4.34-2.42,8.71-3.49,13.11,0,.11.12.13.15,0C326.51,194.92,327.87,190.64,329.08,186.31Z" style="fill:#263238"></path><path d="M387.92,156.15c-4.95,13.61-20.61,44.21-29.15,46.24a38.3,38.3,0,0,1-10.31.51l39.15-57.68C389.63,146.32,390.25,149.76,387.92,156.15Z" style="opacity:0.1"></path><path d="M363.21,218.17c1.55,1.23,61.3.7,61.55.27s-7.88-56.34-25.73-71.5c-5.14-4.36-14.86-4-18.39.93C372.37,159.49,362.24,217.4,363.21,218.17Z" style="fill:#FFC727"></path><polygon points="388.04 160.36 385.52 155.72 381.64 159.96 382.75 163.47 386.45 163.75 388.04 160.36" style="fill:#263238"></polygon><polygon points="386.45 163.75 387.27 205.56 381.27 218.22 375.26 204.75 382.75 163.47 386.45 163.75" style="fill:#263238"></polygon><path d="M406.79,151.43c18.06,16.45,32.85,44.08,30.39,53-1.78,6.42-32.44,16.45-50.45,21.8-3.32,1-9-25.76-5.38-26.58,6.48-1.49,27.64-11.39,28.07-11.52.93-.28-7.65-18.14-12.28-30C391.23,142.88,398.7,144.06,406.79,151.43Z" style="fill:#f7a9a0"></path><path d="M351.59,209.31a4,4,0,0,0,2.41,3.92,6,6,0,0,0-1.22,3.89c.22,2.46,4.17,3.19,4.17,3.19a7.36,7.36,0,0,0-.64,4.3c.45,2.33,4.33,3.63,4.33,3.63a6.47,6.47,0,0,0,1.83,4.14c3,2.86,9.16,1.27,13.08.29s14.12-7.4,16.19-8.43l-6-25.2s-18.81-.64-23.26,1.16C358.71,201.72,351.88,206.17,351.59,209.31Z" style="fill:#f7a9a0"></path><path d="M354,213.12c3.59-2.56,7.75-3.93,11.82-5.53a.08.08,0,0,1,.06.15c-4.07,1.54-7.78,3.87-11.78,5.57A.11.11,0,0,1,354,213.12Z" style="fill:#263238"></path><path d="M356.9,220.22a11.51,11.51,0,0,1,2.78-1.16c1-.33,2-.66,3.05-1,2-.61,4.11-1.18,6.19-1.69.09,0,.14.12.05.15-2,.61-4.07,1.25-6.08,1.95-1,.35-2,.71-3,1.08a13.85,13.85,0,0,1-2.87.9A.15.15,0,0,1,356.9,220.22Z" style="fill:#263238"></path><path d="M360.73,228.22a7.83,7.83,0,0,1,2.56-.91l2.81-.79c1.87-.54,3.74-1.08,5.59-1.69a.07.07,0,0,1,.05.14c-1.88.63-3.74,1.28-5.63,1.88l-2.77.89a7.54,7.54,0,0,1-2.59.57A0,0,0,0,1,360.73,228.22Z" style="fill:#263238"></path><path d="M384.8,196.75l9.76,28s39.28-12.2,43.11-19-10.36-35-27.79-52.27c-9.55-9.44-20.05-13.61-12.58,6.53s11.3,27.19,11.27,27.45S384.8,196.75,384.8,196.75Z" style="fill:#FFC727"></path><polygon points="392.06 226.85 398.78 224.28 387.47 193.95 380.86 195.96 392.06 226.85" style="fill:#FFC727"></polygon><path d="M393.45,209q-1.24-3.12-2.52-6.23c-.84-2.06-1.63-4.19-2.61-6.18-.05-.09-.19-.06-.16,0,.61,2.07,1.44,4.1,2.18,6.12s1.6,4.29,2.42,6.43c1.6,4.23,3.36,8.39,5.18,12.53.05.1.17,0,.14-.07C396.62,217.4,395.11,213.18,393.45,209Z" style="fill:#263238"></path><path d="M410.64,186.78c-.64.13-1.28.29-1.91.46A95,95,0,0,0,404.6,177c-1.57-3.45-3.15-6.9-4.8-10.32,0,0-.08,0-.06,0,.83,2.23,1.71,4.46,2.59,6.68-.6-1-1.17-2.06-1.73-3.1,0-.07-.16,0-.13.07a22.61,22.61,0,0,0,1.5,2.89l.77,1.14c.4,1,.79,2,1.19,3a93.2,93.2,0,0,0,4.56,10,94.55,94.55,0,0,0-9.36,3.34,107.25,107.25,0,0,0-11.05,4.81s-.28-1.72-.55-1.9-5.53,1.6-7.12,2.31a18.45,18.45,0,0,0,1,2.19.09.09,0,0,0,.16-.06c-.21-.7-.41-1.06-.68-1.81,1.06-.32,6-2,6.27-2.05a11.68,11.68,0,0,0,.78,1.64s7.64-3,11.4-4.41c1.86-.72,3.73-1.41,5.6-2.09s3.85-1.33,5.72-2.18C410.86,187,410.83,186.74,410.64,186.78Z" style="fill:#263238"></path><path d="M383.73,155.93c3.36,1.16,9.73-3.16,12.5-7.19.19-.27,0-3.4.07-7.21,0-2.32.09-4.89.33-7.23.05-.48-15.06,2.07-15.06,2.07a37.74,37.74,0,0,1,.5,9.15,5.5,5.5,0,0,1-.2.95.57.57,0,0,0,0,.16C381.35,148.42,380.48,154.8,383.73,155.93Z" style="fill:#f7a9a0"></path><path d="M395.72,134.27c-1.08,3.89-4.52,13.21-12.39,12.59a9.14,9.14,0,0,1-1.49-.23.57.57,0,0,1,0-.16,6.62,6.62,0,0,0,.21-.95,37.5,37.5,0,0,0-.51-9.15S392.47,134.52,395.72,134.27Z" style="fill:#263238"></path><path d="M399.47,116.66c1.21,5.34-2.66,20.23-6.62,23.33-5.75,4.48-14.6,4.3-18.27-2.48-3.56-6.58,1.83-25.9,6.2-28.65C387.23,104.81,397.68,108.77,399.47,116.66Z" style="fill:#f7a9a0"></path><path d="M398.79,126.35c-1.24,5.72-3.57,11.8-6,13.64-5.74,4.48-14.59,4.29-18.27-2.48-1.3-2.43-1.4-6.57-.78-11,0,.22.35,3.51,2.17,4a2.61,2.61,0,0,0,2.86-1.07l1.27-.14a8.93,8.93,0,0,0,5.94,2.14,9.62,9.62,0,0,0,7.8-3.35c1.37-1.67,1.39-2.37,1.39-2.37Z" style="fill:#263238;opacity:0.2"></path><path d="M384.67,124.93s.07.06.06.11c-.29,1-.45,2.18.37,2.75,0,0,0,.06,0,0C384,127.4,384.24,125.82,384.67,124.93Z" style="fill:#263238"></path><path d="M385.84,124.11c1.64.28.94,3.56-.58,3.29S384.45,123.86,385.84,124.11Z" style="fill:#263238"></path><path d="M378.85,123.68s-.09,0-.1.07c-.18,1-.56,2.16-1.55,2.3,0,0,0,.06,0,.06C378.35,126.19,378.84,124.67,378.85,123.68Z" style="fill:#263238"></path><path d="M378.17,122.43c-1.6-.48-2.43,2.77-.94,3.2S379.52,122.82,378.17,122.43Z" style="fill:#263238"></path><path d="M387.66,122.78a12.62,12.62,0,0,1-1.37-.1,2.24,2.24,0,0,1-1.38-.38.74.74,0,0,1-.11-.86,1.78,1.78,0,0,1,1.67-.63,2.62,2.62,0,0,1,1.72.7A.75.75,0,0,1,387.66,122.78Z" style="fill:#a6a6a6"></path><path d="M377.26,120.51c.47,0,.9,0,1.37-.06a2.23,2.23,0,0,0,1.39-.33.72.72,0,0,0,.14-.85,1.76,1.76,0,0,0-1.64-.69,2.56,2.56,0,0,0-1.75.64A.76.76,0,0,0,377.26,120.51Z" style="fill:#a6a6a6"></path><path d="M383.19,134.48a1.54,1.54,0,0,1-1,.41,2.74,2.74,0,0,1-1-.48s-.06,0-.05,0a1.38,1.38,0,0,0,1.17.82,1.11,1.11,0,0,0,1-.72C383.31,134.49,383.23,134.45,383.19,134.48Z" style="fill:#263238"></path><path d="M382.77,131.22a3.5,3.5,0,0,1-2.63,1,4.1,4.1,0,0,1-1.25-.21.88.88,0,0,1-.23-.07l-.22-.08a.27.27,0,0,1-.15-.28h0a.29.29,0,0,1,0-.1h0l0-.09c.15-.79.48-2,.48-2-.32.09-1.91.43-1.8,0a52.18,52.18,0,0,1,3.57-10.16.1.1,0,0,1,.18.06c-.76,3.24-2.09,6.32-2.9,9.56a6.24,6.24,0,0,1,1.73-.14c.11.05-.67,2.25-.71,2.61v0a4.88,4.88,0,0,0,3.81-.34C382.78,131.07,382.85,131.15,382.77,131.22Z" style="fill:#263238"></path><path d="M379.41,131.9a4.06,4.06,0,0,0,1.36,1.59,1.85,1.85,0,0,0,1.09.3c.85,0,1-.77,1-1.43a4.38,4.38,0,0,0-.16-1A5.35,5.35,0,0,1,379.41,131.9Z" style="fill:#263238"></path><path d="M380.77,133.49a1.85,1.85,0,0,0,1.09.3c.85,0,1-.77,1-1.43A1.92,1.92,0,0,0,380.77,133.49Z" style="fill:#ff9abb"></path><g style="opacity:0.2"><path d="M383.78,118.31a12.77,12.77,0,0,1-1.72-.26c-.57-.15-1.1-.42-1.67-.55a9.25,9.25,0,0,0-3.32,0c-.1,0-.09.07,0,.06a8.25,8.25,0,0,1,3.46.31,10.35,10.35,0,0,0,2.79.68,10.37,10.37,0,0,1,6.08,2.07s0,0,0,0A10.46,10.46,0,0,0,383.78,118.31Z"></path><path d="M384.16,116.8a12.83,12.83,0,0,1-1.63-.25c-.54-.14-1-.39-1.59-.52a8.94,8.94,0,0,0-3.14,0c-.09,0-.09.07,0,.06a7.9,7.9,0,0,1,3.28.29,10.1,10.1,0,0,0,2.65.66,9.84,9.84,0,0,1,5.76,2s0,0,0,0A9.9,9.9,0,0,0,384.16,116.8Z"></path></g><path d="M396.78,130.17s6.05-8.11,6.05-13.14c0-2.28-2.93-4.09-2.93-4.09a5.11,5.11,0,0,0-1.11-5.28c-2.42-2.77-8.93-2.83-8.93-2.83s-3.59-6.45-9.74-4.63-2.95,8.91-2.95,8.91-2.47,2.87,2.6,5.79,15.72,1.57,15.72,1.57a36.87,36.87,0,0,0-.9,11A3.36,3.36,0,0,0,396.78,130.17Z" style="fill:#a6a6a6"></path><path d="M388.83,104.81a10.48,10.48,0,0,1,4.24-.36,11.48,11.48,0,0,1,3.69,1,6.24,6.24,0,0,1,3.93,5.1,4.36,4.36,0,0,1-1.14,3.19s-.09,0-.05,0c1.53-1.57,1.06-4.27-.21-5.83a9.51,9.51,0,0,0-6-2.91,18.59,18.59,0,0,0-4.41,0A.07.07,0,0,1,388.83,104.81Z" style="fill:#a6a6a6"></path><path d="M375.61,102.65a5.06,5.06,0,0,1,3.82-2.89,8.69,8.69,0,0,1,5.58.74,10.84,10.84,0,0,1,4.25,3.84s0,.08-.06,0a9.61,9.61,0,0,0-8.82-4.29,5.27,5.27,0,0,0-4,2.22,5.2,5.2,0,0,0-.29,4.41,9.84,9.84,0,0,0,3.43,4.18s0,.08,0,0a9.84,9.84,0,0,1-3.48-3.6A5.65,5.65,0,0,1,375.61,102.65Z" style="fill:#a6a6a6"></path><path d="M378.46,115.06a17.84,17.84,0,0,0,7.32,2,37,37,0,0,0,7.94-.31c1.53-.22,3-.49,4.56-.79.05,0,.07.06,0,.07a40.14,40.14,0,0,1-8.26,1.7,20.16,20.16,0,0,1-7.72-.82,17.43,17.43,0,0,1-3.89-1.81S378.43,115,378.46,115.06Z" style="fill:#a6a6a6"></path><path d="M394.59,128.3s3.87-4.56,6-3.14-1.12,8.25-3.81,9a2.64,2.64,0,0,1-3.4-1.75Z" style="fill:#f7a9a0"></path><path d="M399.58,127.1a0,0,0,0,1,0,.07c-1.89.56-3,2.16-3.84,3.85a1.47,1.47,0,0,1,2.22-.19s0,.1-.06.09a1.63,1.63,0,0,0-1.84.4,7.75,7.75,0,0,0-1,1.36c-.1.16-.39,0-.31-.14l0,0C395,130.18,397.07,127.1,399.58,127.1Z" style="fill:#263238"></path><path d="M382.06,145.64l3.78,8.62,10.5-11.39,3.18,3.44s-10,17.89-10.14,17.1L385.54,156l-5,5.4V148.24Z" style="fill:#FFC727"></path><path d="M380.15,154.89c.07-2.17.09-4.36.26-6.52,0-.08.13-.12.15,0,.5,2.08.17,10.39.24,12.37l0,0c.21-.23,4.66-4.76,4.71-4.69.82,1.17,3.63,6.56,3.83,7.06,1.59-2.84,8.36-14.06,10.27-16.76a.07.07,0,0,1,.13.07c-1.39,3-10.13,17.79-10.26,17.75a83.63,83.63,0,0,1-4-7.83c-.75,1-5.23,6.07-5.25,5.74A68,68,0,0,1,380.15,154.89Z" style="fill:#263238"></path></g><g id="freepik--character-1--inject-74"><path d="M206.59,448c-2.19.73-64.78.55-67.16-1-.9-.57-1.41-9.69-1.71-20.72-.06-2.39-.15-40.8-.15-40.8h40.74l-.24,40.8S202,437.08,204.44,439,208.77,447.26,206.59,448Z" style="fill:#eb9481"></path><path d="M137.87,431.12c.31,8.75.79,15.41,1.56,15.89,2.38,1.51,65,1.69,67.16,1s.26-7-2.15-9c-1.34-1.07-9.18-4.82-15.95-8,2.36,1.47,5.38,3.56,5.11,4.79C193.08,438.28,161.91,439.86,137.87,431.12Z" style="fill:#263238"></path><path d="M122.61,204.51s11,116.26,11.27,117.64c0,.18.11,2.28.22,5.7.59,18.75,1.27,82.7,1.27,82.7h44.92s-2.13-74.73-3.82-90.89c-2.14-20.6-15.75-115.15-15.75-115.15Z" style="fill:#263238"></path><path d="M139.24,326q-2.09-35.4-6.25-70.63c-1.58-13.23-3.48-26.42-5.37-39.61,0-.11-.19-.11-.18,0,3.48,23.47,5.94,47.14,8.06,70.77.75,8.35,2.17,22.74,2.93,39.5,1.38,30.62,2,67.24,2.24,75.92a.25.25,0,0,0,.5,0C140.54,378,140.64,349.88,139.24,326Z" style="fill:#37474f"></path><path d="M177.21,403.1c-20.48-.64-38.2-.18-39.73-.06-1.27.09-.56.23.07.26,17.39,1.05,39,.07,39.66,0A.09.09,0,0,0,177.21,403.1Z" style="fill:#37474f"></path><path d="M122.6,204.51s10.26,108.23,11.22,117.07l21.37-117.07Z" style="fill:#37474f"></path><path d="M135.6,453.4c-2.28.4-65.36-9.32-67.5-11.17-.81-.69,10.41-60.42,10.41-60.42l41.16,6.08-7.57,40.88s20.56,13.18,22.68,15.45S137.86,453,135.6,453.4Z" style="fill:#eb9481"></path><path d="M68.11,442.23c2.13,1.85,65.22,11.57,67.49,11.18s1.29-6.92-.82-9.19c-1.23-1.32-8.62-6.27-14.64-10.23,2.14,1.85,5.14,4.67,4.65,5.92-.92,2.32-32-1.36-54.27-14.06C68.93,435,67.84,442,68.11,442.23Z" style="fill:#263238"></path><path d="M160.72,204.51S159.39,223,153,230.94c-1.53,1.92-6.2,3.7-8.62,5.46,0,0-9,83-11.79,92.45-3.06,10.45-15,81.89-15,81.89l-46.31-6.39s13.47-67,16.82-84.39c.74-3.88,10.8-77,10.57-78.66-2.7-20.12,7.09-36.79,7.09-36.79Z" style="fill:#263238"></path><path d="M125.35,212.65a19.93,19.93,0,0,1-5.6,9.95,18.15,18.15,0,0,1-10.16,5.14c-.61.06-.53.47.1.47,7.33,0,14.79-6,16-15.5C125.67,212.49,125.39,212.44,125.35,212.65Z" style="fill:#37474f"></path><path d="M153.9,230.61a40.37,40.37,0,0,0-7.57,4c-2.51,1.55-4.84,3.38-7.27,5.06-.09.06,0,.21.09.15,2.55-1.46,5.2-2.73,7.72-4.25a47.8,47.8,0,0,0,7.14-4.78C154.09,230.73,154,230.57,153.9,230.61Z" style="fill:#37474f"></path><path d="M154.93,215.34c-.39,1.68-.88,3.33-1.32,5s-.74,3.16-1.23,4.7a8.06,8.06,0,0,1-2.39,3.88c-.65.55-1.36,1-2,1.52-.37.27-.77.53-1.15.8.06-.22.11-.45.16-.68l.42-1.91c.3-1.41.59-2.83.88-4.25.56-2.79,1.08-5.61,1.79-8.36,0-.11-.14-.17-.17,0-.83,2.72-1.72,5.41-2.46,8.16-.36,1.35-1.73,8-1.8,8.5s-.14,1-.18,1.48a5.87,5.87,0,0,0-.07,1.51.13.13,0,0,0,.23,0h0a6,6,0,0,0,.49-1.44q.22-.72.39-1.44c0-.18.07-.36.1-.53.68-.38,1.33-.88,2-1.3s1.39-.89,2-1.4a7.53,7.53,0,0,0,2.59-3.66,27.14,27.14,0,0,0,1-4.8c.3-1.9.55-3.82.9-5.71C155.12,215.28,155,215.22,154.93,215.34Z" style="fill:#37474f"></path><path d="M115.48,401.6c-20.19-3.49-37.8-5.5-39.33-5.6-1.27-.08-.59.15,0,.28,17.07,3.45,38.59,5.49,39.28,5.5A.09.09,0,0,0,115.48,401.6Z" style="fill:#37474f"></path><path d="M85.29,355.74c2.65-11.62,5-23.26,7-35s3.54-23.45,5.06-35.22,3-23.72,4.55-35.58a50.66,50.66,0,0,0,.84-8.76c-.14-2.84-1.11-5.58-1.38-8.41a38.13,38.13,0,0,1,2.32-16.21c.47-1.32,3.54-8.59,4.1-9.87.08-.16.34-.09.28.09-1.77,5.37-5.29,12.24-6.06,22.56-.22,2.94.51,5.73,1.11,8.6a24.84,24.84,0,0,1,.15,8.34c-1.47,11.82-3,23.62-4.52,35.43s-3.06,23.52-4.91,35.23-4.06,23.28-6.7,34.81S81.77,375,78.87,386.53c-.36,1.43-.72,2.87-1.1,4.3,0,.17-.29.08-.26-.08C79.86,379,82.63,367.39,85.29,355.74Z" style="fill:#37474f"></path><path d="M166.27,171.81l-3.58.23a9.57,9.57,0,0,0-1-2.65c-1.82-3.24-5-5.64-7.53-8.13,0,0,0,0,0,0a33,33,0,0,1,6.25,8.8,9.57,9.57,0,0,1,.66,2.07l-2.23.15a13.22,13.22,0,0,0-2.47-5.82s-.11,0-.08.08a12.74,12.74,0,0,1,1.75,5.79l-19.33,1.26a31.7,31.7,0,0,1-1.11-5.21.14.14,0,1,0-.28,0,44.44,44.44,0,0,0,.89,5.2l-1.61.1a36.12,36.12,0,0,1-.64-9.1.08.08,0,1,0-.15,0,43.13,43.13,0,0,0,0,9.16l-13.38.88a37.77,37.77,0,0,0,1.25-6.12.13.13,0,1,0-.25,0,29,29,0,0,1-1.77,6.19l-2,.13A31.43,31.43,0,0,0,121.43,164a.12.12,0,0,0-.24,0c-.08,4-1.67,7.47-3.25,10.93l-5,.33c1.43-3.23,4.15-6.31,4.2-10,0-4.08-3.86-5.61-5.33-8.88-2.47-5.48,0-10,3.15-14.27,2.94-3.94,2.15-8,2.47-12.68a29.68,29.68,0,0,1,2.26-10.38,15.75,15.75,0,0,1,14.43-9.28,12.35,12.35,0,0,1,6.61,1.24h0a2.82,2.82,0,0,1,.41.23,16.3,16.3,0,0,1,5.76,5.55l0,0a25,25,0,0,1,1.33,2.29A47,47,0,0,1,150,125a.33.33,0,0,0,0,.13,17.28,17.28,0,0,0,7.76,10c5.77,3.57,5,10.39,1.48,17.53-1.51,3-1.37,4.86-.48,6.34,0,0,0,0,0,0,.13.19.25.37.39.56,1.24,1.61,3.29,2.91,4.84,5.12A13.86,13.86,0,0,1,166.27,171.81Z" style="fill:#263238"></path><path d="M125.76,112a17.33,17.33,0,0,0-7.25,11.06c-.71,3.6-.41,7.4-1.5,10.92-1,3.33-3.19,6-4.84,9-2.17,3.92-3.32,8.54-.71,12.45,1.61,2.43,4.84,4.65,5.06,7.94.25,3.84-2.64,7.9-4.07,11.25-.06.17.17.31.25.15,2-3.84,5.73-9,3.76-13.53-.9-2.07-2.51-3.55-3.85-5.25-2.59-3.3-2.57-7.15-.82-11,2.37-5.26,5.88-8.86,6.5-14.94.36-3.47.29-7,1.64-10.26a17.34,17.34,0,0,1,5.95-7.49C126,112.18,125.87,112,125.76,112Z" style="fill:#263238"></path><path d="M162.41,163.93c-1.69-1.85-3.66-3.13-3.24-6.26.3-2.17,1.55-4.14,2.34-6.13,2-4.95,2.71-11-.34-15.53-1.71-2.55-4.18-2.95-6.42-4.71-2.72-2.14-4.06-5.74-5.25-9.07-1.79-5-4-10.64-9.43-11.23a0,0,0,0,0,0,.08c7,1.19,8,9.83,10.66,15.6a13.67,13.67,0,0,0,3.72,5.09c2.59,2,5.51,2.49,7.13,5.92a15.63,15.63,0,0,1,.63,10.42c-.73,3-2.45,5.66-3.14,8.66a6.13,6.13,0,0,0,.71,5.07c.82,1.16,2.06,1.85,2.93,3a9.91,9.91,0,0,1,1.93,5.27c0,.2.29.14.27-.06A9.87,9.87,0,0,0,162.41,163.93Z" style="fill:#263238"></path><path d="M138.65,162.73C154.07,177.58,172.26,193,181.06,192c6.85-.79,31.79-13.87,39-27.86,1.59-3.09-22.84-12.62-24.4-10.74-4.58,5.57-18.84,13.54-19.95,13.08-1.46-.62-18.94-9.1-30.79-14.25C129,145.25,130.67,155.05,138.65,162.73Z" style="fill:#eb9481"></path><path d="M224.39,160.68C221.8,165.41,212.72,173,209.83,174s-16.34-14-15.77-17.1,10.51-18.34,15.59-20.46S227.07,155.78,224.39,160.68Z" style="fill:#eb9481"></path><path d="M195.3,154a44.94,44.94,0,0,0-.35-13c-1.07-5.08-3.24-12.51-.53-13.19,5.57-1.39,11,17.13,11,17.13s1.06,8.56-4.33,10.43A5.67,5.67,0,0,1,195.3,154Z" style="fill:#eb9481"></path><path d="M202.5,141.27c1.49,2.44,3.41,1.08,3.41,1.08s-4.12,3.7-2.86,6.6,5.13.49,5.42.33c-.22.2-3.92,3.7-2.35,6.48s5.16-.09,5.38-.28c-.14.25-2,3.6-.34,5.44,2.88,3.16,7.9-5.28,11.28-6,0,0,1.86,5.6,1.95,5.75,0,0,4.94-7.93,3.72-12.44a3,3,0,0,0-3-2.25s1.88-2.38.71-4.61c-.6-1.14-3-1.19-3-1.19a3.72,3.72,0,0,0,.25-3.88C222.21,134.78,220,135,220,135s9.12-8.38,7.2-11c-3.31-4.56-21.81,14.46-24.27,14.07C201.7,137.82,201.84,140.21,202.5,141.27Z" style="fill:#eb9481"></path><path d="M219.63,134.94a0,0,0,0,0,0-.08,26.56,26.56,0,0,0-13.89,7.57c-.11.12-.24.91-.1.78C209.09,139.88,214.48,136.87,219.63,134.94Z" style="fill:#263238"></path><path d="M222.93,140.13c.06,0,0-.11,0-.1a25,25,0,0,0-14.64,9.19c-.12.17-.06.44.1.26C211,146.4,218.28,141.85,222.93,140.13Z" style="fill:#263238"></path><path d="M211.37,155.91c3.59-4.58,8.28-7.54,13.54-9.89.07,0,0-.13,0-.12-2.89.45-6.08,2.3-8.45,3.95a15.32,15.32,0,0,0-5.2,5.93C211.17,155.88,211.3,156,211.37,155.91Z" style="fill:#263238"></path><path d="M205.82,142.34c-.14.15.49.2.36.35-1.45,1.71-3.89,4.88-2.77,6.37.9,1.19,3.13.81,3.92.33l2-1.22L207.88,150a9.54,9.54,0,0,0-1.54,2.7,3.41,3.41,0,0,0,0,2.8,2,2,0,0,0,2.22,1.07,5.87,5.87,0,0,0,2.59-1.44l2.08-1.83-1.35,2.4a9,9,0,0,0-.87,2.13,3.63,3.63,0,0,0,0,2.14,1.76,1.76,0,0,0,1.44,1.18,3.87,3.87,0,0,0,2.08-.65,31.7,31.7,0,0,0,3.84-2.9c.62-.52,1.25-1,1.9-1.53a5.68,5.68,0,0,1,2.15-1.15,6.37,6.37,0,0,0-2,1.32c-.6.53-1.19,1.1-1.77,1.66a26.16,26.16,0,0,1-3.76,3.17,4.49,4.49,0,0,1-2.48.86,2.51,2.51,0,0,1-2.19-1.65,4.56,4.56,0,0,1-.06-2.66,10.39,10.39,0,0,1,.93-2.39l.73.57a6.8,6.8,0,0,1-3.06,1.73,2.87,2.87,0,0,1-1.9-.23,3.17,3.17,0,0,1-1.33-1.36,4.29,4.29,0,0,1,0-3.54,10.48,10.48,0,0,1,1.74-2.94l.55.62c-1,.58-3.48,1.28-5.11-.4C200.89,147.2,205,143,205.82,142.34Z" style="fill:#263238"></path><path d="M193.11,155l20.24,23.27S189,193.54,179.49,192.83,147.8,174.2,137,161.49c-11.05-13-.85-14,7.53-9.85s30.67,14.07,31.29,14S193.11,155,193.11,155Z" style="fill:#FFC727"></path><path d="M141.24,150.32a10.55,10.55,0,0,0,.11,1.38,10.05,10.05,0,0,0,.57,2.3,10.36,10.36,0,0,0-.07-2.37,9.49,9.49,0,0,0-.24-1.18Zm35.29,39.14a10.32,10.32,0,0,0,.57,2.3,11.35,11.35,0,0,0-.65-4.67A10.39,10.39,0,0,0,176.53,189.46Zm28.07-11.28a10.24,10.24,0,0,0,.57,2.29,10.27,10.27,0,0,0-.08-2.36,9.55,9.55,0,0,0-.56-2.3A10.43,10.43,0,0,0,204.6,178.18ZM185,163.53a10.32,10.32,0,0,0,.57,2.3,11.11,11.11,0,0,0-.64-4.66A10.33,10.33,0,0,0,185,163.53Zm-29.64,11.23a10.32,10.32,0,0,0,.57,2.3,10.35,10.35,0,0,0-.08-2.37,10.11,10.11,0,0,0-.57-2.29A10.33,10.33,0,0,0,155.32,174.76Zm34.12,11.43a10.43,10.43,0,0,0,2.37-.08,10.32,10.32,0,0,0,2.28-.58,11,11,0,0,0-4.65.66Zm12.71-19.7a6.75,6.75,0,0,0,1,0l-.25-.28A7.24,7.24,0,0,0,202.15,166.49Zm-30.39,3.62a11.26,11.26,0,0,0,4.65-.65,9.79,9.79,0,0,0-2.36.07A10.4,10.4,0,0,0,171.76,170.11Zm-36.65-13.38a10.18,10.18,0,0,0,1.72,1.63,10.7,10.7,0,0,0,2,1.22,10.69,10.69,0,0,0-1.74-1.63A10.54,10.54,0,0,0,135.11,156.73Zm57.11,0a9.07,9.07,0,0,0,1.72,1.62,10.38,10.38,0,0,0,2,1.23,9.4,9.4,0,0,0-1.72-1.62A10.09,10.09,0,0,0,192.22,156.73ZM181.1,176.27a9.73,9.73,0,0,0,1.73,1.61,9.61,9.61,0,0,0,2,1.22,11,11,0,0,0-1.73-1.62A10.5,10.5,0,0,0,181.1,176.27Zm-20.74-11.75a11.48,11.48,0,0,0,3.75,2.83,9.75,9.75,0,0,0-1.73-1.61A9.61,9.61,0,0,0,160.36,164.52ZM191.7,175a9.7,9.7,0,0,0,1.61-1.72,9.43,9.43,0,0,0,1.22-2,10.11,10.11,0,0,0-1.61,1.73A10.85,10.85,0,0,0,191.7,175Zm-25.52,7.32a10.05,10.05,0,0,0,1.61-1.72,9.76,9.76,0,0,0,1.22-2,11.65,11.65,0,0,0-2.83,3.76Zm-17.82-19.65A10.05,10.05,0,0,0,150,161a9.76,9.76,0,0,0,1.22-2,11.65,11.65,0,0,0-2.83,3.76Z" style="fill:#fff"></path><path d="M197,169.54c-1.35-1.61-2.7-3.22-4.07-4.82s-2.68-3.25-4.15-4.75c-.07-.06-.2,0-.14.1,1.14,1.67,2.47,3.24,3.73,4.83s2.68,3.36,4,5c2.67,3.31,5.46,6.5,8.3,9.66a.08.08,0,0,0,.12-.1C202.3,176.11,199.72,172.79,197,169.54Z" style="fill:#263238"></path><path d="M137,161.49c10.81,12.7,33,30.63,42.5,31.33,2.21.17,5.24-.53,8.56-1.72l-52.28-41.58C131.53,149.83,130,153.23,137,161.49Z" style="opacity:0.1"></path><path d="M159.6,192l3.49,15.36-11.91.69-3.71-6L143,208.46c0,.61-40.06-.51-40.06-.51s10-37.73,22.66-52.81c6.33-7.54,14.18-7.36,19.4-2.53,1.32,1.22,14.93,17.6,16.86,25.13C163.6,184.38,159.6,192,159.6,192Z" style="fill:#FFC727"></path><path d="M103,208s40.09,1.11,40.06.5l4.42-6.47,3.72,6,11.91-.69L159.6,192s4-7.58,2.31-14.22C160,170.2,146.36,153.83,145,152.61a13.09,13.09,0,0,0-3.47-2.34,2.07,2.07,0,0,0-.34-.15c-4.81-2.05-10.66-.86-15.6,5C113,170.21,103,208,103,208Z" style="fill:#FFC727"></path><path d="M143.79,183.52a9.7,9.7,0,0,0,1.61-1.72,9.43,9.43,0,0,0,1.22-2A10.59,10.59,0,0,0,145,181.5,11.37,11.37,0,0,0,143.79,183.52Zm4.57-20.85a10.15,10.15,0,0,0,1.62-1.73,13.69,13.69,0,0,0,.82-1.22,2.26,2.26,0,0,1-.2-.26,12.69,12.69,0,0,0-1,1.18A10.62,10.62,0,0,0,148.36,162.67ZM124,205.07a10.11,10.11,0,0,0,1.61-1.73,9.43,9.43,0,0,0,1.22-2,11.07,11.07,0,0,0-1.62,1.74A10.5,10.5,0,0,0,124,205.07Zm-6.74-27.38a10.53,10.53,0,0,0,1.62-1.72,9.89,9.89,0,0,0,1.21-2,10.56,10.56,0,0,0-1.61,1.74A10.05,10.05,0,0,0,117.23,177.69Zm-6.7,7.53a5.16,5.16,0,0,0,.67.32,7,7,0,0,0-.59-.63C110.58,185,110.56,185.12,110.53,185.22Zm38.7,10.51a11.32,11.32,0,0,0,3.75,2.84,11.06,11.06,0,0,0-3.75-2.84Zm-19.75-14.79a9.7,9.7,0,0,0,1.72,1.61,10.34,10.34,0,0,0,2,1.22,9.7,9.7,0,0,0-1.72-1.61A10.05,10.05,0,0,0,129.48,180.94Zm5.64-24.21a9.81,9.81,0,0,0,1.72,1.63,10.32,10.32,0,0,0,2,1.22,10.24,10.24,0,0,0-1.73-1.63A10.85,10.85,0,0,0,135.12,156.73Zm21.62,49a9.87,9.87,0,0,0,2.37-.07,10.16,10.16,0,0,0,2.28-.57,11,11,0,0,0-4.65.64ZM135.37,208a10.35,10.35,0,0,0,2.37-.08,9.58,9.58,0,0,0,2.29-.56,9.79,9.79,0,0,0-2.36.07A10.6,10.6,0,0,0,135.37,208ZM156,187.77a10.33,10.33,0,0,0,2.36-.08,10,10,0,0,0,2.3-.56,10.29,10.29,0,0,0-2.36.07A10.19,10.19,0,0,0,156,187.77Zm-36.16,3.68a11.26,11.26,0,0,0,4.65-.65,11.26,11.26,0,0,0-4.65.65Zm18.93-21.71a9.86,9.86,0,0,0,2.37-.07,10.18,10.18,0,0,0,2.28-.58,10.33,10.33,0,0,0-2.36.08A9.85,9.85,0,0,0,138.8,169.74ZM111.69,198a10.32,10.32,0,0,0,.57,2.3,9.84,9.84,0,0,0-.08-2.37,9.15,9.15,0,0,0-.57-2.29A9.79,9.79,0,0,0,111.69,198Zm43.63-23.22a10.32,10.32,0,0,0,.57,2.3,10.35,10.35,0,0,0-.08-2.37,9.58,9.58,0,0,0-.56-2.29A10.33,10.33,0,0,0,155.32,174.76ZM138.23,194a9.82,9.82,0,0,0,.56,2.29,11,11,0,0,0-.64-4.65A10.33,10.33,0,0,0,138.23,194Zm3-43.88a12,12,0,0,0,.12,1.58,10.63,10.63,0,0,0,.58,2.3,10.35,10.35,0,0,0-.08-2.37,8.87,8.87,0,0,0-.28-1.36A2.07,2.07,0,0,0,141.23,150.12Zm-13,18.42a9.58,9.58,0,0,0,.56,2.29,9.79,9.79,0,0,0-.07-2.36,10.49,10.49,0,0,0-.58-2.3A9.81,9.81,0,0,0,128.18,168.54Z" style="fill:#fff"></path><path d="M139.43,191.13a61.44,61.44,0,0,1,9.2-.15c1.52.1,3,.28,4.54.49.76.11,1.51.19,2.26.26a9.48,9.48,0,0,0,2.38,0,.06.06,0,0,1,0,.11,18.66,18.66,0,0,1-2.22.36,16,16,0,0,1-2.19,0c-1.54-.09-3.08-.26-4.63-.37-3.11-.22-6.22-.45-9.35-.44C139.3,191.39,139.29,191.14,139.43,191.13Z" style="fill:#263238"></path><path d="M132.48,195.15a66.72,66.72,0,0,1,7.4-1.72c1.25-.21,2.5-.35,3.76-.45.61,0,1.21-.09,1.82-.12s1.33,0,2,0c.07,0,.09.1,0,.11-.62.06-1.24.22-1.86.32l-1.87.29-3.74.59c-2.51.37-5,.76-7.48,1.21C132.38,195.38,132.36,195.18,132.48,195.15Z" style="fill:#263238"></path><path d="M143.3,158.67q.66,5.43,1.23,10.87l1.1,10.88,1,10.89c.32,3.63.6,7.27.85,10.9q-.66-5.43-1.23-10.86l-1.1-10.89-1-10.89C143.84,165.94,143.56,162.3,143.3,158.67Z" style="fill:#263238"></path><path d="M147.38,167.29a.73.73,0,1,1-1.45.15.74.74,0,0,1,.65-.81A.73.73,0,0,1,147.38,167.29Z" style="fill:#263238"></path><path d="M147.87,174.8a.73.73,0,1,1-.8-.65A.73.73,0,0,1,147.87,174.8Z" style="fill:#263238"></path><path d="M148.36,182.31a.73.73,0,0,1-.65.81.73.73,0,1,1-.15-1.46A.73.73,0,0,1,148.36,182.31Z" style="fill:#263238"></path><path d="M148.85,189.83a.73.73,0,0,1-.65.8.74.74,0,0,1-.81-.65.73.73,0,0,1,1.46-.15Z" style="fill:#263238"></path><path d="M149.34,197.34a.74.74,0,0,1-.65.81.73.73,0,1,1,.65-.81Z" style="fill:#263238"></path><path d="M133.52,158.72c-2.41,9.75-18.78,44.22-19.93,46.23,0,0-21.48,16.89-24.35,3.58s22.76-39,34.45-51.91C130.74,148.86,135.19,152,133.52,158.72Z" style="fill:#FFC727"></path><path d="M128.18,168.54a9.13,9.13,0,0,0,.56,2.29,10.33,10.33,0,0,0-.07-2.36,10.49,10.49,0,0,0-.58-2.3A9.33,9.33,0,0,0,128.18,168.54ZM109.65,172a8.93,8.93,0,0,0,.5,1.94,10.36,10.36,0,0,0-.07-2.37s0,0,0,0ZM95.56,210a10.64,10.64,0,0,0,.56,2.29,9.76,9.76,0,0,0-.07-2.36,10.32,10.32,0,0,0-.57-2.3A10.39,10.39,0,0,0,95.56,210Zm6.64-6.94a9.7,9.7,0,0,0,1.72,1.61,10.05,10.05,0,0,0,2,1.22,9.7,9.7,0,0,0-1.72-1.61A10.34,10.34,0,0,0,102.2,203.09Zm21.92-44.47a10.17,10.17,0,0,0,1.62-1.73,9.43,9.43,0,0,0,1.22-2,10.56,10.56,0,0,0-1.62,1.73A10.93,10.93,0,0,0,124.12,158.62ZM111.69,198a10.32,10.32,0,0,0,.57,2.3,10.37,10.37,0,0,0-.08-2.37,9.62,9.62,0,0,0-.58-2.29A9.79,9.79,0,0,0,111.69,198Zm4.42-33.12a11.11,11.11,0,0,0,1.16-.1,10.94,10.94,0,0,0,2.29-.56,9.79,9.79,0,0,0-2.36.07c-.22,0-.43.06-.65.11h0Zm3.76,26.59H120l0-.08A.73.73,0,0,0,119.87,191.45Zm-24.43,2.19a10.33,10.33,0,0,0,2.36-.08,10,10,0,0,0,2.3-.56,9.76,9.76,0,0,0-2.36.07A10.32,10.32,0,0,0,95.44,193.64Zm21.79-15.95a10.05,10.05,0,0,0,1.61-1.72,9.93,9.93,0,0,0,1.22-2,10.56,10.56,0,0,0-1.61,1.74A10.05,10.05,0,0,0,117.23,177.69ZM89.2,205a9.7,9.7,0,0,0,1.61-1.72,9.43,9.43,0,0,0,1.22-2A10.11,10.11,0,0,0,90.42,203,10.54,10.54,0,0,0,89.2,205Zm18.26-22.26a10.14,10.14,0,0,0,1.72,1.62,10,10,0,0,0,2,1.21,9.7,9.7,0,0,0-1.72-1.61A10.34,10.34,0,0,0,107.46,182.71Z" style="fill:#fff"></path><path d="M115.37,201.08c1.12-2.68,2.3-5.33,3.48-8l3.61-7.91,7.32-15.78c-.92,2.75-2,5.44-3.13,8.12s-2.32,5.32-3.51,8-2.47,5.25-3.77,7.85S116.77,198.54,115.37,201.08Z" style="fill:#263238"></path><path d="M129.48,172.68a10.1,10.1,0,0,1-1,1.72,4.91,4.91,0,0,1-1.39,1.41,7.6,7.6,0,0,0,.62-.76l.57-.8C128.68,173.73,129.05,173.19,129.48,172.68Z" style="fill:#263238"></path><polygon points="141.17 223.18 175.41 227.78 188.4 180.2 154.16 175.59 141.17 223.18" style="fill:#263238"></polygon><polygon points="142.85 223.4 177.09 228.01 190.08 180.43 155.84 175.82 142.85 223.4" style="fill:#455a64"></polygon><path d="M171.25,200.4a3.74,3.74,0,0,1-4.07,2.84,3,3,0,0,1-2.59-3.74,3.74,3.74,0,0,1,4.07-2.84A3,3,0,0,1,171.25,200.4Z" style="fill:#fff"></path><path d="M135.37,201.19c3.22.21,5.15,24.15.41,24.31-22.29.75-40.75-9.65-44-12.59-4.3-3.86-2.87-10.93,0-13.37C96,196,131.81,201,135.37,201.19Z" style="fill:#eb9481"></path><path d="M132.77,201.38s9.34-2.15,15.48-3.22c3.42-.6,9.38-1.1,12.1-.39,4.06,1.06,20.37,8.11,18.75,12.1-1.47,3.61-14.72-4.22-14.72-4.22s14.07,6.72,11.5,10.74-16.36-6.81-16.36-6.81,14.3,7.23,11,11c-2.5,2.82-15.54-6.29-15.54-6.29s12.25,6.3,9.8,9.31c-2.7,3.33-15.26-4.33-15.26-4.33-7.5,6.61-13.78,6.69-18.25,6.21C130.18,225.33,132.77,201.38,132.77,201.38Z" style="fill:#eb9481"></path><path d="M159.44,203.33c1.7.68,3.42,1.36,5.05,2.2a55,55,0,0,1,4.79,2.71,32.48,32.48,0,0,1,5.66,4.39A67.62,67.62,0,0,0,164.25,206c-1.63-.83-3.22-1.75-4.84-2.58C159.36,203.37,159.4,203.31,159.44,203.33Z" style="fill:#263238"></path><path d="M156.29,208.88c2.11,1,4.24,2,6.3,3.08s4.87,2.77,6.84,4c.15.1.08.36-.08.27-2-1.17-5-2.73-7-3.88s-4-2.37-6.09-3.44C156.23,208.91,156.26,208.87,156.29,208.88Z" style="fill:#263238"></path><path d="M152.52,213.29a52.57,52.57,0,0,1,9.42,5.16c.15.1,0,.15-.15.06-3.1-1.77-5.52-3.19-9.32-5.11C152.41,213.37,152.45,213.26,152.52,213.29Z" style="fill:#263238"></path><path d="M128.2,199.59,136.8,229c-23.18-2.67-41.77-13.13-45.06-16.07-4.3-3.86-2.87-10.93,0-13.37C96,196,125.29,198.29,128.2,199.59Z" style="fill:#FFC727"></path><path d="M122.21,215.38a9.7,9.7,0,0,0,1.61-1.72,9.43,9.43,0,0,0,1.22-2,10.11,10.11,0,0,0-1.61,1.73A10.54,10.54,0,0,0,122.21,215.38Zm8.82,4.94a10.29,10.29,0,0,0,2.36-.07l.77-.13-.13-.44-.7.07A10.6,10.6,0,0,0,131,220.32ZM93.69,204a9.79,9.79,0,0,0,2.36-.07,10.6,10.6,0,0,0,2.3-.57,10.29,10.29,0,0,0-2.36.08A9.78,9.78,0,0,0,93.69,204Zm24.43-2.19a11,11,0,0,0,4.65-.64,10.39,10.39,0,0,0-2.37.08A9.62,9.62,0,0,0,118.12,201.76Zm-8.18,6.53a9.78,9.78,0,0,0,.56,2.3,10.31,10.31,0,0,0-.07-2.36,9.83,9.83,0,0,0-.58-2.3A9.79,9.79,0,0,0,109.94,208.29Zm-9.51,5.11a9.73,9.73,0,0,0,1.72,1.62,10.34,10.34,0,0,0,2,1.22,9.75,9.75,0,0,0-1.72-1.62A10.54,10.54,0,0,0,100.43,213.4ZM111.35,221a10.83,10.83,0,0,0,4.65-.65,10.33,10.33,0,0,0-2.36.08A9.85,9.85,0,0,0,111.35,221Z" style="fill:#fff"></path><path d="M125.88,212.24c-.6-2-1.22-4-1.84-6s-1.18-4-2-6c0-.09-.18-.07-.16,0,.39,2,1,4,1.52,5.91s1.14,4.15,1.72,6.21c1.15,4.1,2.45,8.13,3.83,12.16,0,.1.16.05.14,0C128.15,220.36,127.09,216.29,125.88,212.24Z" style="fill:#263238"></path><path d="M103,197.55a120.68,120.68,0,0,1,24.42,1.72c.22,0,.41.44.29.44-2.23-.09-12.46-1.76-24.64-1.86C103,197.85,102.93,197.55,103,197.55Z" style="fill:#263238"></path><path d="M134.27,152.35c.32,1,5.62,6.91,10.1,6.28,1.46-.21.67-8.22.67-8.22l.08-.6,1.08-8.47L135.87,136l-1.48-.69s-.14,2.33-.29,5.24c0,.14,0,.27,0,.42s0,.32,0,.47c0,.44-.06.88-.07,1.32s0,.67,0,1,0,.7,0,1.06A54.47,54.47,0,0,0,134.27,152.35Z" style="fill:#eb9481"></path><path d="M134.1,140.55a17.13,17.13,0,0,0,11,9.26l1.08-8.47L135.87,136l-1.48-.69S134.25,137.64,134.1,140.55Z" style="fill:#263238"></path><path d="M154.09,123.68c6.4,13.54-1,18.9-3.91,20.27-2.65,1.25-11.84,5.17-19.6-7.64s-3.49-20.06,2.43-23.24S147.7,110.14,154.09,123.68Z" style="fill:#eb9481"></path><path d="M151.44,123.5a9.36,9.36,0,0,1-1,.16,1.73,1.73,0,0,1-1.08,0,.53.53,0,0,1-.23-.61,1.32,1.32,0,0,1,1.1-.76,1.89,1.89,0,0,1,1.38.2A.57.57,0,0,1,151.44,123.5Z" style="fill:#263238"></path><path d="M142,126.79a9.85,9.85,0,0,0,.86-.57c.33-.22.62-.36.78-.75a.54.54,0,0,0-.24-.6,1.31,1.31,0,0,0-1.33.18,1.94,1.94,0,0,0-.88,1.09A.57.57,0,0,0,142,126.79Z" style="fill:#263238"></path><path d="M145.08,128.67s-.06.07,0,.11c.42.93.75,2.07,0,2.73,0,0,0,.07,0,.05C146.08,131,145.63,129.48,145.08,128.67Z" style="fill:#263238"></path><path d="M143.83,128c-1.56.51-.42,3.6,1,3.12S145.14,127.6,143.83,128Z" style="fill:#263238"></path><path d="M143.28,128.43c-.2.27-.35.68-.66.83s-.77,0-1.13-.26c0,0-.05,0,0,.05.21.6.66,1.12,1.33,1s.83-.81.76-1.46C143.52,128.44,143.37,128.31,143.28,128.43Z" style="fill:#263238"></path><path d="M150.22,126.24s.09,0,.1.06c.32,1,.85,2,1.83,2,0,0,0,0,0,.06C151.05,128.62,150.37,127.21,150.22,126.24Z" style="fill:#263238"></path><path d="M150.71,124.93c1.5-.68,2.74,2.37,1.36,3S149.46,125.5,150.71,124.93Z" style="fill:#263238"></path><path d="M151.43,124.87c.31.07.67.26,1,.16s.46-.54.54-.94c0,0,0,0,.06,0,.25.58.31,1.26-.21,1.6s-1,0-1.42-.56C151.29,125,151.31,124.85,151.43,124.87Z" style="fill:#263238"></path><path d="M148.05,136.75a1.47,1.47,0,0,0,1,.31,2.63,2.63,0,0,0,1-.58,0,0,0,0,1,.06,0,1.37,1.37,0,0,1-1.06.92,1.06,1.06,0,0,1-1-.61C147.94,136.78,148,136.73,148.05,136.75Z" style="fill:#263238"></path><path d="M150.7,131.78a21.85,21.85,0,0,1,1,2c0,.06-.12.15-.35.26h0a3.41,3.41,0,0,1-3.55,0,.07.07,0,0,1,.06-.13,5.19,5.19,0,0,0,3.23-.29c0-.2-1.35-2.26-1.25-2.31a6.44,6.44,0,0,1,1.66-.24c-1.47-2.85-3.38-5.44-4.8-8.3a.1.1,0,0,1,.16-.11,51.84,51.84,0,0,1,5.55,8.72C152.59,131.77,151,131.79,150.7,131.78Z" style="fill:#263238"></path><path d="M151.19,133.83a4.12,4.12,0,0,1-1,1.86,1.91,1.91,0,0,1-1,.53c-.83.14-1.16-.53-1.29-1.18a4.49,4.49,0,0,1-.08-1A5.35,5.35,0,0,0,151.19,133.83Z" style="fill:#263238"></path><path d="M150.22,135.69a1.91,1.91,0,0,1-1,.53c-.83.14-1.16-.53-1.29-1.18A1.92,1.92,0,0,1,150.22,135.69Z" style="fill:#ff9abb"></path><path d="M130.87,137.08a6.21,6.21,0,0,0,1.86-5.83,16.19,16.19,0,0,0,4.77-7c0,.32-.06,2.67-.12,3.87,8.61-4.46,9.32-12.29,9.32-12.29a16.38,16.38,0,0,1,5.72,4.58s-1.62-5.62-5.63-8.49a9.41,9.41,0,0,0-9.44-1.21,13.46,13.46,0,0,0-11.42,7.68C122,126.66,130.87,137.08,130.87,137.08Z" style="fill:#263238"></path><path d="M143.86,124.54a17.54,17.54,0,0,1-4.16,3.13s0,0,0,0a15,15,0,0,0,5.47-6.07,14.25,14.25,0,0,0,1.14-3.35,9.75,9.75,0,0,0,.16-3.84.08.08,0,0,1,.15,0,11.65,11.65,0,0,1,.36,3.81,10.51,10.51,0,0,1-1.12,3.63,11.66,11.66,0,0,1-2,2.73" style="fill:#263238"></path><path d="M133.22,136.34s-4.68-3.25-6.27-1.42,3.08,7.33,5.73,7.33a2.52,2.52,0,0,0,2.71-2.45Z" style="fill:#eb9481"></path><path d="M128.33,136.46a0,0,0,0,0,0,.07,6.41,6.41,0,0,1,4.49,2.6,1.4,1.4,0,0,0-2.09.37.05.05,0,0,0,.07.07,1.57,1.57,0,0,1,1.8-.08,7.57,7.57,0,0,1,1.25,1c.13.12.37-.06.25-.2l0,0C133.35,138.16,130.65,135.84,128.33,136.46Z" style="fill:#263238"></path><path d="M145.24,150.16l-2.62,6.91-8.68-8.5-2.36,2.83s8.6,13.6,8.64,13l2.7-6,4.16,4-.53-10.31Z" style="fill:#ebebeb"></path><path d="M147.1,157.34c-.14-1.7-.24-3.42-.46-5.11,0-.06-.11-.08-.12,0-.31,1.65.28,8.14.31,9.7h0c-.18-.18-3.85-3.55-3.89-3.49-.59,1-2.58,5.29-2.71,5.68-1.36-2.16-7.12-10.67-8.72-12.71-.05-.06-.14,0-.1.06,1.21,2.29,8.65,13.53,8.76,13.5a67.55,67.55,0,0,0,2.83-6.31,44.49,44.49,0,0,0,4.35,4.3A52.33,52.33,0,0,0,147.1,157.34Z" style="fill:#263238"></path></g></svg>