<svg width="82" height="117" viewBox="0 0 82 117" fill="none" xmlns="http://www.w3.org/2000/svg">
<g clip-path="url(#clip0_14_807)">
<path fill-rule="evenodd" clip-rule="evenodd" d="M61.4241 7.75H20.5761C18.5061 7.75 17.4711 9.39575 17.6229 10.795C18.4095 17.9942 19.8861 26.2592 22.3563 31.5445C25.6476 38.5987 33.5895 46.523 39.5856 51.7647C39.9777 52.1238 40.4801 52.3216 41.0001 52.3216C41.5202 52.3216 42.0226 52.1238 42.4146 51.7647C48.4176 46.523 56.3526 38.5987 59.6439 31.5372C62.1141 26.2592 63.5907 17.9942 64.3842 10.795C64.536 9.39575 63.4941 7.75 61.431 7.75H61.4241ZM20.5761 0.499998C14.7525 0.499998 10.095 5.546 10.7643 11.6215C11.5647 18.9077 13.131 28.253 16.1601 34.7345C20.169 43.3185 29.1873 52.1055 35.1765 57.34C38.5851 60.3125 43.4151 60.3125 46.8237 57.34C52.8129 52.1055 61.8312 43.3185 65.8401 34.7345C68.8692 28.253 70.4355 18.9077 71.2359 11.6215C71.9052 5.546 67.2477 0.499998 61.4241 0.499998H20.5623H20.5761Z" fill="#F74B35"/>
<path fill-rule="evenodd" clip-rule="evenodd" d="M20.5761 109.25H61.4241C63.4941 109.25 64.5291 107.604 64.3773 106.205C63.5907 99.0057 62.1141 90.7407 59.6439 85.4627C56.3526 78.4012 48.4107 70.477 42.4146 65.2352C42.0226 64.8762 41.5201 64.6784 41.0001 64.6784C40.4801 64.6784 39.9776 64.8762 39.5856 65.2352C33.5826 70.477 25.6476 78.4012 22.3563 85.4627C19.8861 90.7407 18.4095 99.0057 17.616 106.212C17.4642 107.604 18.513 109.25 20.5761 109.25ZM61.4241 116.5C67.2477 116.5 71.9052 111.454 71.2359 105.378C70.4355 98.085 68.8692 88.747 65.8401 82.2655C61.8312 73.6815 52.8129 64.8945 46.8237 59.66C45.1932 58.2187 43.1309 57.4284 41.0001 57.4284C38.8693 57.4284 36.807 58.2187 35.1765 59.66C29.1873 64.8945 20.169 73.6815 16.1601 82.2655C13.131 88.747 11.5647 98.085 10.7643 105.378C10.095 111.454 14.7525 116.5 20.5761 116.5H61.431H61.4241ZM-0.399902 4.125C-0.399902 3.16359 -0.0364206 2.24156 0.61058 1.56174C1.25758 0.881919 2.1351 0.5 3.0501 0.5H78.9501C79.8651 0.5 80.7426 0.881919 81.3896 1.56174C82.0366 2.24156 82.4001 3.16359 82.4001 4.125C82.4001 5.08641 82.0366 6.00844 81.3896 6.68826C80.7426 7.36808 79.8651 7.75 78.9501 7.75H3.0501C2.1351 7.75 1.25758 7.36808 0.61058 6.68826C-0.0364206 6.00844 -0.399902 5.08641 -0.399902 4.125Z" fill="#F74B35"/>
<path fill-rule="evenodd" clip-rule="evenodd" d="M-0.399902 112.875C-0.399902 111.914 -0.0364206 110.992 0.61058 110.312C1.25758 109.632 2.1351 109.25 3.0501 109.25H78.9501C79.8651 109.25 80.7426 109.632 81.3896 110.312C82.0366 110.992 82.4001 111.914 82.4001 112.875C82.4001 113.836 82.0366 114.758 81.3896 115.438C80.7426 116.118 79.8651 116.5 78.9501 116.5H3.0501C2.1351 116.5 1.25758 116.118 0.61058 115.438C-0.0364206 114.758 -0.399902 113.836 -0.399902 112.875Z" fill="#F74B35"/>
</g>
<defs>
<clipPath id="clip0_14_807">
<rect width="82" height="117" fill="white"/>
</clipPath>
</defs>
</svg>
