<svg width="497" height="523" viewBox="0 0 497 523" fill="none" xmlns="http://www.w3.org/2000/svg">
<g filter="url(#filter0_d_4_2)">
<mask id="mask0_4_2" style="mask-type:luminance" maskUnits="userSpaceOnUse" x="112" y="0" width="274" height="319">
<path d="M112 0H385.024V319H112V0Z" fill="white"/>
</mask>
<g mask="url(#mask0_4_2)">
<path fill-rule="evenodd" clip-rule="evenodd" d="M249.755 117.628L249.226 80.7236H222.776C222.776 80.7236 113.279 150.089 113.316 148.923L112.263 318.914L295.545 318.465C380.169 318.239 400.376 228.294 370.423 184.734L331.369 209.075C349.805 234.202 337.988 270.99 294.531 270.99L160.239 270.878L161.292 175.782L249.755 117.628ZM334.715 100.249C331.369 111.158 320.719 120.825 308.414 129.364C295.81 138.09 281.512 145.65 271.616 152.083L203.094 195.982L203.659 250.98L258.823 216.711C325.949 172.21 388.297 152.648 384.835 79.3313C383.632 53.3395 371.629 28.9625 358.158 16.814C341.039 1.31587 324.859 0 303.334 0H112L112.076 102.768L160.089 76.0217L160.727 46.9827H306.045C335.393 46.9827 341.79 77.0019 334.715 100.249Z" fill="#D8A31D"/>
</g>
</g>
<g filter="url(#filter1_d_4_2)">
<path d="M139.109 399V351.727H158.036C161.514 351.727 164.415 352.243 166.738 353.274C169.062 354.305 170.808 355.736 171.978 357.567C173.147 359.383 173.732 361.476 173.732 363.846C173.732 365.692 173.363 367.316 172.624 368.716C171.886 370.101 170.87 371.24 169.577 372.132C168.3 373.009 166.838 373.632 165.192 374.002V374.463C166.992 374.54 168.677 375.048 170.247 375.987C171.832 376.926 173.117 378.241 174.102 379.934C175.086 381.611 175.579 383.612 175.579 385.935C175.579 388.444 174.956 390.683 173.709 392.652C172.478 394.607 170.655 396.153 168.239 397.292C165.823 398.431 162.845 399 159.306 399H139.109ZM149.103 390.829H157.251C160.037 390.829 162.068 390.298 163.345 389.236C164.622 388.159 165.261 386.728 165.261 384.943C165.261 383.635 164.946 382.481 164.315 381.48C163.684 380.48 162.784 379.695 161.614 379.126C160.46 378.557 159.083 378.272 157.482 378.272H149.103V390.829ZM149.103 371.509H156.513C157.882 371.509 159.098 371.27 160.16 370.793C161.237 370.301 162.083 369.608 162.699 368.716C163.33 367.823 163.645 366.754 163.645 365.507C163.645 363.799 163.037 362.422 161.822 361.376C160.621 360.329 158.913 359.806 156.697 359.806H149.103V371.509ZM227.532 351.727H237.526V382.427C237.526 385.874 236.703 388.89 235.056 391.475C233.425 394.06 231.14 396.076 228.201 397.523C225.262 398.954 221.838 399.669 217.929 399.669C214.005 399.669 210.574 398.954 207.634 397.523C204.695 396.076 202.41 394.06 200.779 391.475C199.148 388.89 198.332 385.874 198.332 382.427V351.727H208.327V381.573C208.327 383.373 208.719 384.974 209.504 386.374C210.304 387.774 211.428 388.875 212.874 389.675C214.321 390.475 216.006 390.875 217.929 390.875C219.868 390.875 221.553 390.475 222.984 389.675C224.431 388.875 225.546 387.774 226.331 386.374C227.131 384.974 227.532 383.373 227.532 381.573V351.727ZM261.999 399V351.727H271.994V372.571H272.617L289.629 351.727H301.609L284.066 372.894L301.816 399H289.86L276.911 379.565L271.994 385.566V399H261.999ZM333.058 351.727V399H323.064V351.727H333.058Z" fill="#042A3F"/>
</g>
<path d="M6.9355 429.98V445.928C6.9355 447.824 7.4275 449.252 8.4115 450.212C9.4195 451.172 10.8115 451.652 12.5875 451.652C14.3875 451.652 15.7795 451.172 16.7635 450.212C17.7715 449.252 18.2755 447.824 18.2755 445.928V429.98H22.3795V445.856C22.3795 447.896 21.9355 449.624 21.0475 451.04C20.1595 452.456 18.9715 453.512 17.4835 454.208C15.9955 454.904 14.3515 455.252 12.5515 455.252C10.7515 455.252 9.1075 454.904 7.6195 454.208C6.1555 453.512 4.9915 452.456 4.1275 451.04C3.2635 449.624 2.8315 447.896 2.8315 445.856V429.98H6.9355ZM60.195 429.98V455H56.091V437.864L48.459 455H45.615L37.947 437.864V455H33.843V429.98H38.271L47.055 449.6L55.803 429.98H60.195ZM86.7931 449.888H76.3171L74.5171 455H70.2331L79.1971 429.944H83.9491L92.9131 455H88.5931L86.7931 449.888ZM85.6411 446.54L81.5731 434.912L77.4691 446.54H85.6411ZM135.898 437.432C135.898 438.704 135.598 439.904 134.998 441.032C134.398 442.16 133.438 443.084 132.118 443.804C130.798 444.5 129.106 444.848 127.042 444.848H122.506V455H118.402V429.98H127.042C128.962 429.98 130.582 430.316 131.902 430.988C133.246 431.636 134.242 432.524 134.89 433.652C135.562 434.78 135.898 436.04 135.898 437.432ZM127.042 441.5C128.602 441.5 129.766 441.152 130.534 440.456C131.302 439.736 131.686 438.728 131.686 437.432C131.686 434.696 130.138 433.328 127.042 433.328H122.506V441.5H127.042ZM161.016 449.888H150.54L148.74 455H144.456L153.42 429.944H158.172L167.136 455H162.816L161.016 449.888ZM159.864 446.54L155.796 434.912L151.692 446.54H159.864ZM159.504 424.616L151.548 428.54V425.516L159.504 421.124V424.616ZM195.262 437.18C194.614 435.932 193.714 434.996 192.562 434.372C191.41 433.724 190.078 433.4 188.566 433.4C186.91 433.4 185.434 433.772 184.138 434.516C182.842 435.26 181.822 436.316 181.078 437.684C180.358 439.052 179.998 440.636 179.998 442.436C179.998 444.236 180.358 445.832 181.078 447.224C181.822 448.592 182.842 449.648 184.138 450.392C185.434 451.136 186.91 451.508 188.566 451.508C190.798 451.508 192.61 450.884 194.002 449.636C195.394 448.388 196.246 446.696 196.558 444.56H187.162V441.284H200.95V444.488C200.686 446.432 199.99 448.22 198.862 449.852C197.758 451.484 196.306 452.792 194.506 453.776C192.73 454.736 190.75 455.216 188.566 455.216C186.214 455.216 184.066 454.676 182.122 453.596C180.178 452.492 178.63 450.968 177.478 449.024C176.35 447.08 175.786 444.884 175.786 442.436C175.786 439.988 176.35 437.792 177.478 435.848C178.63 433.904 180.178 432.392 182.122 431.312C184.09 430.208 186.238 429.656 188.566 429.656C191.23 429.656 193.594 430.316 195.658 431.636C197.746 432.932 199.258 434.78 200.194 437.18H195.262ZM215.222 429.98V455H211.118V429.98H215.222ZM247.286 455H243.182L230.834 436.316V455H226.73V429.944H230.834L243.182 448.592V429.944H247.286V455ZM273.879 449.888H263.403L261.603 455H257.319L266.283 429.944H271.035L279.999 455H275.679L273.879 449.888ZM272.727 446.54L268.659 434.912L264.555 446.54H272.727ZM313.66 429.98C316.324 429.98 318.652 430.496 320.644 431.528C322.66 432.536 324.208 434 325.288 435.92C326.392 437.816 326.944 440.036 326.944 442.58C326.944 445.124 326.392 447.332 325.288 449.204C324.208 451.076 322.66 452.516 320.644 453.524C318.652 454.508 316.324 455 313.66 455H305.488V429.98H313.66ZM313.66 451.652C316.588 451.652 318.832 450.86 320.392 449.276C321.952 447.692 322.732 445.46 322.732 442.58C322.732 439.676 321.952 437.408 320.392 435.776C318.832 434.144 316.588 433.328 313.66 433.328H309.592V451.652H313.66ZM341.236 433.292V440.636H349.876V443.984H341.236V451.652H350.956V455H337.132V429.944H350.956V433.292H341.236ZM376.234 442.436C376.234 439.988 376.798 437.792 377.926 435.848C379.078 433.904 380.626 432.392 382.57 431.312C384.538 430.208 386.686 429.656 389.014 429.656C391.678 429.656 394.042 430.316 396.106 431.636C398.194 432.932 399.706 434.78 400.642 437.18H395.71C395.062 435.86 394.162 434.876 393.01 434.228C391.858 433.58 390.526 433.256 389.014 433.256C387.358 433.256 385.882 433.628 384.586 434.372C383.29 435.116 382.27 436.184 381.526 437.576C380.806 438.968 380.446 440.588 380.446 442.436C380.446 444.284 380.806 445.904 381.526 447.296C382.27 448.688 383.29 449.768 384.586 450.536C385.882 451.28 387.358 451.652 389.014 451.652C390.526 451.652 391.858 451.328 393.01 450.68C394.162 450.032 395.062 449.048 395.71 447.728H400.642C399.706 450.128 398.194 451.976 396.106 453.272C394.042 454.568 391.678 455.216 389.014 455.216C386.662 455.216 384.514 454.676 382.57 453.596C380.626 452.492 379.078 450.968 377.926 449.024C376.798 447.08 376.234 444.884 376.234 442.436ZM426.65 449.888H416.174L414.374 455H410.09L419.054 429.944H423.806L432.77 455H428.45L426.65 449.888ZM425.498 446.54L421.43 434.912L417.326 446.54H425.498ZM450.959 429.98C453.623 429.98 455.951 430.496 457.943 431.528C459.959 432.536 461.507 434 462.587 435.92C463.691 437.816 464.243 440.036 464.243 442.58C464.243 445.124 463.691 447.332 462.587 449.204C461.507 451.076 459.959 452.516 457.943 453.524C455.951 454.508 453.623 455 450.959 455H442.787V429.98H450.959ZM450.959 451.652C453.887 451.652 456.131 450.86 457.691 449.276C459.251 447.692 460.031 445.46 460.031 442.58C460.031 439.676 459.251 437.408 457.691 435.776C456.131 434.144 453.887 433.328 450.959 433.328H446.891V451.652H450.959ZM489.515 449.888H479.039L477.239 455H472.955L481.919 429.944H486.671L495.635 455H491.315L489.515 449.888ZM488.363 446.54L484.295 434.912L480.191 446.54H488.363ZM234.669 483.98L225.273 509H220.521L211.089 483.98H215.481L222.897 504.788L230.349 483.98H234.669ZM248.325 487.292V494.636H256.965V497.984H248.325V505.652H258.045V509H244.221V483.944H258.045V487.292H248.325ZM273.18 505.436H284.808V509H268.32V505.796L279.912 487.544H268.32V483.98H284.808V487.184L273.18 505.436Z" fill="#021018"/>
<path d="M6.9355 429.98H7.9355V428.98H6.9355V429.98ZM8.4115 450.212L7.71312 450.928L7.72184 450.936L8.4115 450.212ZM16.7635 450.212L16.0738 449.488L16.0652 449.496L16.7635 450.212ZM18.2755 429.98V428.98H17.2755V429.98H18.2755ZM22.3795 429.98H23.3795V428.98H22.3795V429.98ZM21.0475 451.04L21.8947 451.571L21.8947 451.571L21.0475 451.04ZM17.4835 454.208L17.0598 453.302L17.4835 454.208ZM7.6195 454.208L7.19013 455.111L7.19581 455.114L7.6195 454.208ZM4.1275 451.04L3.27386 451.561L3.27386 451.561L4.1275 451.04ZM2.8315 429.98V428.98H1.8315V429.98H2.8315ZM5.9355 429.98V445.928H7.9355V429.98H5.9355ZM5.9355 445.928C5.9355 447.989 6.47238 449.717 7.71317 450.928L9.10982 449.496C8.38261 448.787 7.9355 447.659 7.9355 445.928H5.9355ZM7.72184 450.936C8.96309 452.118 10.6285 452.652 12.5875 452.652V450.652C10.9945 450.652 9.8759 450.226 9.10115 449.488L7.72184 450.936ZM12.5875 452.652C14.5648 452.652 16.2387 452.121 17.4618 450.928L16.0652 449.496C15.3203 450.223 14.2102 450.652 12.5875 450.652V452.652ZM17.4532 450.936C18.7229 449.727 19.2755 447.995 19.2755 445.928H17.2755C17.2755 447.653 16.8201 448.777 16.0738 449.488L17.4532 450.936ZM19.2755 445.928V429.98H17.2755V445.928H19.2755ZM18.2755 430.98H22.3795V428.98H18.2755V430.98ZM21.3795 429.98V445.856H23.3795V429.98H21.3795ZM21.3795 445.856C21.3795 447.75 20.9685 449.284 20.2003 450.509L21.8947 451.571C22.9025 449.964 23.3795 448.042 23.3795 445.856H21.3795ZM20.2003 450.509C19.4126 451.765 18.3704 452.689 17.0598 453.302L17.9072 455.114C19.5726 454.335 20.9064 453.147 21.8947 451.571L20.2003 450.509ZM17.0598 453.302C15.7167 453.93 14.2193 454.252 12.5515 454.252V456.252C14.4837 456.252 16.2743 455.878 17.9072 455.114L17.0598 453.302ZM12.5515 454.252C10.8837 454.252 9.38627 453.93 8.04318 453.302L7.19581 455.114C8.82872 455.878 10.6193 456.252 12.5515 456.252V454.252ZM8.04886 453.305C6.76472 452.694 5.74637 451.773 4.98114 450.519L3.27386 451.561C4.23662 453.139 5.54627 454.33 7.19014 455.111L8.04886 453.305ZM4.98114 450.519C4.23266 449.292 3.8315 447.754 3.8315 445.856H1.8315C1.8315 448.038 2.29433 449.956 3.27386 451.561L4.98114 450.519ZM3.8315 445.856V429.98H1.8315V445.856H3.8315ZM2.8315 430.98H6.9355V428.98H2.8315V430.98ZM60.195 429.98H61.195V428.98H60.195V429.98ZM60.195 455V456H61.195V455H60.195ZM56.091 455H55.091V456H56.091V455ZM56.091 437.864H57.091L55.1775 437.457L56.091 437.864ZM48.459 455V456H49.1083L49.3725 455.407L48.459 455ZM45.615 455L44.7022 455.408L44.9669 456H45.615V455ZM37.947 437.864L38.8597 437.456L36.947 437.864H37.947ZM37.947 455V456H38.947V455H37.947ZM33.843 455H32.843V456H33.843V455ZM33.843 429.98V428.98H32.843V429.98H33.843ZM38.271 429.98L39.1837 429.571L38.9189 428.98H38.271V429.98ZM47.055 449.6L46.1423 450.009L47.0568 452.051L47.9683 450.007L47.055 449.6ZM55.803 429.98V428.98H55.1539L54.8896 429.573L55.803 429.98ZM59.195 429.98V455H61.195V429.98H59.195ZM60.195 454H56.091V456H60.195V454ZM57.091 455V437.864H55.091V455H57.091ZM55.1775 437.457L47.5455 454.593L49.3725 455.407L57.0045 438.271L55.1775 437.457ZM48.459 454H45.615V456H48.459V454ZM46.5277 454.592L38.8597 437.456L37.0342 438.272L44.7022 455.408L46.5277 454.592ZM36.947 437.864V455H38.947V437.864H36.947ZM37.947 454H33.843V456H37.947V454ZM34.843 455V429.98H32.843V455H34.843ZM33.843 430.98H38.271V428.98H33.843V430.98ZM37.3583 430.389L46.1423 450.009L47.9677 449.191L39.1837 429.571L37.3583 430.389ZM47.9683 450.007L56.7163 430.387L54.8896 429.573L46.1416 449.193L47.9683 450.007ZM55.803 430.98H60.195V428.98H55.803V430.98ZM86.7931 449.888L87.7363 449.556L87.5011 448.888H86.7931V449.888ZM76.3171 449.888V448.888H75.609L75.3738 449.556L76.3171 449.888ZM74.5171 455V456H75.2251L75.4603 455.332L74.5171 455ZM70.2331 455L69.2915 454.663L68.8132 456H70.2331V455ZM79.1971 429.944V428.944H78.4927L78.2555 429.607L79.1971 429.944ZM83.9491 429.944L84.8906 429.607L84.6534 428.944H83.9491V429.944ZM92.9131 455V456H94.3329L93.8546 454.663L92.9131 455ZM88.5931 455L87.6498 455.332L87.885 456H88.5931V455ZM85.6411 446.54V447.54H87.0503L86.585 446.21L85.6411 446.54ZM81.5731 434.912L82.517 434.582L81.5772 431.896L80.6301 434.579L81.5731 434.912ZM77.4691 446.54L76.5261 446.207L76.0557 447.54H77.4691V446.54ZM86.7931 448.888H76.3171V450.888H86.7931V448.888ZM75.3738 449.556L73.5738 454.668L75.4603 455.332L77.2603 450.22L75.3738 449.556ZM74.5171 454H70.2331V456H74.5171V454ZM71.1746 455.337L80.1386 430.281L78.2555 429.607L69.2915 454.663L71.1746 455.337ZM79.1971 430.944H83.9491V428.944H79.1971V430.944ZM83.0075 430.281L91.9715 455.337L93.8546 454.663L84.8906 429.607L83.0075 430.281ZM92.9131 454H88.5931V456H92.9131V454ZM89.5363 454.668L87.7363 449.556L85.8498 450.22L87.6498 455.332L89.5363 454.668ZM86.585 446.21L82.517 434.582L80.6292 435.242L84.6972 446.87L86.585 446.21ZM80.6301 434.579L76.5261 446.207L78.412 446.873L82.516 435.245L80.6301 434.579ZM77.4691 447.54H85.6411V445.54H77.4691V447.54ZM134.998 441.032L134.115 440.562L134.115 440.562L134.998 441.032ZM132.118 443.804L132.585 444.689L132.597 444.682L132.118 443.804ZM122.506 444.848V443.848H121.506V444.848H122.506ZM122.506 455V456H123.506V455H122.506ZM118.402 455H117.402V456H118.402V455ZM118.402 429.98V428.98H117.402V429.98H118.402ZM131.902 430.988L131.448 431.879L131.458 431.884L131.468 431.889L131.902 430.988ZM134.89 433.652L134.023 434.15L134.027 434.157L134.031 434.164L134.89 433.652ZM130.534 440.456L131.206 441.197L131.212 441.191L131.218 441.186L130.534 440.456ZM122.506 433.328V432.328H121.506V433.328H122.506ZM122.506 441.5H121.506V442.5H122.506V441.5ZM134.898 437.432C134.898 438.539 134.639 439.578 134.115 440.562L135.881 441.502C136.558 440.23 136.898 438.869 136.898 437.432H134.898ZM134.115 440.562C133.622 441.489 132.819 442.283 131.639 442.926L132.597 444.682C134.058 443.885 135.174 442.831 135.881 441.502L134.115 440.562ZM131.652 442.919C130.52 443.516 129.003 443.848 127.042 443.848V445.848C129.21 445.848 131.076 445.484 132.585 444.689L131.652 442.919ZM127.042 443.848H122.506V445.848H127.042V443.848ZM121.506 444.848V455H123.506V444.848H121.506ZM122.506 454H118.402V456H122.506V454ZM119.402 455V429.98H117.402V455H119.402ZM118.402 430.98H127.042V428.98H118.402V430.98ZM127.042 430.98C128.85 430.98 130.304 431.297 131.448 431.879L132.356 430.097C130.86 429.335 129.075 428.98 127.042 428.98V430.98ZM131.468 431.889C132.658 432.463 133.49 433.222 134.023 434.15L135.757 433.154C134.995 431.826 133.834 430.809 132.336 430.087L131.468 431.889ZM134.031 434.164C134.605 435.128 134.898 436.209 134.898 437.432H136.898C136.898 435.871 136.519 434.432 135.749 433.14L134.031 434.164ZM127.042 442.5C128.728 442.5 130.18 442.127 131.206 441.197L129.863 439.715C129.352 440.177 128.476 440.5 127.042 440.5V442.5ZM131.218 441.186C132.233 440.234 132.686 438.936 132.686 437.432H130.686C130.686 438.52 130.372 439.238 129.85 439.726L131.218 441.186ZM132.686 437.432C132.686 435.876 132.24 434.535 131.187 433.605C130.158 432.695 128.716 432.328 127.042 432.328V434.328C128.464 434.328 129.344 434.645 129.863 435.103C130.358 435.541 130.686 436.252 130.686 437.432H132.686ZM127.042 432.328H122.506V434.328H127.042V432.328ZM121.506 433.328V441.5H123.506V433.328H121.506ZM122.506 442.5H127.042V440.5H122.506V442.5ZM161.016 449.888L161.96 449.556L161.724 448.888H161.016V449.888ZM150.54 449.888V448.888H149.832L149.597 449.556L150.54 449.888ZM148.74 455V456H149.448L149.684 455.332L148.74 455ZM144.456 455L143.515 454.663L143.037 456H144.456V455ZM153.42 429.944V428.944H152.716L152.479 429.607L153.42 429.944ZM158.172 429.944L159.114 429.607L158.877 428.944H158.172V429.944ZM167.136 455V456H168.556L168.078 454.663L167.136 455ZM162.816 455L161.873 455.332L162.108 456H162.816V455ZM159.864 446.54V447.54H161.274L160.808 446.21L159.864 446.54ZM155.796 434.912L156.74 434.582L155.801 431.896L154.853 434.579L155.796 434.912ZM151.692 446.54L150.749 446.207L150.279 447.54H151.692V446.54ZM159.504 424.616L159.947 425.513L160.504 425.238V424.616H159.504ZM151.548 428.54H150.548V430.148L151.991 429.437L151.548 428.54ZM151.548 425.516L151.065 424.641L150.548 424.926V425.516H151.548ZM159.504 421.124H160.504V419.43L159.021 420.249L159.504 421.124ZM161.016 448.888H150.54V450.888H161.016V448.888ZM149.597 449.556L147.797 454.668L149.684 455.332L151.484 450.22L149.597 449.556ZM148.74 454H144.456V456H148.74V454ZM145.398 455.337L154.362 430.281L152.479 429.607L143.515 454.663L145.398 455.337ZM153.42 430.944H158.172V428.944H153.42V430.944ZM157.231 430.281L166.195 455.337L168.078 454.663L159.114 429.607L157.231 430.281ZM167.136 454H162.816V456H167.136V454ZM163.76 454.668L161.96 449.556L160.073 450.22L161.873 455.332L163.76 454.668ZM160.808 446.21L156.74 434.582L154.852 435.242L158.92 446.87L160.808 446.21ZM154.853 434.579L150.749 446.207L152.635 446.873L156.739 435.245L154.853 434.579ZM151.692 447.54H159.864V445.54H151.692V447.54ZM159.062 423.719L151.106 427.643L151.991 429.437L159.947 425.513L159.062 423.719ZM152.548 428.54V425.516H150.548V428.54H152.548ZM152.032 426.391L159.988 421.999L159.021 420.249L151.065 424.641L152.032 426.391ZM158.504 421.124V424.616H160.504V421.124H158.504ZM195.262 437.18L194.374 437.641L194.654 438.18H195.262V437.18ZM192.562 434.372L192.072 435.244L192.079 435.247L192.086 435.251L192.562 434.372ZM184.138 434.516L184.636 435.383L184.636 435.383L184.138 434.516ZM181.078 437.684L180.199 437.206L180.193 437.218L181.078 437.684ZM181.078 447.224L180.19 447.683L180.194 447.693L180.199 447.702L181.078 447.224ZM184.138 450.392L184.636 449.525L184.636 449.525L184.138 450.392ZM194.002 449.636L194.669 450.381L194.669 450.381L194.002 449.636ZM196.558 444.56L197.547 444.705L197.715 443.56H196.558V444.56ZM187.162 444.56H186.162V445.56H187.162V444.56ZM187.162 441.284V440.284H186.162V441.284H187.162ZM200.95 441.284H201.95V440.284H200.95V441.284ZM200.95 444.488L201.941 444.623L201.95 444.556V444.488H200.95ZM198.862 449.852L198.039 449.283L198.034 449.292L198.862 449.852ZM194.506 453.776L194.981 454.656L194.986 454.653L194.506 453.776ZM182.122 453.596L181.628 454.466L181.636 454.47L182.122 453.596ZM177.478 449.024L176.613 449.526L176.618 449.534L177.478 449.024ZM177.478 435.848L176.618 435.338L176.613 435.346L177.478 435.848ZM182.122 431.312L182.608 432.186L182.611 432.184L182.122 431.312ZM195.658 431.636L195.119 432.479L195.131 432.486L195.658 431.636ZM200.194 437.18V438.18H201.657L201.126 436.817L200.194 437.18ZM196.149 436.719C195.416 435.307 194.379 434.219 193.038 433.493L192.086 435.251C193.049 435.773 193.811 436.557 194.374 437.641L196.149 436.719ZM193.052 433.5C191.73 432.757 190.225 432.4 188.566 432.4V434.4C189.931 434.4 191.09 434.691 192.072 435.244L193.052 433.5ZM188.566 432.4C186.755 432.4 185.103 432.809 183.64 433.649L184.636 435.383C185.764 434.735 187.065 434.4 188.566 434.4V432.4ZM183.64 433.649C182.177 434.489 181.028 435.683 180.199 437.206L181.956 438.162C182.616 436.949 183.507 436.031 184.636 435.383L183.64 433.649ZM180.193 437.218C179.386 438.752 178.998 440.5 178.998 442.436H180.998C180.998 440.772 181.33 439.352 181.963 438.15L180.193 437.218ZM178.998 442.436C178.998 444.372 179.386 446.13 180.19 447.683L181.966 446.765C181.33 445.534 180.998 444.1 180.998 442.436H178.998ZM180.199 447.702C181.028 449.225 182.177 450.419 183.64 451.259L184.636 449.525C183.507 448.877 182.616 447.959 181.956 446.746L180.199 447.702ZM183.64 451.259C185.103 452.099 186.755 452.508 188.566 452.508V450.508C187.065 450.508 185.764 450.173 184.636 449.525L183.64 451.259ZM188.566 452.508C190.994 452.508 193.06 451.824 194.669 450.381L193.334 448.891C192.16 449.944 190.602 450.508 188.566 450.508V452.508ZM194.669 450.381C196.262 448.953 197.207 447.034 197.547 444.705L195.568 444.415C195.285 446.358 194.526 447.823 193.334 448.891L194.669 450.381ZM196.558 443.56H187.162V445.56H196.558V443.56ZM188.162 444.56V441.284H186.162V444.56H188.162ZM187.162 442.284H200.95V440.284H187.162V442.284ZM199.95 441.284V444.488H201.95V441.284H199.95ZM199.959 444.353C199.716 446.14 199.079 447.779 198.039 449.283L199.685 450.421C200.901 448.661 201.655 446.724 201.941 444.623L199.959 444.353ZM198.034 449.292C197.023 450.786 195.692 451.988 194.026 452.899L194.986 454.653C196.919 453.596 198.493 452.182 199.69 450.412L198.034 449.292ZM194.03 452.896C192.412 453.771 190.598 454.216 188.566 454.216V456.216C190.902 456.216 193.048 455.701 194.981 454.656L194.03 452.896ZM188.566 454.216C186.374 454.216 184.394 453.715 182.608 452.722L181.636 454.47C183.737 455.637 186.054 456.216 188.566 456.216V454.216ZM182.616 452.726C180.825 451.709 179.402 450.31 178.338 448.514L176.618 449.534C177.857 451.626 179.531 453.275 181.628 454.466L182.616 452.726ZM178.343 448.522C177.311 446.744 176.786 444.724 176.786 442.436H174.786C174.786 445.044 175.389 447.416 176.613 449.526L178.343 448.522ZM176.786 442.436C176.786 440.148 177.311 438.128 178.343 436.35L176.613 435.346C175.389 437.456 174.786 439.828 174.786 442.436H176.786ZM178.338 436.358C179.401 434.564 180.821 433.179 182.608 432.186L181.636 430.438C179.535 431.605 177.858 433.244 176.618 435.338L178.338 436.358ZM182.611 432.184C184.425 431.167 186.404 430.656 188.566 430.656V428.656C186.072 428.656 183.755 429.249 181.633 430.44L182.611 432.184ZM188.566 430.656C191.056 430.656 193.23 431.27 195.119 432.478L196.197 430.794C193.958 429.362 191.404 428.656 188.566 428.656V430.656ZM195.131 432.486C197.025 433.662 198.401 435.335 199.262 437.543L201.126 436.817C200.115 434.225 198.466 432.202 196.185 430.786L195.131 432.486ZM200.194 436.18H195.262V438.18H200.194V436.18ZM215.222 429.98H216.222V428.98H215.222V429.98ZM215.222 455V456H216.222V455H215.222ZM211.118 455H210.118V456H211.118V455ZM211.118 429.98V428.98H210.118V429.98H211.118ZM214.222 429.98V455H216.222V429.98H214.222ZM215.222 454H211.118V456H215.222V454ZM212.118 455V429.98H210.118V455H212.118ZM211.118 430.98H215.222V428.98H211.118V430.98ZM247.286 455V456H248.286V455H247.286ZM243.182 455L242.348 455.551L242.644 456H243.182V455ZM230.834 436.316L231.668 435.765L229.834 432.989V436.316H230.834ZM230.834 455V456H231.834V455H230.834ZM226.73 455H225.73V456H226.73V455ZM226.73 429.944V428.944H225.73V429.944H226.73ZM230.834 429.944L231.668 429.392L231.371 428.944H230.834V429.944ZM243.182 448.592L242.348 449.144L244.182 451.913V448.592H243.182ZM243.182 429.944V428.944H242.182V429.944H243.182ZM247.286 429.944H248.286V428.944H247.286V429.944ZM247.286 454H243.182V456H247.286V454ZM244.016 454.449L231.668 435.765L230 436.867L242.348 455.551L244.016 454.449ZM229.834 436.316V455H231.834V436.316H229.834ZM230.834 454H226.73V456H230.834V454ZM227.73 455V429.944H225.73V455H227.73ZM226.73 430.944H230.834V428.944H226.73V430.944ZM230 430.496L242.348 449.144L244.016 448.04L231.668 429.392L230 430.496ZM244.182 448.592V429.944H242.182V448.592H244.182ZM243.182 430.944H247.286V428.944H243.182V430.944ZM246.286 429.944V455H248.286V429.944H246.286ZM273.879 449.888L274.822 449.556L274.587 448.888H273.879V449.888ZM263.403 449.888V448.888H262.695L262.46 449.556L263.403 449.888ZM261.603 455V456H262.311L262.546 455.332L261.603 455ZM257.319 455L256.378 454.663L255.899 456H257.319V455ZM266.283 429.944V428.944H265.579L265.342 429.607L266.283 429.944ZM271.035 429.944L271.977 429.607L271.739 428.944H271.035V429.944ZM279.999 455V456H281.419L280.941 454.663L279.999 455ZM275.679 455L274.736 455.332L274.971 456H275.679V455ZM272.727 446.54V447.54H274.136L273.671 446.21L272.727 446.54ZM268.659 434.912L269.603 434.582L268.663 431.896L267.716 434.579L268.659 434.912ZM264.555 446.54L263.612 446.207L263.142 447.54H264.555V446.54ZM273.879 448.888H263.403V450.888H273.879V448.888ZM262.46 449.556L260.66 454.668L262.546 455.332L264.346 450.22L262.46 449.556ZM261.603 454H257.319V456H261.603V454ZM258.261 455.337L267.225 430.281L265.342 429.607L256.378 454.663L258.261 455.337ZM266.283 430.944H271.035V428.944H266.283V430.944ZM270.094 430.281L279.058 455.337L280.941 454.663L271.977 429.607L270.094 430.281ZM279.999 454H275.679V456H279.999V454ZM276.622 454.668L274.822 449.556L272.936 450.22L274.736 455.332L276.622 454.668ZM273.671 446.21L269.603 434.582L267.715 435.242L271.783 446.87L273.671 446.21ZM267.716 434.579L263.612 446.207L265.498 446.873L269.602 435.245L267.716 434.579ZM264.555 447.54H272.727V445.54H264.555V447.54ZM320.644 431.528L320.184 432.416L320.191 432.419L320.197 432.422L320.644 431.528ZM325.288 435.92L324.417 436.41L324.42 436.417L324.424 436.423L325.288 435.92ZM325.288 449.204L324.427 448.696L324.422 448.704L325.288 449.204ZM320.644 453.524L321.087 454.421L321.091 454.418L320.644 453.524ZM305.488 455H304.488V456H305.488V455ZM305.488 429.98V428.98H304.488V429.98H305.488ZM320.392 449.276L319.68 448.574L319.68 448.574L320.392 449.276ZM309.592 433.328V432.328H308.592V433.328H309.592ZM309.592 451.652H308.592V452.652H309.592V451.652ZM313.66 430.98C316.194 430.98 318.359 431.47 320.184 432.416L321.104 430.64C318.946 429.522 316.454 428.98 313.66 428.98V430.98ZM320.197 432.422C322.039 433.343 323.437 434.669 324.417 436.41L326.16 435.43C324.98 433.331 323.282 431.729 321.091 430.634L320.197 432.422ZM324.424 436.423C325.426 438.143 325.944 440.184 325.944 442.58H327.944C327.944 439.888 327.359 437.488 326.152 435.417L324.424 436.423ZM325.944 442.58C325.944 444.976 325.426 447.002 324.427 448.696L326.15 449.712C327.359 447.662 327.944 445.272 327.944 442.58H325.944ZM324.422 448.704C323.444 450.399 322.046 451.705 320.197 452.63L321.091 454.418C323.275 453.327 324.972 451.753 326.154 449.704L324.422 448.704ZM320.201 452.627C318.372 453.531 316.201 454 313.66 454V456C316.448 456 318.933 455.485 321.087 454.421L320.201 452.627ZM313.66 454H305.488V456H313.66V454ZM306.488 455V429.98H304.488V455H306.488ZM305.488 430.98H313.66V428.98H305.488V430.98ZM313.66 452.652C316.768 452.652 319.303 451.807 321.105 449.978L319.68 448.574C318.362 449.913 316.409 450.652 313.66 450.652V452.652ZM321.105 449.978C322.899 448.156 323.732 445.642 323.732 442.58H321.732C321.732 445.278 321.006 447.228 319.68 448.574L321.105 449.978ZM323.732 442.58C323.732 439.495 322.9 436.952 321.115 435.085L319.669 436.467C321.005 437.864 321.732 439.857 321.732 442.58H323.732ZM321.115 435.085C319.315 433.202 316.776 432.328 313.66 432.328V434.328C316.4 434.328 318.35 435.086 319.669 436.467L321.115 435.085ZM313.66 432.328H309.592V434.328H313.66V432.328ZM308.592 433.328V451.652H310.592V433.328H308.592ZM309.592 452.652H313.66V450.652H309.592V452.652ZM341.236 433.292V432.292H340.236V433.292H341.236ZM341.236 440.636H340.236V441.636H341.236V440.636ZM349.876 440.636H350.876V439.636H349.876V440.636ZM349.876 443.984V444.984H350.876V443.984H349.876ZM341.236 443.984V442.984H340.236V443.984H341.236ZM341.236 451.652H340.236V452.652H341.236V451.652ZM350.956 451.652H351.956V450.652H350.956V451.652ZM350.956 455V456H351.956V455H350.956ZM337.132 455H336.132V456H337.132V455ZM337.132 429.944V428.944H336.132V429.944H337.132ZM350.956 429.944H351.956V428.944H350.956V429.944ZM350.956 433.292V434.292H351.956V433.292H350.956ZM340.236 433.292V440.636H342.236V433.292H340.236ZM341.236 441.636H349.876V439.636H341.236V441.636ZM348.876 440.636V443.984H350.876V440.636H348.876ZM349.876 442.984H341.236V444.984H349.876V442.984ZM340.236 443.984V451.652H342.236V443.984H340.236ZM341.236 452.652H350.956V450.652H341.236V452.652ZM349.956 451.652V455H351.956V451.652H349.956ZM350.956 454H337.132V456H350.956V454ZM338.132 455V429.944H336.132V455H338.132ZM337.132 430.944H350.956V428.944H337.132V430.944ZM349.956 429.944V433.292H351.956V429.944H349.956ZM350.956 432.292H341.236V434.292H350.956V432.292ZM377.926 435.848L377.066 435.338L377.061 435.346L377.926 435.848ZM382.57 431.312L383.056 432.186L383.059 432.184L382.57 431.312ZM396.106 431.636L395.567 432.479L395.579 432.486L396.106 431.636ZM400.642 437.18V438.18H402.106L401.574 436.817L400.642 437.18ZM395.71 437.18L394.812 437.621L395.087 438.18H395.71V437.18ZM393.01 434.228L393.5 433.356L393.5 433.356L393.01 434.228ZM384.586 434.372L385.084 435.239L385.084 435.239L384.586 434.372ZM381.526 437.576L380.644 437.105L380.638 437.117L381.526 437.576ZM381.526 447.296L380.638 447.755L380.644 447.767L381.526 447.296ZM384.586 450.536L384.076 451.396L384.088 451.403L384.586 450.536ZM393.01 450.68L393.5 451.552L393.5 451.552L393.01 450.68ZM395.71 447.728V446.728H395.087L394.812 447.287L395.71 447.728ZM400.642 447.728L401.574 448.091L402.106 446.728H400.642V447.728ZM396.106 453.272L395.579 452.422L395.574 452.425L396.106 453.272ZM382.57 453.596L382.076 454.466L382.085 454.47L382.57 453.596ZM377.926 449.024L377.061 449.526L377.066 449.534L377.926 449.024ZM377.234 442.436C377.234 440.148 377.759 438.128 378.791 436.35L377.061 435.346C375.837 437.456 375.234 439.828 375.234 442.436H377.234ZM378.786 436.358C379.85 434.564 381.269 433.179 383.056 432.186L382.085 430.438C379.983 431.605 378.307 433.244 377.066 435.338L378.786 436.358ZM383.059 432.184C384.873 431.167 386.852 430.656 389.014 430.656V428.656C386.52 428.656 384.203 429.249 382.081 430.44L383.059 432.184ZM389.014 430.656C391.505 430.656 393.678 431.27 395.567 432.478L396.645 430.794C394.406 429.362 391.852 428.656 389.014 428.656V430.656ZM395.579 432.486C397.474 433.662 398.849 435.335 399.711 437.543L401.574 436.817C400.563 434.225 398.915 432.202 396.634 430.786L395.579 432.486ZM400.642 436.18H395.71V438.18H400.642V436.18ZM396.608 436.739C395.881 435.259 394.848 434.115 393.5 433.356L392.52 435.1C393.476 435.637 394.243 436.461 394.812 437.621L396.608 436.739ZM393.5 433.356C392.178 432.613 390.673 432.256 389.014 432.256V434.256C390.379 434.256 391.538 434.547 392.52 435.1L393.5 433.356ZM389.014 432.256C387.203 432.256 385.552 432.665 384.088 433.505L385.084 435.239C386.213 434.591 387.514 434.256 389.014 434.256V432.256ZM384.088 433.505C382.62 434.347 381.471 435.557 380.644 437.105L382.408 438.047C383.069 436.811 383.96 435.885 385.084 435.239L384.088 433.505ZM380.638 437.117C379.832 438.674 379.446 440.457 379.446 442.436H381.446C381.446 440.719 381.78 439.262 382.414 438.035L380.638 437.117ZM379.446 442.436C379.446 444.415 379.832 446.198 380.638 447.755L382.414 446.837C381.78 445.61 381.446 444.153 381.446 442.436H379.446ZM380.644 447.767C381.47 449.313 382.615 450.531 384.076 451.396L385.096 449.676C383.965 449.005 383.07 448.063 382.408 446.825L380.644 447.767ZM384.088 451.403C385.552 452.243 387.203 452.652 389.014 452.652V450.652C387.514 450.652 386.213 450.317 385.084 449.669L384.088 451.403ZM389.014 452.652C390.673 452.652 392.178 452.295 393.5 451.552L392.52 449.808C391.538 450.361 390.379 450.652 389.014 450.652V452.652ZM393.5 451.552C394.848 450.793 395.881 449.649 396.608 448.169L394.812 447.287C394.243 448.447 393.476 449.271 392.52 449.808L393.5 451.552ZM395.71 448.728H400.642V446.728H395.71V448.728ZM399.711 447.365C398.849 449.573 397.474 451.246 395.579 452.422L396.634 454.122C398.915 452.706 400.563 450.683 401.574 448.091L399.711 447.365ZM395.574 452.425C393.684 453.612 391.508 454.216 389.014 454.216V456.216C391.848 456.216 394.4 455.524 396.638 454.119L395.574 452.425ZM389.014 454.216C386.822 454.216 384.843 453.715 383.056 452.722L382.085 454.47C384.186 455.637 386.502 456.216 389.014 456.216V454.216ZM383.064 452.726C381.273 451.709 379.851 450.31 378.786 448.514L377.066 449.534C378.306 451.626 379.979 453.275 382.076 454.466L383.064 452.726ZM378.791 448.522C377.759 446.744 377.234 444.724 377.234 442.436H375.234C375.234 445.044 375.837 447.416 377.061 449.526L378.791 448.522ZM426.65 449.888L427.593 449.556L427.358 448.888H426.65V449.888ZM416.174 449.888V448.888H415.466L415.231 449.556L416.174 449.888ZM414.374 455V456H415.082L415.317 455.332L414.374 455ZM410.09 455L409.148 454.663L408.67 456H410.09V455ZM419.054 429.944V428.944H418.35L418.112 429.607L419.054 429.944ZM423.806 429.944L424.747 429.607L424.51 428.944H423.806V429.944ZM432.77 455V456H434.19L433.711 454.663L432.77 455ZM428.45 455L427.507 455.332L427.742 456H428.45V455ZM425.498 446.54V447.54H426.907L426.442 446.21L425.498 446.54ZM421.43 434.912L422.374 434.582L421.434 431.896L420.487 434.579L421.43 434.912ZM417.326 446.54L416.383 446.207L415.913 447.54H417.326V446.54ZM426.65 448.888H416.174V450.888H426.65V448.888ZM415.231 449.556L413.431 454.668L415.317 455.332L417.117 450.22L415.231 449.556ZM414.374 454H410.09V456H414.374V454ZM411.031 455.337L419.995 430.281L418.112 429.607L409.148 454.663L411.031 455.337ZM419.054 430.944H423.806V428.944H419.054V430.944ZM422.864 430.281L431.828 455.337L433.711 454.663L424.747 429.607L422.864 430.281ZM432.77 454H428.45V456H432.77V454ZM429.393 454.668L427.593 449.556L425.707 450.22L427.507 455.332L429.393 454.668ZM426.442 446.21L422.374 434.582L420.486 435.242L424.554 446.87L426.442 446.21ZM420.487 434.579L416.383 446.207L418.269 446.873L422.373 435.245L420.487 434.579ZM417.326 447.54H425.498V445.54H417.326V447.54ZM457.943 431.528L457.483 432.416L457.49 432.419L457.496 432.422L457.943 431.528ZM462.587 435.92L461.716 436.41L461.72 436.417L461.723 436.423L462.587 435.92ZM462.587 449.204L461.726 448.696L461.721 448.704L462.587 449.204ZM457.943 453.524L458.386 454.421L458.391 454.418L457.943 453.524ZM442.787 455H441.787V456H442.787V455ZM442.787 429.98V428.98H441.787V429.98H442.787ZM457.691 449.276L456.979 448.574L456.979 448.574L457.691 449.276ZM446.891 433.328V432.328H445.891V433.328H446.891ZM446.891 451.652H445.891V452.652H446.891V451.652ZM450.959 430.98C453.493 430.98 455.658 431.47 457.483 432.416L458.403 430.64C456.245 429.522 453.754 428.98 450.959 428.98V430.98ZM457.496 432.422C459.338 433.343 460.736 434.669 461.716 436.41L463.459 435.43C462.279 433.331 460.581 431.729 458.391 430.634L457.496 432.422ZM461.723 436.423C462.725 438.143 463.243 440.184 463.243 442.58H465.243C465.243 439.888 464.658 437.488 463.452 435.417L461.723 436.423ZM463.243 442.58C463.243 444.976 462.725 447.002 461.726 448.696L463.449 449.712C464.658 447.662 465.243 445.272 465.243 442.58H463.243ZM461.721 448.704C460.744 450.399 459.345 451.705 457.496 452.63L458.391 454.418C460.574 453.327 462.271 451.753 463.454 449.704L461.721 448.704ZM457.501 452.627C455.671 453.531 453.5 454 450.959 454V456C453.747 456 456.232 455.485 458.386 454.421L457.501 452.627ZM450.959 454H442.787V456H450.959V454ZM443.787 455V429.98H441.787V455H443.787ZM442.787 430.98H450.959V428.98H442.787V430.98ZM450.959 452.652C454.067 452.652 456.602 451.807 458.404 449.978L456.979 448.574C455.661 449.913 453.708 450.652 450.959 450.652V452.652ZM458.404 449.978C460.198 448.156 461.031 445.642 461.031 442.58H459.031C459.031 445.278 458.305 447.228 456.979 448.574L458.404 449.978ZM461.031 442.58C461.031 439.495 460.199 436.952 458.414 435.085L456.969 436.467C458.304 437.864 459.031 439.857 459.031 442.58H461.031ZM458.414 435.085C456.614 433.202 454.075 432.328 450.959 432.328V434.328C453.7 434.328 455.649 435.086 456.969 436.467L458.414 435.085ZM450.959 432.328H446.891V434.328H450.959V432.328ZM445.891 433.328V451.652H447.891V433.328H445.891ZM446.891 452.652H450.959V450.652H446.891V452.652ZM489.515 449.888L490.458 449.556L490.223 448.888H489.515V449.888ZM479.039 449.888V448.888H478.331L478.096 449.556L479.039 449.888ZM477.239 455V456H477.947L478.182 455.332L477.239 455ZM472.955 455L472.013 454.663L471.535 456H472.955V455ZM481.919 429.944V428.944H481.215L480.977 429.607L481.919 429.944ZM486.671 429.944L487.613 429.607L487.375 428.944H486.671V429.944ZM495.635 455V456H497.055L496.577 454.663L495.635 455ZM491.315 455L490.372 455.332L490.607 456H491.315V455ZM488.363 446.54V447.54H489.772L489.307 446.21L488.363 446.54ZM484.295 434.912L485.239 434.582L484.299 431.896L483.352 434.579L484.295 434.912ZM480.191 446.54L479.248 446.207L478.778 447.54H480.191V446.54ZM489.515 448.888H479.039V450.888H489.515V448.888ZM478.096 449.556L476.296 454.668L478.182 455.332L479.982 450.22L478.096 449.556ZM477.239 454H472.955V456H477.239V454ZM473.897 455.337L482.861 430.281L480.977 429.607L472.013 454.663L473.897 455.337ZM481.919 430.944H486.671V428.944H481.919V430.944ZM485.729 430.281L494.693 455.337L496.577 454.663L487.613 429.607L485.729 430.281ZM495.635 454H491.315V456H495.635V454ZM492.258 454.668L490.458 449.556L488.572 450.22L490.372 455.332L492.258 454.668ZM489.307 446.21L485.239 434.582L483.351 435.242L487.419 446.87L489.307 446.21ZM483.352 434.579L479.248 446.207L481.134 446.873L485.238 435.245L483.352 434.579ZM480.191 447.54H488.363V445.54H480.191V447.54ZM234.669 483.98L235.606 484.332L236.113 482.98H234.669V483.98ZM225.273 509V510H225.966L226.21 509.352L225.273 509ZM220.521 509L219.586 509.353L219.83 510H220.521V509ZM211.089 483.98V482.98H209.644L210.154 484.333L211.089 483.98ZM215.481 483.98L216.423 483.644L216.187 482.98H215.481V483.98ZM222.897 504.788L221.955 505.124L222.895 507.76L223.839 505.125L222.897 504.788ZM230.349 483.98V482.98H229.645L229.408 483.643L230.349 483.98ZM233.733 483.628L224.337 508.648L226.21 509.352L235.606 484.332L233.733 483.628ZM225.273 508H220.521V510H225.273V508ZM221.457 508.647L212.025 483.627L210.154 484.333L219.586 509.353L221.457 508.647ZM211.089 484.98H215.481V482.98H211.089V484.98ZM214.539 484.316L221.955 505.124L223.839 504.452L216.423 483.644L214.539 484.316ZM223.839 505.125L231.291 484.317L229.408 483.643L221.956 504.451L223.839 505.125ZM230.349 484.98H234.669V482.98H230.349V484.98ZM248.325 487.292V486.292H247.325V487.292H248.325ZM248.325 494.636H247.325V495.636H248.325V494.636ZM256.965 494.636H257.965V493.636H256.965V494.636ZM256.965 497.984V498.984H257.965V497.984H256.965ZM248.325 497.984V496.984H247.325V497.984H248.325ZM248.325 505.652H247.325V506.652H248.325V505.652ZM258.045 505.652H259.045V504.652H258.045V505.652ZM258.045 509V510H259.045V509H258.045ZM244.221 509H243.221V510H244.221V509ZM244.221 483.944V482.944H243.221V483.944H244.221ZM258.045 483.944H259.045V482.944H258.045V483.944ZM258.045 487.292V488.292H259.045V487.292H258.045ZM247.325 487.292V494.636H249.325V487.292H247.325ZM248.325 495.636H256.965V493.636H248.325V495.636ZM255.965 494.636V497.984H257.965V494.636H255.965ZM256.965 496.984H248.325V498.984H256.965V496.984ZM247.325 497.984V505.652H249.325V497.984H247.325ZM248.325 506.652H258.045V504.652H248.325V506.652ZM257.045 505.652V509H259.045V505.652H257.045ZM258.045 508H244.221V510H258.045V508ZM245.221 509V483.944H243.221V509H245.221ZM244.221 484.944H258.045V482.944H244.221V484.944ZM257.045 483.944V487.292H259.045V483.944H257.045ZM258.045 486.292H248.325V488.292H258.045V486.292ZM273.18 505.436L272.337 504.899L271.358 506.436H273.18V505.436ZM284.808 505.436H285.808V504.436H284.808V505.436ZM284.808 509V510H285.808V509H284.808ZM268.32 509H267.32V510H268.32V509ZM268.32 505.796L267.476 505.26L267.32 505.505V505.796H268.32ZM279.912 487.544L280.757 488.08L281.732 486.544H279.912V487.544ZM268.32 487.544H267.32V488.544H268.32V487.544ZM268.32 483.98V482.98H267.32V483.98H268.32ZM284.808 483.98H285.808V482.98H284.808V483.98ZM284.808 487.184L285.652 487.721L285.808 487.475V487.184H284.808ZM273.18 506.436H284.808V504.436H273.18V506.436ZM283.808 505.436V509H285.808V505.436H283.808ZM284.808 508H268.32V510H284.808V508ZM269.32 509V505.796H267.32V509H269.32ZM269.165 506.332L280.757 488.08L279.068 487.008L267.476 505.26L269.165 506.332ZM279.912 486.544H268.32V488.544H279.912V486.544ZM269.32 487.544V483.98H267.32V487.544H269.32ZM268.32 484.98H284.808V482.98H268.32V484.98ZM283.808 483.98V487.184H285.808V483.98H283.808ZM283.965 486.647L272.337 504.899L274.024 505.973L285.652 487.721L283.965 486.647Z" fill="#021018"/>
<defs>
<filter id="filter0_d_4_2" x="112" y="0" width="280.973" height="326.914" filterUnits="userSpaceOnUse" color-interpolation-filters="sRGB">
<feFlood flood-opacity="0" result="BackgroundImageFix"/>
<feColorMatrix in="SourceAlpha" type="matrix" values="0 0 0 0 0 0 0 0 0 0 0 0 0 0 0 0 0 0 127 0" result="hardAlpha"/>
<feOffset dx="4" dy="4"/>
<feGaussianBlur stdDeviation="2"/>
<feComposite in2="hardAlpha" operator="out"/>
<feColorMatrix type="matrix" values="0 0 0 0 0 0 0 0 0 0 0 0 0 0 0 0 0 0 0.3 0"/>
<feBlend mode="normal" in2="BackgroundImageFix" result="effect1_dropShadow_4_2"/>
<feBlend mode="normal" in="SourceGraphic" in2="effect1_dropShadow_4_2" result="shape"/>
</filter>
<filter id="filter1_d_4_2" x="135.109" y="351.727" width="201.95" height="56.9421" filterUnits="userSpaceOnUse" color-interpolation-filters="sRGB">
<feFlood flood-opacity="0" result="BackgroundImageFix"/>
<feColorMatrix in="SourceAlpha" type="matrix" values="0 0 0 0 0 0 0 0 0 0 0 0 0 0 0 0 0 0 127 0" result="hardAlpha"/>
<feOffset dy="5"/>
<feGaussianBlur stdDeviation="2"/>
<feComposite in2="hardAlpha" operator="out"/>
<feColorMatrix type="matrix" values="0 0 0 0 0 0 0 0 0 0 0 0 0 0 0 0 0 0 0.3 0"/>
<feBlend mode="normal" in2="BackgroundImageFix" result="effect1_dropShadow_4_2"/>
<feBlend mode="normal" in="SourceGraphic" in2="effect1_dropShadow_4_2" result="shape"/>
</filter>
</defs>
</svg>
