<svg width="218" height="186" viewBox="0 0 218 186" fill="none" xmlns="http://www.w3.org/2000/svg">
<g clip-path="url(#clip0_1_35)">
<mask id="mask0_1_35" style="mask-type:luminance" maskUnits="userSpaceOnUse" x="3" y="2" width="213" height="182">
<path d="M166.28 183.159L3.43788 104.451L52.5545 2.83207L215.397 81.5404L166.28 183.159Z" fill="white"/>
</mask>
<g mask="url(#mask0_1_35)">
<path d="M162.139 56.0659C162.334 56.1597 162.41 56.3314 162.466 56.7165L163.569 64.7226C163.597 64.9142 163.607 65.1427 163.717 65.3305C164.032 65.2591 164.332 65.1347 164.647 65.0633C165.313 64.8492 165.961 64.6695 166.626 64.4546C167.358 64.27 168.033 64.2837 168.617 64.566C169.301 64.8965 169.792 65.5375 170.029 66.4576L170.075 66.6122C170.149 66.8739 170.224 67.1338 170.183 67.4697C170.327 67.5853 170.322 67.7608 170.367 67.9173C170.381 67.9695 170.363 68.0065 170.396 68.0226C170.468 68.3698 170.541 68.7179 170.663 69.046C170.842 69.7574 171 70.5049 171.127 71.2372C171.19 71.3585 171.219 71.462 171.233 71.6032C171.502 72.5385 171.737 73.5467 171.924 74.4858L172.068 75.183C172.399 75.1628 172.718 75.0041 173.016 74.8815C173.167 74.8197 173.284 74.7418 173.417 74.717C173.918 74.5117 174.45 74.3216 175.013 74.2358C175.444 74.1747 175.822 74.2228 176.081 74.348C176.439 74.5212 176.677 74.8597 176.909 75.3756C177.124 75.9267 177.304 76.5498 177.467 77.1218C177.542 77.3817 177.6 77.6767 177.708 77.9545C177.783 78.2144 177.778 78.3899 177.639 78.5921L178.418 81.8759C179.05 84.5517 179.713 87.2454 180.346 89.922C183.624 103.632 186.888 117.29 190.168 131C190.289 131.417 190.342 131.801 190.365 132.17C190.457 132.974 190.073 133.683 189.338 134.044C188.485 134.483 187.538 134.697 186.676 134.905C186.411 134.957 186.146 135.007 185.864 135.094C185.69 135.369 185.458 135.434 185.193 135.487L166.594 140.277C152.712 143.858 138.778 147.459 124.896 151.041C123.202 151.475 121.714 152.232 120.363 153.367C118.759 154.696 117.04 155.43 115.255 155.553C113.588 155.685 112.158 155.487 110.922 154.979C110.824 154.931 110.726 154.884 110.628 154.837C109.978 154.522 109.365 154.048 108.739 153.433C107.429 152.083 106.029 150.914 104.572 149.942C104.475 149.896 104.362 149.795 104.233 149.733C104.07 149.654 103.907 149.576 103.727 149.534L103.629 149.487C101.005 148.442 98.3999 147.361 95.7764 146.317C94.4736 145.776 93.1862 145.288 91.8834 144.747C90.2059 144.071 88.56 143.41 86.8809 142.733C86.0013 142.397 85.1387 142.026 84.2753 141.652C83.4127 141.281 82.5331 140.945 81.6688 140.572C80.154 139.975 78.6554 139.34 77.1406 138.742C75.6897 138.173 74.2898 137.588 72.8389 137.019C71.9252 136.668 71.0635 136.295 70.1677 135.908C69.3375 135.55 68.457 135.216 67.6269 134.858C65.3789 133.952 63.0986 133.027 60.8319 132.155C60.7672 132.124 60.7357 132.109 60.6693 132.077C60.4751 131.983 60.2963 131.853 60.3072 131.5L59.0578 130.269C58.1593 129.387 57.2471 128.454 56.3502 127.573C43.4742 114.55 30.5675 101.509 17.7093 88.449L14.874 85.6023C14.8262 85.5359 14.7615 85.5046 14.7147 85.4363L14.6346 85.352C14.484 85.4138 14.3197 85.4234 14.2217 85.376C14.157 85.3448 14.0761 85.2623 13.9961 85.178C13.6365 84.5113 13.5715 83.9003 13.8369 83.2665C14.121 82.5983 14.6427 82.1797 15.3391 82.069C15.8515 82.0041 16.3275 82.0995 16.8018 82.1941C16.9167 82.2063 16.9814 82.2376 17.0461 82.2689C17.144 82.3162 17.2266 82.3105 17.3245 82.3578C17.4403 82.3681 17.5382 82.4155 17.62 82.4116C17.9478 82.4788 17.9478 82.4788 18.214 81.8476C18.3713 81.5221 18.4964 81.1786 18.6537 80.8531C19.3605 79.2255 20.069 77.5098 21.0202 75.957C21.3656 75.4075 21.7426 74.9622 22.1469 74.6214C23.0745 73.8627 24.1183 73.6941 25.3086 74.137C26.4019 74.5309 27.5131 74.8877 28.6412 75.2093C29.8657 75.5775 31.1249 75.9626 32.3477 76.419C33.848 76.9661 35.3807 77.5267 36.881 78.0739L40.3226 79.3358C41.5122 79.7761 42.7349 80.2325 43.944 80.6366C44.89 81.0049 45.8206 81.3201 46.765 81.6875L48.0856 82.1912C48.1188 82.2072 48.1835 82.2385 48.2151 82.2538C48.3777 82.3324 48.5573 82.3758 48.788 82.3984C48.7777 82.1698 48.6662 82.0702 48.5861 81.9859C48.5529 81.9698 48.5214 81.9546 48.5384 81.9195C42.3933 75.5472 36.249 69.1775 30.1031 62.8071C30.0699 62.791 30.0562 62.7388 30.0231 62.7227C29.9915 62.7075 29.9753 62.6563 29.9106 62.625C29.8774 62.609 29.8637 62.5567 29.8306 62.5407C29.7028 62.39 29.558 62.2744 29.7316 62C29.8856 61.7618 30.0652 61.8053 30.261 61.9C30.2942 61.916 30.3258 61.9312 30.359 61.9473L31.7992 63.4489L36.551 68.3834L32.1842 63.8129L30.3768 61.9103C30.7217 61.9423 31.0307 62.0484 31.3245 62.1903L31.4539 62.2529C32.2382 62.5407 32.9372 62.8352 33.6057 63.1127C36.1942 64.2292 38.8944 65.4453 41.787 66.8434C43.4466 67.6456 45.136 68.4622 46.9719 69.3951C48.4502 70.153 49.7002 70.8028 50.9512 71.4508C52.4754 72.2788 54.3258 73.2622 56.1268 74.2673C57.8614 75.2403 59.6965 76.2597 61.461 77.3361C63.2271 78.4134 64.926 79.4604 66.6419 80.5567C68.4379 81.7374 70.216 82.9551 72.1355 84.3757C72.1687 84.3918 72.1824 84.444 72.2156 84.4601C72.2471 84.4753 72.2301 84.5104 72.2633 84.5265L72.8432 84.9871C72.8748 85.0023 72.908 85.0183 72.908 85.0183C72.9395 85.0336 72.9727 85.0496 72.9727 85.0496C73.0374 85.0809 73.1353 85.1282 73.1482 85.2668C73.2129 85.2981 73.2793 85.3302 73.3108 85.3454C73.4735 85.424 73.6182 85.5396 73.763 85.6552L73.7962 85.6713C77.1934 88.4313 80.0791 91.8387 82.6401 96.1638C82.9229 96.6587 83.2373 97.1689 83.538 97.6268C84.2136 98.7155 84.907 99.8561 85.5307 101.052C85.9604 100.498 86.2897 99.8969 86.5874 99.281C86.7456 98.9536 86.9361 98.6441 87.1114 98.2816C88.3084 96.2201 89.8171 94.1746 91.7241 92.0548C94.3306 89.1526 97.1831 86.237 100.168 83.383C102.81 80.9021 105.689 78.8479 107.89 77.3633C112.548 74.1997 117.794 71.1429 123.949 68.0323C124.485 67.7549 125.003 67.5126 125.538 67.2351C127.195 66.3791 128.901 65.5041 130.62 64.7694C132.857 63.7925 135.222 62.9663 137.454 62.1649C137.987 61.9756 138.47 61.8073 139.002 61.6172C143.215 60.1189 147.531 59.0721 151.746 58.068L152.875 57.8081C154.6 57.3894 156.328 56.9715 158.071 56.5159C159.016 56.3017 159.947 56.0354 160.894 55.8221L160.976 55.8164C161.258 55.7289 161.573 55.6576 161.886 55.6762C161.893 55.9922 162.041 56.0186 162.139 56.0659Z" fill="#5272A5"/>
</g>
<mask id="mask1_1_35" style="mask-type:luminance" maskUnits="userSpaceOnUse" x="3" y="2" width="210" height="180">
<path d="M163.341 181.883L3.38154 104.568L52.5545 2.83213L212.514 80.1471L163.341 181.883Z" fill="white"/>
</mask>
<g mask="url(#mask1_1_35)">
<path d="M13.7527 83.3605C14.0529 82.6545 14.59 82.2889 15.2531 82.1622C15.7656 82.0973 16.2415 82.1927 16.749 82.3034C16.9295 82.345 17.0606 82.4084 17.2403 82.4518C17.8303 82.5568 17.7427 82.738 18.077 81.9618C18.9275 79.9565 19.7431 77.9343 20.8526 76.0541C21.1801 75.5416 21.5239 75.0802 21.9792 74.7185C23.026 73.8827 24.0808 73.8564 25.1741 74.2502C27.4902 75.1003 29.8955 75.6811 32.2123 76.5339C34.152 77.2479 36.1249 77.9778 38.0663 78.6925C39.9744 79.3912 41.8826 80.0899 43.7908 80.7886C45.194 81.2866 46.5794 81.8216 47.9333 82.3413C48.1444 82.4 48.3565 82.5458 48.6357 82.5485C48.5922 82.3038 48.4296 82.2252 48.318 82.1257C42.172 75.7552 36.0286 69.3837 29.8827 63.0133C29.835 62.9468 29.737 62.8995 29.6902 62.8312C29.5309 62.6652 29.2882 62.5023 29.5103 62.2081C29.7017 61.8967 29.9427 62.0588 30.1565 62.1165C32.3011 64.3168 34.4287 66.5522 36.5733 68.7525C38.7664 71.0219 40.9408 73.3256 43.1332 75.5923C45.5665 78.1101 47.9658 80.6137 50.3991 83.1315C50.6384 83.3818 50.9305 83.523 51.209 83.612C52.7271 84.1221 54.2104 84.7045 55.7244 85.3039C57.3056 85.9335 58.9217 86.491 60.5377 87.0485C61.1909 87.2729 61.8082 87.5713 62.4605 87.7976C63.7164 88.27 64.9332 88.9038 66.1543 89.4483C67.6197 90.0676 68.9796 90.9052 70.3252 91.6879C71.7362 92.5045 73.0263 93.4863 74.2638 94.5773C76.2235 96.33 77.8104 98.4387 79.1608 100.791C79.1906 100.895 79.2707 100.979 79.3005 101.082C79.3457 101.239 79.3245 101.363 79.19 101.476C79.0547 101.591 78.9219 101.616 78.7592 101.537C78.5829 101.406 78.4731 101.219 78.3623 101.033C77.3425 99.2416 76.1525 97.6374 74.7608 96.2049C73.4151 94.838 71.8992 93.6581 70.2642 92.6442C68.7101 91.7127 67.1867 90.7984 65.5254 90.0845C63.5405 89.2141 61.5574 88.2555 59.484 87.5683C58.2442 87.147 57.0547 86.6177 55.8329 86.1595C54.0873 85.5394 52.3605 84.796 50.5979 84.2111C49.9448 83.9867 49.3105 83.7234 48.6752 83.462C47.2413 82.858 45.8074 82.3429 44.371 81.8288C43.2445 81.419 42.1375 80.9729 41.0127 80.5639C39.8862 80.154 38.7623 79.7431 37.6179 79.3703C37.0304 79.1753 36.511 78.9242 35.9235 78.7293C33.8663 78.0042 31.8287 77.243 29.7562 76.5539C27.8617 75.9074 25.9485 75.3843 24.0012 74.936C23.3125 74.781 22.7294 74.9921 22.2213 75.463C21.7311 75.8969 21.4002 76.4968 21.07 77.0993C21.46 77.2878 21.856 77.2989 22.234 77.347C24.3012 77.632 26.3132 78.2006 28.3226 78.7702C29.9403 79.2395 31.5275 79.6918 33.1273 80.1981C33.7489 80.4072 34.3364 80.6022 34.9903 80.7403C35.0235 80.7563 35.0235 80.7563 35.0551 80.7716C35.4314 80.9078 35.5881 81.1639 35.5167 81.3963C35.4428 81.6298 35.1457 81.6642 34.7531 81.5657C32.8893 81.0209 31.0595 80.4947 29.2135 79.9173C27.3999 79.3533 25.5847 78.8775 23.7336 78.4757C22.866 78.28 21.9619 78.1556 21.0764 77.9968C20.8142 77.9591 20.6141 78.0426 20.4746 78.3312C19.7745 79.695 19.2711 81.1516 18.605 82.5296C18.4826 82.783 18.5277 82.9395 18.8062 83.0284C19.8816 83.4592 20.9384 83.9244 22.0308 84.32C23.9551 85.0699 25.8284 85.8407 27.7503 86.5916C28.9883 87.101 30.2443 87.5735 31.5138 88.0981C33.1282 88.7438 34.7921 89.3677 36.4039 90.0145C38.0167 90.6593 39.6805 91.2833 41.2923 91.93C41.9608 92.2074 42.5781 92.5058 43.2636 92.7481C44.2274 93.0794 45.17 93.535 46.1144 93.9024C47.5977 94.4848 49.1142 95.0831 50.5975 95.6654C51.2633 95.9439 51.9002 96.2061 52.584 96.4476C54.2163 97.0563 55.8265 97.7912 57.4886 98.4144C59.4121 99.1661 61.3033 99.8999 63.2089 100.689C64.4146 101.18 65.6365 101.638 66.8422 102.13C68.7325 102.866 70.5922 103.584 72.4646 104.357C73.4745 104.754 74.4885 105.066 75.4806 105.5C76.7518 106.025 77.7254 107.078 78.7704 107.986C79.8162 108.894 80.7914 109.947 81.9206 110.762C83.0661 111.628 84.3237 112.012 85.8381 111.535C87.2009 111.121 88.4564 110.519 89.5875 109.589C90.0598 109.192 90.533 108.793 90.9721 108.38C92.1074 107.362 93.3484 106.62 94.7308 106.081C99.1171 104.308 103.521 102.498 107.954 100.794C110.19 99.9053 112.423 99.0158 114.659 98.127C118.043 96.7668 121.428 95.4048 124.845 94.058C127.663 92.9601 130.432 91.793 133.25 90.6932C136.117 89.5735 138.987 88.3664 141.837 87.2819C144.638 86.2191 147.424 85.0169 150.242 83.9171C153.041 82.8535 155.828 81.6521 158.645 80.5515C161.446 79.4887 164.232 78.2865 167.05 77.1867C168.534 76.6077 170.017 76.0261 171.468 75.4293C171.669 75.3484 171.886 75.2297 172.086 75.1461C172.549 75.103 172.969 74.8133 173.402 74.6641C173.936 74.4749 174.468 74.2848 174.998 74.1829C175.991 74.0378 176.541 74.3923 176.927 75.3387C177.248 76.1649 177.454 77.0697 177.726 77.9176C177.818 78.1405 177.778 78.39 177.639 78.5923C177.242 78.6675 177.051 78.3973 176.93 78.0691C176.736 77.3937 176.591 76.6984 176.345 76.0432C176.253 75.8184 176.193 75.6116 176.083 75.4238C175.928 75.0796 175.669 74.9545 175.305 74.9587C174.745 74.9553 174.213 75.1454 173.713 75.3507C171.628 76.1776 169.559 77.0577 167.474 77.8846C161.555 80.258 155.653 82.5962 149.733 84.9695C144.182 87.1624 138.661 89.3723 133.091 91.6022C127.372 93.892 121.62 96.1684 115.9 98.46C110.348 100.653 104.829 102.864 99.2604 105.092C97.9266 105.611 96.5927 106.13 95.292 106.665C93.7395 107.302 92.2993 108.125 91.0279 109.345C89.7054 110.586 88.2448 111.537 86.5968 112.125C85.5302 112.506 84.484 112.761 83.4206 112.47C82.5709 112.238 81.8427 111.753 81.1503 111.195C79.8133 110.145 78.6456 108.91 77.3434 107.787C76.41 106.978 75.3898 106.353 74.2148 105.963C73.48 105.742 72.8473 105.391 72.1287 105.132C70.4333 104.493 68.8231 103.758 67.1278 103.119C65.0085 102.273 62.8414 101.449 60.7229 100.605C59.1417 99.9755 57.5468 99.2936 55.9656 98.6639C53.8479 97.8184 51.7439 97.025 49.6254 96.1813C48.9579 95.902 48.2894 95.6246 47.6057 95.3831C45.9743 94.7725 44.3964 94.0555 42.7667 93.4458C40.7128 92.6334 38.6088 91.84 36.5559 91.0257C35.8892 90.7491 35.2207 90.4717 34.5353 90.2294C32.9371 89.6349 31.3422 88.953 29.778 88.2882C27.9047 87.5174 26.0144 86.7817 24.0926 86.0308C22.2014 85.297 20.3596 84.5414 18.4694 83.8057C17.7839 83.5634 17.135 83.2498 16.3969 83.1166C16.069 83.0494 15.7736 82.9956 15.4254 83.051C14.5818 83.1361 14.1496 83.865 14.4394 84.6759C14.5476 84.9518 14.787 85.2021 14.5607 85.5856C14.2942 85.7261 14.0984 85.6314 13.9238 85.4124C13.5991 84.6736 13.4507 84.0657 13.7527 83.3605ZM84.4608 103.846C84.4014 104.219 84.5624 104.386 84.8263 104.335C85.0587 104.269 85.1625 104.139 85.2024 103.892C85.3698 103.211 85.636 102.579 85.9662 101.977C86.5778 100.796 87.2031 99.6677 87.8624 98.5534C88.9207 96.6942 90.2048 95.033 91.6199 93.4352C93.646 91.1493 95.7863 88.9619 97.9087 86.8115C99.8966 84.7741 101.963 82.8202 104.24 81.1003C108.806 77.6256 113.655 74.6459 118.613 71.9403C120.638 70.8175 122.663 69.7818 124.687 68.7472C126.426 67.8882 128.136 66.9231 129.904 66.1693C132.459 65.031 135.058 64.0509 137.706 63.1381C140.303 62.2462 142.93 61.4577 145.554 60.7567C149.772 59.6625 154.055 58.6023 158.306 57.5242C159.218 57.294 160.183 57.0437 161.11 56.8666C161.691 56.7438 161.756 56.775 161.82 57.3879C162.179 59.8 162.488 62.2312 162.847 64.6407C162.926 65.3066 162.926 65.3066 162.326 65.5527C159.559 66.6316 156.758 67.6944 153.943 68.7932C151.074 69.9121 148.207 71.0318 145.307 72.1354C142.49 73.236 139.69 74.2989 136.874 75.3976C133.974 76.5013 131.089 77.658 128.189 78.7616C125.371 79.8614 122.522 80.9442 119.705 82.0448C116.887 83.1427 114.038 84.2254 111.22 85.3252C108.754 86.2805 106.286 87.2349 103.802 88.2272C103.703 88.268 103.601 88.3099 103.501 88.3508C100.955 89.2217 98.53 90.4226 96.2874 92.1567C93.4226 94.3521 90.8116 96.8483 88.5516 99.7833C87.9177 100.595 87.4481 101.486 87.0237 102.445C86.9012 102.698 86.9115 102.927 87.1389 103.037C87.3662 103.146 87.504 102.946 87.6095 102.728C87.6444 102.656 87.6802 102.582 87.6971 102.547C88.1498 101.691 88.6679 100.869 89.2516 100.076C91.6494 96.9406 94.4936 94.377 97.5908 92.1158C99.1722 91 100.861 90.1619 102.627 89.4937C105.478 88.4118 108.295 87.3112 111.112 86.2132C114.03 85.0726 116.929 83.9681 119.847 82.8275C122.614 81.7486 125.38 80.6716 128.131 79.6279C131.031 78.5242 133.915 77.3675 136.816 76.2639C139.615 75.2029 142.383 74.124 145.199 73.0234C148.066 71.9037 150.966 70.8001 153.833 69.6804C156.884 68.5149 159.919 67.2982 162.951 66.1671C163.334 66.0396 163.586 65.8488 163.682 65.4027C163.59 65.1799 163.546 64.9352 163.522 64.6544C163.154 62.0145 162.767 59.4134 162.431 56.7887C162.349 56.2129 162.188 56.0461 161.646 56.0076C161.333 55.9889 161 56.0973 160.652 56.1526C157.982 56.7854 155.323 57.4697 152.653 58.1025C148.022 59.2207 143.376 60.2858 138.78 61.9116C135.965 62.924 133.152 63.8464 130.398 65.0638C128.161 66.0408 125.951 67.2112 123.759 68.3446C118.257 71.0973 112.863 74.1285 107.7 77.673C105.01 79.5059 102.4 81.4204 99.9762 83.6945C97.047 86.4383 94.243 89.334 91.5352 92.3652C89.7975 94.2999 88.2225 96.3133 86.9208 98.5912C86.4002 99.5032 85.9774 100.463 85.3588 101.327C85.2194 101.616 85.096 101.871 84.9556 102.162C84.8069 102.715 84.5441 103.259 84.4608 103.846ZM119.968 152.775C118.143 154.309 116.08 155.012 113.858 154.878C112.345 154.772 110.936 154.45 109.81 153.458C109.296 153.032 108.849 152.546 108.351 152.082C106.876 150.652 105.298 149.354 103.357 148.639C103.015 148.517 102.673 148.397 102.33 148.277C100.359 147.459 98.4038 146.692 96.4326 145.874C94.3465 145.044 92.3106 144.194 90.2261 143.365C88.9224 142.826 87.6018 142.322 86.299 141.781C84.2298 140.916 82.1454 140.086 80.0593 139.256C78.3486 138.564 76.6243 137.819 74.8626 137.148C74.1456 136.891 73.4303 136.545 72.7117 136.287C70.4305 135.364 68.1324 134.477 65.8521 133.553C64.2062 132.892 62.6113 132.21 60.9653 131.549C60.6733 131.408 60.4247 131.423 60.1864 131.666C60.1772 132.019 60.436 132.144 60.7298 132.286C62.9778 133.193 65.2759 134.08 67.5247 134.989C69.2669 135.696 71.0107 136.405 72.7546 137.113C75.7033 138.314 78.6358 139.465 81.5846 140.666C83.3268 141.374 85.0706 142.082 86.8145 142.79C89.7632 143.992 92.7281 145.156 95.71 146.374C98.3335 147.418 100.939 148.499 103.562 149.544C103.872 149.648 104.198 149.805 104.472 149.983C105.994 150.986 107.361 152.139 108.608 153.459C109.248 154.126 109.94 154.685 110.788 155.006C112.157 155.576 113.62 155.701 115.124 155.579C116.989 155.451 118.71 154.627 120.247 153.357C121.648 152.2 123.138 151.443 124.781 151.03C142.002 146.601 159.271 142.152 176.509 137.688C179.348 136.956 182.188 136.227 185.027 135.495C185.311 135.409 185.608 135.374 185.797 135.062C185.631 134.58 185.283 134.636 184.868 134.748C183.357 135.135 181.829 135.56 180.317 135.948C170.152 138.642 159.972 141.283 149.761 143.908C141.525 146.012 133.302 148.169 125.067 150.272C123.208 150.718 121.521 151.467 119.968 152.775ZM71.7725 85.5421C71.9318 85.7081 72.0587 85.8607 72.2375 85.9905C74.968 88.4739 77.0712 91.5053 78.7361 94.9478C79.9179 97.3992 81.0317 99.9067 81.1955 102.804C81.2253 102.907 81.2373 103.048 81.2688 103.152C81.3455 103.324 81.475 103.386 81.6409 103.377C81.7721 103.352 81.8427 103.206 81.9124 103.061C81.9864 102.828 81.9429 102.583 81.9343 102.355C81.7453 100.341 81.1869 98.5054 80.4157 96.6997C78.6577 92.5391 76.3899 88.8486 73.2488 85.8084C73.1679 85.726 73.07 85.6786 73.0895 85.5535C72.9099 85.51 72.7975 85.4123 72.7523 85.2558C72.5428 85.1089 72.3835 84.943 72.174 84.7961C71.9603 84.7384 71.7449 84.7689 71.6046 85.0593C71.4838 85.2245 71.6447 85.3913 71.7725 85.5421ZM161.382 74.2236C160.532 74.5724 159.684 74.8357 158.818 75.1315C157.885 75.4861 156.969 75.8055 156.003 76.144C155.753 76.2466 155.471 76.334 155.525 76.7183C155.55 76.9973 155.781 77.0198 156.164 76.8923C157.662 76.3637 159.158 75.9233 160.61 75.3265C163.83 73.9759 167.197 73.2306 170.461 72.0356C170.711 71.933 171.009 71.8968 171.15 71.6064C171.137 71.4678 171.125 71.3274 171.045 71.2431C170.655 71.0546 170.238 71.2568 169.821 71.3682C169.039 71.661 168.206 71.9747 167.375 72.1983C165.429 72.8231 163.384 73.4023 161.382 74.2236ZM40.6344 90.2247C40.8447 90.3697 41.0721 90.4796 41.3165 90.5543C43.3898 91.2416 45.3764 92.1128 47.4667 92.7649C48.3812 93.0289 49.277 93.4162 50.1761 93.7162C51.3179 94.0901 52.5108 94.4431 53.6543 94.8178C55.0754 95.2788 56.4778 95.7786 57.9159 96.2045C60.0233 96.8215 62.0804 97.5465 64.0653 98.4169C64.2927 98.5268 64.5064 98.5844 64.7354 98.6061C64.9661 98.6287 65.1168 98.5669 65.2214 98.3504C65.2937 98.1161 65.1489 98.0005 64.9863 97.9219C64.7589 97.812 64.5631 97.7174 64.271 97.5762C63.3914 97.2401 62.396 96.8936 61.4176 96.5119C59.8373 95.8805 58.1685 95.4321 56.5362 94.9124C55.4259 94.5537 54.3462 94.2121 53.2376 93.8543C51.9953 93.4341 50.6892 93.0697 49.4648 92.6126C48.3068 92.1875 47.1471 91.8506 46.0206 91.4407C44.3908 90.831 42.7602 90.2231 41.1799 89.5916C41.1152 89.5603 41.0173 89.513 40.9347 89.5187C40.7371 89.5122 40.5719 89.5236 40.4673 89.74C40.4113 89.9366 40.4896 90.1091 40.6344 90.2247ZM145.548 75.7885C145.398 75.8485 145.247 75.9103 145.13 75.9881C144.962 76.0851 144.908 76.2824 144.967 76.4911C145.045 76.6636 145.174 76.7261 145.325 76.6643C145.607 76.5769 145.873 76.5255 146.172 76.4029C147.406 75.9247 148.671 75.4637 149.905 74.9855C152.073 74.1529 154.257 73.285 156.423 72.4542C157.074 72.1871 157.74 71.9703 158.405 71.7555C160.036 71.2021 161.65 70.6838 163.281 70.1305C165.346 69.4287 167.382 68.5326 169.522 68.0907C169.919 68.0154 170.14 67.8075 170.231 67.4499C169.957 67.2717 169.695 67.234 169.38 67.3053C168.086 67.5766 166.819 68.0369 165.571 68.4628C164.539 68.8582 163.504 69.2546 162.456 69.597C159.612 70.5041 156.781 71.4635 153.949 72.5111C151.114 73.6461 148.347 74.7249 145.548 75.7885ZM71.9925 99.0265C74.0448 100.422 75.9108 102.038 77.5708 103.916C77.6824 104.015 77.777 104.15 77.8911 104.248C78.0359 104.364 78.2181 104.317 78.3704 104.167C78.5227 104.017 78.5108 103.877 78.4332 103.707C78.3233 103.519 78.2134 103.332 78.0524 103.165C77.5107 102.545 76.9179 101.946 76.3413 101.398C74.913 100.037 73.3656 98.8414 71.7485 97.7905C70.5171 97.0174 69.216 96.3885 67.8834 95.7444C66.7943 95.2613 65.7538 94.7584 64.6638 94.2772C62.7105 93.4221 60.7376 92.6921 58.763 91.9613C58.2589 91.7633 57.754 91.5626 57.227 91.4882C56.9979 91.4664 56.8473 91.5283 56.758 91.7977C56.684 92.0312 56.8118 92.1819 57.0076 92.2766C57.0723 92.3079 57.1881 92.3182 57.2529 92.3495C58.4279 92.7395 59.5706 93.1115 60.7277 93.5385C62.0168 94.0269 63.3554 94.4936 64.5901 95.0904C67.0586 96.3748 69.6821 97.4192 71.9925 99.0265ZM106.335 92.9422C106.687 92.7976 107.05 92.7064 107.434 92.577C107.634 92.4953 107.819 92.3614 107.777 92.1175C107.734 91.8729 107.54 91.7791 107.357 91.8256C107.041 91.8962 106.709 92.0027 106.376 92.1111C104.827 92.6606 103.294 93.2613 101.743 93.899C99.3082 94.8695 97.0587 96.2876 94.9821 98.0129C92.634 99.9652 90.4937 102.153 88.5612 104.575C88.083 105.149 87.5716 105.708 87.1896 106.418C87.085 106.634 86.9795 106.852 87.172 107.034C87.3968 107.234 87.5985 107.062 87.7874 106.841C87.9772 106.529 88.1823 106.27 88.406 105.976C90.3912 103.445 92.5033 101.066 94.9689 99.0356C96.8251 97.5164 98.7119 96.1032 100.867 95.1301C102.67 94.3016 104.502 93.6673 106.335 92.9422ZM91.9092 105.611C92.0055 105.747 92.1528 105.773 92.3025 105.713C92.6022 105.588 92.7911 105.367 93.0439 105.174C95.5672 102.859 98.4467 101.298 101.448 100.066C102.099 99.7986 102.782 99.5468 103.4 99.2636C104.821 98.5633 106.302 98.0717 107.751 97.5631C109.4 96.9727 111.031 96.4193 112.632 95.7625C112.883 95.6599 113.215 95.5515 113.11 95.1882C113.02 94.8753 112.723 94.9097 112.441 94.9971C112.39 95.018 112.341 95.0398 112.308 95.0237C110.775 95.6245 109.208 96.2091 107.677 96.7216C105.562 97.4452 103.493 98.3252 101.425 99.2034C100.156 99.7537 98.8516 100.376 97.5808 101.015C95.606 102.029 93.9184 103.45 92.1949 104.855C92.0605 104.968 91.943 105.046 91.8554 105.227C91.8674 105.368 91.8478 105.493 91.9092 105.611ZM43.1048 87.4347C43.2442 87.1462 43.0858 86.9783 42.8568 86.8676C42.6763 86.826 42.4642 86.7692 42.2514 86.7096C40.3765 86.027 38.5015 85.3444 36.675 84.6418C35.1747 84.0947 33.6566 83.5845 32.1035 83.1464C29.911 82.5362 27.6862 81.9971 25.4996 81.2095C24.9121 81.0145 24.3425 80.7825 23.7022 80.6967C23.4391 80.6608 23.1769 80.623 23.0332 81.0008C22.9439 81.2703 23.0717 81.421 23.4803 81.4862C24.1368 81.6232 24.789 81.8495 25.4412 82.0757C26.5524 82.4325 27.6312 82.776 28.7577 83.0968C30.3107 83.5349 31.8995 83.8989 33.4688 84.3882C35.7856 85.152 38.0701 85.987 40.3351 86.8581C41.0537 87.1165 41.7715 87.3721 42.5387 87.6106C42.749 87.7556 42.9644 87.7251 43.1048 87.4347Z" fill="#EA6564"/>
</g>
<path d="M28.3558 78.7861C29.9735 79.2555 31.5606 79.7077 33.1605 80.214C33.7804 80.4224 34.368 80.6173 35.0235 80.7562C35.055 80.7715 35.055 80.7715 35.0882 80.7875C35.4646 80.9238 35.6213 81.1798 35.5483 81.4114C35.4759 81.6458 35.1789 81.6801 34.7846 81.5809C32.9225 81.0368 31.0911 80.5098 29.245 79.9324C27.4315 79.3685 25.6162 78.8927 23.7652 78.4909C22.8976 78.2951 21.9951 78.1715 21.1096 78.0128C20.8474 77.975 20.6456 78.0578 20.5061 78.3463C19.8077 79.7109 19.3043 81.1676 18.6382 82.5456C18.5157 82.799 18.5609 82.9554 18.8377 83.0436C19.9131 83.4744 20.9715 83.9403 22.0639 84.336C23.9867 85.085 25.86 85.8558 27.7834 86.6076C29.0215 87.117 30.2774 87.5894 31.547 88.1141C33.1598 88.7589 34.8236 89.3829 36.4371 90.0304C38.0498 90.6753 39.7137 91.2992 41.3255 91.9459C41.994 92.2234 42.6113 92.5218 43.2967 92.7641C44.2589 93.0945 45.2016 93.5501 46.1475 93.9184C47.6308 94.5007 49.1457 95.0982 50.629 95.6806C51.2965 95.9599 51.9318 96.2213 52.6172 96.4636C54.2478 97.0714 55.858 97.8064 57.5218 98.4303C59.4453 99.182 61.3365 99.9158 63.2404 100.704C64.4462 101.195 65.6697 101.654 66.8754 102.146C68.7657 102.881 70.6237 103.599 72.4961 104.372C73.5077 104.77 74.5201 105.081 75.5138 105.516C76.7834 106.04 77.7586 107.093 78.8035 108.002C79.8494 108.91 80.8229 109.962 81.9538 110.778C83.0993 111.644 84.3569 112.028 85.8713 111.551C87.2341 111.137 88.4879 110.534 89.619 109.604C90.0913 109.207 90.5645 108.809 91.0053 108.396C92.139 107.377 93.3799 106.635 94.764 106.097C99.1503 104.324 103.554 102.514 107.988 100.81C110.221 99.9205 112.457 99.0317 114.69 98.1421C118.075 96.782 121.46 95.4199 124.878 94.074C127.696 92.976 130.465 91.809 133.283 90.7092C136.15 89.5895 139.019 88.3816 141.87 87.2978C144.669 86.2342 147.457 85.0328 150.274 83.9322C153.074 82.8694 155.86 81.6672 158.678 80.5674C161.477 79.5038 164.265 78.3024 167.082 77.2018C168.565 76.6229 170.05 76.0421 171.501 75.4452C171.7 75.3635 171.919 75.2456 172.119 75.1621C171.857 73.963 171.645 72.7423 171.282 71.5814C171.111 71.8566 170.845 71.9062 170.595 72.0089C167.33 73.2057 163.962 73.9483 160.742 75.3016C159.274 75.9336 157.778 76.374 156.295 76.8666C155.913 76.9949 155.683 76.9723 155.659 76.6915C155.603 76.3065 155.887 76.2199 156.137 76.1172C157.07 75.7627 157.985 75.4451 158.951 75.1066C159.818 74.809 160.665 74.5475 161.515 74.1987C163.517 73.3774 165.562 72.7982 167.624 72.1837C168.421 71.944 169.237 71.6673 170.07 71.3537C170.469 71.1884 170.87 71.0239 171.293 71.2285C171.144 70.1272 170.811 69.0716 170.579 67.976C170.551 67.7826 170.543 67.5548 170.364 67.425C170.424 67.0503 170.284 66.7591 170.213 66.4118C169.751 64.7122 168.438 63.9429 166.777 64.3928C165.814 64.6439 164.848 64.9824 163.9 65.2839C163.822 65.6938 163.569 65.8838 163.169 66.0491C160.119 67.2146 157.101 68.3961 154.052 69.5624C151.183 70.6813 148.316 71.801 145.416 72.9046C142.617 73.9682 139.85 75.0471 137.033 76.1451C134.134 77.2495 131.248 78.4054 128.349 79.5099C125.582 80.5887 122.815 81.6676 120.065 82.7094C117.147 83.8501 114.247 84.9538 111.329 86.0944C108.513 87.1932 105.662 88.2769 102.846 89.3757C101.08 90.0439 99.3577 90.8659 97.8078 91.997C94.7106 94.2581 91.8665 96.8218 89.4686 99.9572C88.8849 100.75 88.3353 101.557 87.9142 102.428C87.8793 102.5 87.8445 102.572 87.8266 102.609C87.722 102.825 87.5687 102.977 87.3559 102.918C87.0792 102.83 87.1199 102.58 87.2424 102.327C87.6652 101.367 88.168 100.492 88.7687 99.6645C91.0287 96.7295 93.6226 94.2685 96.5061 92.0387C98.73 90.339 101.141 89.0876 103.72 88.2328C103.819 88.1919 103.92 88.1492 104.019 88.1084C106.487 87.1539 108.971 86.1617 111.437 85.2064C114.255 84.1066 117.104 83.0239 119.923 81.9241C122.739 80.8254 125.589 79.7434 128.406 78.6428C131.306 77.5392 134.191 76.3825 137.091 75.2788C139.909 74.1808 142.707 73.1172 145.526 72.0174C148.393 70.8977 151.26 69.778 154.16 68.6744C156.96 67.6115 159.728 66.5327 162.543 65.4339C163.143 65.1878 163.143 65.1878 163.064 64.5219C162.737 62.1277 162.396 59.6812 162.039 57.2699C161.973 56.6562 161.908 56.625 161.328 56.7486C160.382 56.9619 159.468 57.1913 158.523 57.4054C154.272 58.4835 150.039 59.5246 145.772 60.6387C143.114 61.3229 140.52 62.1274 137.923 63.0193C135.294 63.8959 132.709 64.9282 130.122 66.0487C128.335 66.8412 126.644 67.7693 124.905 68.6292C122.849 69.6477 120.806 70.7186 118.83 71.8214C113.855 74.5622 109.023 77.5068 104.457 80.9815C102.213 82.7174 100.114 84.6553 98.1258 86.6927C95.988 88.879 93.8648 91.0313 91.8369 93.3164C90.4405 94.8799 89.1395 96.5762 88.0795 98.4346C87.4201 99.5489 86.777 100.714 86.1849 101.859C85.8531 102.461 85.5886 103.093 85.4203 103.771C85.348 104.005 85.2604 104.187 85.045 104.217C84.7794 104.267 84.6201 104.101 84.6796 103.728C84.7628 103.141 85.0256 102.597 85.2237 102.022C85.3309 101.715 85.4866 101.478 85.6269 101.188C84.7698 99.4749 83.7263 97.8981 82.7517 96.2633C80.3636 92.2455 77.4838 88.6607 73.9086 85.769C73.6983 85.624 73.5066 85.4401 73.2614 85.3672C73.2511 85.1386 73.0536 85.1321 72.9225 85.0687C72.9498 85.2622 73.1124 85.3408 73.2614 85.3672C73.2734 85.5076 73.3713 85.5549 73.4181 85.6232C76.5601 88.6615 78.8602 92.3699 80.585 96.5145C81.3256 98.3031 81.9155 100.154 82.1045 102.168C82.1139 102.399 82.1557 102.643 82.0843 102.875C82.0452 103.036 81.9618 103.129 81.8112 103.19C81.6273 103.236 81.5148 103.138 81.4381 102.967C81.4092 102.861 81.3777 102.757 81.3657 102.617C81.2019 99.7196 80.0881 97.2121 78.9055 94.7626C77.2244 91.3533 75.1697 88.3021 72.4068 85.8052C72.2484 85.6374 72.1028 85.5236 71.9418 85.3568C71.8149 85.2042 71.6377 85.0753 71.7602 84.8219C71.8674 84.5154 72.099 84.5361 72.328 84.5578C72.2803 84.4914 72.265 84.4383 72.2003 84.407C70.3923 83.086 68.5673 81.8 66.7066 80.588C64.9907 79.4917 63.2586 78.4286 61.5257 77.3674C59.7612 76.2909 57.9925 75.3037 56.1915 74.2986C54.4884 73.3408 52.736 72.4048 51.0159 71.4821C49.7181 70.7659 48.3523 70.1057 47.0034 69.4104C42.6181 67.1995 38.1638 65.0466 33.6551 63.0909C32.9551 62.7982 32.222 62.4895 31.505 62.232C31.1618 62.1118 30.8034 61.9385 30.3905 61.9625C32.536 64.161 34.6644 66.3991 36.809 68.5993C39.0013 70.866 41.1758 73.1698 43.3689 75.4391C45.8005 77.9561 48.2007 80.4579 50.634 82.9757C50.8734 83.226 51.1671 83.368 51.443 83.458C52.9621 83.9663 54.4445 84.5505 55.9609 85.1489C57.5405 85.7777 59.1566 86.3352 60.7727 86.8927C61.4249 87.119 62.0423 87.4174 62.6954 87.6418C63.9504 88.116 65.1698 88.7488 66.3883 89.2944C67.8547 89.9118 69.2146 90.7494 70.5609 91.5347C71.9702 92.3505 73.2613 93.3305 74.4987 94.4215C76.4584 96.1742 78.047 98.2837 79.3957 100.636C79.4247 100.741 79.5056 100.823 79.5354 100.927C79.5806 101.083 79.5611 101.208 79.4257 101.323C79.2896 101.435 79.1585 101.461 78.9958 101.382C78.817 101.253 78.7071 101.065 78.5972 100.877C77.5774 99.0858 76.3891 97.4824 74.9957 96.0491C73.65 94.6822 72.1358 93.503 70.5008 92.4892C68.9442 91.5588 67.4216 90.6426 65.762 89.9295C63.7746 89.0601 61.7914 88.1016 59.7189 87.4125C58.4792 86.9912 57.2913 86.4627 56.0669 86.0055C54.3214 85.3855 52.5971 84.641 50.8336 84.0579C50.1798 83.8309 49.5445 83.5695 48.9102 83.3062C47.4779 82.703 46.0415 82.1889 44.6059 81.673C43.4811 81.264 42.3725 80.8171 41.2476 80.4081C40.1211 79.9982 38.9963 79.5892 37.8545 79.2153C37.267 79.0203 36.7459 78.7684 36.1575 78.5753C34.1029 77.8492 32.0636 77.0872 29.9902 76.3999C28.0983 75.7524 26.1842 75.2311 24.2362 74.7801C23.5482 74.6279 22.9651 74.8389 22.4579 75.308C21.966 75.7411 21.6359 76.3436 21.305 76.9435C21.695 77.132 22.09 77.145 22.468 77.193C24.3838 77.6261 26.3779 78.2317 28.3558 78.7861ZM145.13 75.988C145.247 75.9102 145.398 75.8484 145.548 75.7884C148.347 74.7248 151.114 73.646 153.914 72.5831C156.715 71.5203 159.544 70.5601 162.421 69.669C163.469 69.3267 164.503 68.9321 165.536 68.5348C166.801 68.0738 168.051 67.6487 169.344 67.3792C169.659 67.3078 169.922 67.3437 170.196 67.5219C170.087 67.9165 169.884 68.0875 169.487 68.1627C167.346 68.6065 165.343 69.5159 163.246 70.2025C161.615 70.7559 160.001 71.2741 158.37 71.8275C157.704 72.0442 157.04 72.2591 156.388 72.5262C154.222 73.3571 152.037 74.2267 149.871 75.0576C148.636 75.5357 147.371 75.9968 146.137 76.4749C145.855 76.5623 145.572 76.649 145.29 76.7364C145.106 76.7821 144.977 76.7196 144.932 76.5631C144.875 76.2662 144.962 76.085 145.13 75.988ZM107.727 96.7024C109.275 96.1521 110.824 95.6026 112.359 95.0027C112.408 94.9809 112.458 94.9618 112.49 94.9771C112.773 94.8905 113.071 94.8542 113.162 95.1671C113.266 95.5304 112.934 95.6388 112.683 95.7415C111.049 96.3822 109.433 96.9886 107.802 97.5439C106.353 98.0507 104.855 98.5793 103.451 99.2425C102.815 99.5627 102.149 99.7768 101.499 100.045C98.4952 101.278 95.6157 102.839 93.0941 105.155C92.8737 105.361 92.6533 105.567 92.3536 105.692C92.2029 105.753 92.0549 105.725 91.9603 105.59C91.8657 105.456 91.9184 105.347 91.955 105.186C92.0256 105.04 92.1601 104.927 92.2954 104.812C93.9848 103.393 95.7056 101.988 97.6803 100.974C98.9512 100.335 100.207 99.7326 101.524 99.1624C103.543 98.3033 105.614 97.4241 107.727 96.7024ZM87.1564 106.401C87.5231 105.728 88.066 105.184 88.528 104.559C90.4605 102.136 92.6008 99.9491 94.9489 97.9968C97.0255 96.2714 99.275 94.8533 101.709 93.8829C103.243 93.2822 104.778 92.6804 106.344 92.0957C106.677 91.9874 107.009 91.8808 107.324 91.8095C107.54 91.779 107.702 91.8576 107.744 92.1014C107.788 92.346 107.634 92.4952 107.401 92.5609C107.019 92.691 106.654 92.7815 106.303 92.9268C104.469 93.6512 102.638 94.2862 100.801 95.0979C98.6472 96.0718 96.7773 97.4498 94.9025 99.0034C92.4386 101.034 90.3265 103.413 88.3396 105.944C88.1175 106.238 87.9124 106.498 87.721 106.809C87.567 107.047 87.3636 107.218 87.1073 107.003C86.9463 106.836 87.0688 106.583 87.1564 106.401ZM57.1921 91.5602C57.7182 91.6365 58.224 91.8353 58.7281 92.0334C60.7197 92.729 62.7071 93.5093 64.6289 94.3492C65.7189 94.8304 66.7594 95.3334 67.8485 95.8164C69.1675 96.4083 70.5001 97.0524 71.7136 97.8626C73.3623 98.9287 74.8782 100.109 76.3064 101.47C76.9162 102.034 77.4758 102.617 78.0175 103.237C78.1785 103.404 78.2884 103.591 78.3983 103.779C78.4613 103.899 78.4879 104.089 78.3355 104.239C78.1832 104.389 78.001 104.436 77.8553 104.322C77.7421 104.222 77.6475 104.087 77.536 103.988C75.8751 102.112 73.9921 100.531 71.9576 99.0986C69.6472 97.4913 67.0238 96.4469 64.4879 95.2212C63.2516 94.6236 61.9139 94.155 60.6264 93.6674C59.4684 93.2423 58.3249 92.8676 57.149 92.4795C57.0843 92.4482 56.9694 92.436 56.9047 92.4047C56.7105 92.3109 56.5649 92.1971 56.655 91.9258C56.763 91.622 56.9631 91.5385 57.1921 91.5602ZM46.0716 91.4196C47.2297 91.8447 48.3894 92.1816 49.5158 92.5915C50.7377 93.0497 52.0285 93.45 53.2861 93.8343C54.3973 94.1911 55.4744 94.5337 56.5856 94.8905C58.2186 95.4129 59.8875 95.8612 61.467 96.4901C62.4445 96.8736 63.4399 97.22 64.3212 97.557C64.6133 97.6982 64.8406 97.8081 65.0364 97.9027C65.1991 97.9813 65.3447 98.0951 65.2708 98.3286C65.1985 98.5629 64.9976 98.6438 64.7856 98.5869C64.5549 98.5644 64.3105 98.4897 64.1164 98.3958C62.1289 97.5265 60.0743 96.8004 57.9661 96.1853C56.5272 95.7568 55.1239 95.2588 53.7037 94.7959C52.5619 94.422 51.369 94.0691 50.2246 93.6962C49.3271 93.397 48.4144 93.0448 47.5169 92.7457C45.4249 92.0928 43.44 91.2224 41.3675 90.5333C41.1206 90.4596 40.8933 90.3497 40.6838 90.2028C40.539 90.0872 40.4614 89.9173 40.549 89.7361C40.6545 89.5178 40.8188 89.5082 41.0172 89.5129C41.099 89.509 41.1969 89.5563 41.2616 89.5876C42.8096 90.2012 44.424 90.8469 46.0716 91.4196ZM36.658 84.6769C38.5151 85.3965 40.3918 86.0799 42.2335 86.7465C42.4472 86.8042 42.6584 86.8629 42.8389 86.9045C43.0679 87.0152 43.2272 87.1812 43.0869 87.4716C42.9644 87.725 42.749 87.7555 42.537 87.6987C41.8184 87.4403 41.0835 87.2198 40.3334 86.9462C38.0667 86.0742 35.8018 85.2031 33.4645 84.4773C31.8978 83.987 30.309 83.623 28.756 83.1849C27.6278 82.8632 26.5507 82.5206 25.4396 82.1638C24.7873 81.9375 24.1351 81.7113 23.4786 81.5743C23.0691 81.5109 22.9422 81.3583 23.0315 81.0889C23.1735 80.7103 23.4374 80.7489 23.6996 80.7866C24.3399 80.8725 24.9283 81.0656 25.4979 81.2976C27.6513 82.0691 29.8762 82.6083 32.101 83.2364C33.6234 83.5683 35.1747 84.0946 36.658 84.6769ZM149.819 90.5145C146.287 91.8491 142.736 93.2199 139.237 94.5724C134.219 96.487 129.154 98.4223 124.138 100.338C120.704 101.631 117.287 102.977 113.853 104.27C107.803 106.583 101.753 108.893 95.7042 111.204C95.454 111.306 95.2369 111.425 95.0302 111.683C94.1418 112.776 93.0498 113.544 91.9084 114.245C90.413 115.179 88.8305 115.802 87.1637 115.845C85.9615 115.845 84.8632 115.627 83.8957 114.893C82.9922 114.187 82.1754 113.39 81.4607 112.463C80.7776 111.551 79.8894 110.898 79.192 110.515C77.0087 109.64 75.1184 108.905 73.1949 108.153C72.0224 107.677 70.8312 107.236 69.6595 106.759C68.1098 106.145 66.5627 105.529 64.9968 104.953C63.5467 104.386 62.0974 103.818 60.6141 103.236C59.0977 102.637 57.5828 102.04 56.0663 101.442C54.6162 100.875 53.1653 100.306 51.682 99.724C50.2004 99.1425 48.7171 98.5602 47.2653 97.9931C45.782 97.4108 44.2996 96.8267 42.8495 96.2604C40.8289 95.464 38.7896 94.702 36.8031 93.9198C35.3198 93.3374 33.8544 92.7181 32.4026 92.1511C30.3829 91.3528 28.3121 90.5755 26.2914 89.7791C24.2385 88.9649 22.1847 88.1524 20.1318 87.3381C19.8533 87.2492 19.5314 87.0046 19.2728 87.3702C19.015 87.7384 19.405 87.9269 19.5796 88.146C19.6128 88.162 19.6128 88.162 19.646 88.1781C22.3203 90.858 24.9947 93.538 27.6537 96.2538C35.147 103.814 42.6428 111.373 50.171 118.95C53.7107 122.496 57.2333 126.076 60.7551 129.659C61.1086 130.007 61.4637 130.268 61.9039 130.437C63.6972 131.124 65.4401 131.834 67.2155 132.558C68.583 133.13 69.9846 133.716 71.37 134.251C73.5557 135.04 75.7543 135.968 78.0014 136.876C80.1846 137.751 82.3185 138.648 84.5009 139.525C85.4468 139.893 86.4074 140.312 87.3363 140.715C89.6166 141.639 91.9148 142.527 94.1951 143.451C95.9705 144.174 97.7621 144.949 99.5544 145.637C100.434 145.973 101.28 146.382 102.178 146.682C102.799 146.893 103.416 147.191 104 147.473C104.715 147.819 105.226 148.424 105.822 148.936C107.077 149.99 108.489 150.715 110.112 151.009C112.276 151.428 114.338 150.813 116.331 149.675C117.32 149.124 118.199 148.386 119.14 147.765C119.963 147.223 120.834 146.75 121.795 146.589C122.64 146.416 123.489 146.155 124.319 145.929C133.783 143.523 143.198 141.139 152.662 138.734C163.072 136.114 173.467 133.443 183.877 130.823C184.972 130.547 184.989 130.512 184.725 129.398C183.735 125.474 182.712 121.534 181.721 117.612C180.24 111.794 178.742 106.014 177.262 100.199C176.699 98.0466 176.152 95.8584 175.588 93.7081C174.625 89.9748 173.693 86.2595 172.73 82.5263C172.567 81.868 172.452 81.8558 171.852 82.102C169.385 83.0591 166.918 84.0135 164.418 84.9527C159.553 86.8063 154.686 88.6617 149.819 90.5145ZM102.691 146.035C101.174 145.437 99.6775 144.802 98.161 144.204C96.2562 143.418 94.3327 142.666 92.4279 141.88C90.6508 141.156 88.9095 140.446 87.1342 139.723C84.2817 138.568 81.3994 137.398 78.5486 136.244C75.811 135.101 73.0913 134.01 70.3367 132.902C67.6818 131.843 65.0115 130.73 62.3549 129.67C61.8491 129.471 61.4292 129.179 61.0289 128.762C54.3515 122 47.6887 115.288 40.9934 108.563C36.7009 104.25 32.3938 99.8866 28.1004 95.5753C25.9711 93.4281 23.8742 91.2942 21.7254 89.1831C21.5976 89.0324 21.4035 88.9385 21.2952 88.6626C21.7363 88.8302 22.128 88.9305 22.5375 89.0828C24.6867 89.9436 26.8384 90.8034 28.9893 91.665C31.3522 92.5834 33.7313 93.5531 36.0942 94.4716C37.855 95.1447 39.5972 95.8521 41.358 96.5252C43.7541 97.4597 46.1502 98.3942 48.5293 99.3639C50.8922 100.282 53.2883 101.217 55.6333 102.172C57.395 102.844 59.1372 103.551 60.898 104.224C63.2941 105.159 65.6902 106.093 68.0676 107.062C69.8285 107.735 71.5723 108.443 73.3315 109.116C74.8795 109.729 76.4292 110.344 77.9942 110.922C79.3796 111.457 80.4076 112.401 81.2271 113.692C82.7086 116.019 84.276 118.253 85.8255 120.524C90.2339 127.083 94.661 133.609 99.038 140.153C100.318 142.068 101.565 143.969 102.979 145.77C103.074 145.908 103.203 145.97 103.181 146.183C103.049 146.208 102.854 146.114 102.691 146.035ZM171.461 83.0766C172.012 82.8522 172.045 82.8682 172.176 83.4223C172.786 85.7318 173.377 88.0756 173.954 90.3671C174.635 93.0239 175.3 95.7157 175.981 98.3724C177.623 104.848 179.283 111.288 180.958 117.78C181.918 121.6 182.913 125.435 183.873 129.256C183.903 129.359 183.932 129.463 183.962 129.566C184.086 129.895 183.982 130.025 183.667 130.096C182.754 130.326 181.84 130.555 180.927 130.784C168.59 133.906 156.255 137.025 143.951 140.162C136.313 142.106 128.675 144.053 121.054 145.962C119.991 146.253 119.082 146.889 118.174 147.522C117.351 148.065 116.558 148.71 115.655 149.168C112.072 151.105 108.922 150.569 106.124 148.142C105.353 147.5 104.717 146.656 104.097 145.863C101.887 143.052 99.948 140.011 97.9086 137.013C96.216 134.538 94.5421 132.029 92.8665 129.519C89.8806 125.078 86.8932 120.636 83.9227 116.247C83.8596 116.128 83.7285 116.065 83.7693 115.815C85.6503 116.904 87.6783 116.855 89.728 116.101C91.8595 115.342 93.7907 114.083 95.4076 112.313C95.5795 112.127 95.7633 111.992 96.0136 111.89C97.9629 111.177 99.8968 110.412 101.863 109.66C107.029 107.685 112.247 105.687 117.414 103.71C120.813 102.4 124.247 101.107 127.646 99.7972C132.631 97.8666 137.63 95.9863 142.615 94.0557C146.146 92.7211 149.696 91.3495 153.196 89.9997C158.164 88.1042 163.097 86.1945 168.046 84.3352C169.162 83.9349 170.295 83.4986 171.461 83.0766Z" fill="#F7E1CA"/>
<mask id="mask2_1_35" style="mask-type:luminance" maskUnits="userSpaceOnUse" x="4" y="13" width="207" height="171">
<path d="M166.28 183.159L4.07848 104.761L48.2502 13.3722L210.452 91.7709L166.28 183.159Z" fill="white"/>
</mask>
<g mask="url(#mask2_1_35)">
<path d="M14.3764 84.5563C14.4846 84.8322 14.7239 85.0825 14.4993 85.4668C14.5786 85.5485 14.6586 85.6328 14.7054 85.7011C28.5584 99.6894 42.4114 113.678 56.2464 127.703C57.5768 129.017 58.8739 130.315 60.1864 131.665C60.4247 131.422 60.7048 131.423 60.9653 131.549C62.5934 132.247 64.2062 132.892 65.8521 133.553C68.1324 134.477 70.4305 135.364 72.7117 136.286C73.4125 136.582 74.1456 136.891 74.8626 137.148C76.5911 137.803 78.2992 138.586 80.0593 139.256C82.1454 140.086 84.2298 140.916 86.299 141.781C87.6018 142.322 88.9224 142.826 90.2261 143.365C92.3105 144.194 94.3465 145.044 96.4326 145.874C98.4038 146.692 100.377 147.422 102.33 148.277C102.655 148.434 103.015 148.517 103.357 148.639C105.281 149.389 106.876 150.652 108.351 152.082C108.849 152.546 109.296 153.031 109.81 153.458C110.97 154.465 112.378 154.788 113.858 154.878C116.111 155.027 118.126 154.344 119.968 152.775C121.521 151.467 123.208 150.717 125.084 150.237C133.32 148.132 141.525 146.012 149.778 143.872C159.972 141.283 170.152 138.642 180.364 136.016C181.875 135.629 183.386 135.239 184.915 134.816C185.28 134.723 185.679 134.647 185.846 135.131C187.024 134.85 188.2 134.658 189.32 134.081C190.073 133.683 190.439 133.011 190.365 132.17C190.309 131.785 190.255 131.401 190.168 131C186.922 117.306 183.624 103.632 180.346 89.922C179.45 86.1327 178.535 82.3796 177.622 78.6273C177.224 78.7043 177.034 78.4323 176.912 78.106C176.718 77.4306 176.574 76.7334 176.328 76.0781C176.235 75.8553 176.176 75.6466 176.066 75.4588C175.91 75.1165 175.651 74.9914 175.288 74.9936C174.728 74.9921 174.196 75.1822 173.695 75.3875C171.61 76.2145 169.541 77.0945 167.457 77.9196C161.537 80.2948 155.636 82.6312 149.715 85.0064C144.164 87.1993 138.644 89.4073 133.074 91.6372C127.354 93.9288 121.602 96.2052 115.883 98.495C110.331 100.69 104.812 102.899 99.2426 105.128C97.9087 105.647 96.5748 106.166 95.2742 106.702C93.7225 107.337 92.2814 108.162 91.01 109.382C89.6875 110.623 88.2278 111.572 86.579 112.162C85.5132 112.542 84.4662 112.798 83.4027 112.507C82.553 112.274 81.8257 111.788 81.1333 111.23C79.7954 110.182 78.6277 108.946 77.3255 107.824C76.3922 107.015 75.3728 106.388 74.1969 105.999C73.4613 105.776 72.8294 105.427 72.1108 105.169C70.4163 104.528 68.8053 103.795 67.1108 103.154C64.9906 102.309 62.8236 101.486 60.7059 100.64C59.1247 100.01 57.5298 99.3286 55.9486 98.6989C53.8301 97.8552 51.7261 97.0619 49.6084 96.2163C48.94 95.9389 48.2724 95.6596 47.5878 95.4199C45.9564 94.8094 44.3785 94.0924 42.7488 93.4827C40.695 92.6702 38.591 91.8769 36.538 91.0626C35.8713 90.786 35.2037 90.5067 34.5183 90.2644C32.9192 89.6717 31.3244 88.9898 29.761 88.3232C27.8877 87.5524 25.9965 86.8186 24.0747 86.0677C22.1844 85.332 20.3427 84.5764 18.4515 83.8426C17.7661 83.6003 17.1172 83.2867 16.379 83.1535C16.0521 83.0844 15.7566 83.0306 15.4085 83.086C14.5528 83.0306 14.1045 83.7084 14.3764 84.5563ZM19.2429 87.2668C19.5008 86.8985 19.8235 87.1458 20.1019 87.2347C22.1548 88.049 24.207 88.8606 26.2599 89.6749C28.2822 90.4721 30.353 91.2494 32.3728 92.0476C33.8561 92.6299 35.3215 93.2492 36.7716 93.8155C38.7939 94.6127 40.8315 95.3739 42.8197 96.1569C44.303 96.7393 45.7863 97.3216 47.2355 97.8897C48.7188 98.472 50.2021 99.0543 51.6522 99.6206C53.104 100.188 54.5541 100.754 56.0365 101.338C57.5513 101.936 59.0678 102.534 60.5826 103.132C62.0344 103.699 63.4845 104.265 64.9669 104.849C66.5149 105.463 68.063 106.076 69.628 106.655C70.8022 107.131 71.9934 107.572 73.1651 108.049C75.0886 108.801 76.9934 109.587 79.1621 110.412C79.8927 110.811 80.7477 111.447 81.4292 112.359C82.1448 113.284 82.9129 114.105 83.8642 114.788C84.8334 115.524 85.9453 115.794 87.1338 115.741C88.8331 115.711 90.3832 115.076 91.8786 114.142C93.0183 113.44 94.0966 112.619 95.0003 111.58C95.1884 111.356 95.4072 111.238 95.6744 111.1C101.723 108.79 107.775 106.478 113.823 104.167C117.255 102.873 120.674 101.527 124.106 100.233C129.124 98.3188 134.19 96.3817 139.206 94.4663C142.739 93.1325 146.289 91.7609 149.789 90.4111C154.656 88.5556 159.523 86.7028 164.388 84.8493C166.856 83.8948 169.356 82.9538 171.822 81.9985C172.422 81.7523 172.52 81.7997 172.7 82.4228C173.664 86.1561 174.595 89.8714 175.557 93.6038C176.122 95.755 176.669 97.9431 177.232 100.095C178.713 105.911 180.21 111.691 181.69 117.506C182.682 121.431 183.705 125.371 184.695 129.295C184.977 130.371 184.942 130.444 183.847 130.72C173.438 133.339 163.042 136.011 152.631 138.63C143.167 141.035 133.753 143.42 124.289 145.825C123.458 146.049 122.61 146.312 121.765 146.485C120.787 146.683 119.933 147.12 119.11 147.662C118.168 148.281 117.291 149.019 116.302 149.57C114.308 150.71 112.264 151.287 110.083 150.904C108.459 150.612 107.046 149.885 105.791 148.83C105.197 148.319 104.686 147.716 103.97 147.37C103.386 147.088 102.769 146.789 102.148 146.578C101.251 146.279 100.404 145.87 99.5246 145.534C97.7322 144.845 95.9415 144.069 94.1661 143.345C91.885 142.423 89.5851 141.535 87.3048 140.611C86.3605 140.243 85.4 139.825 84.471 139.421C82.2887 138.545 80.1548 137.648 77.9724 136.771C75.756 135.88 73.5259 134.937 71.3103 134.044C69.9233 133.508 68.5242 132.921 67.1567 132.349C65.3797 131.625 63.6375 130.917 61.8434 130.228C61.404 130.061 61.0157 129.785 60.6963 129.45C57.1736 125.869 53.634 122.324 50.1105 118.741C42.6163 111.182 35.1214 103.621 27.5923 96.0462C24.918 93.3662 22.2436 90.6863 19.5855 87.9685C19.554 87.9533 19.554 87.9533 19.5208 87.9373C19.3436 87.8083 18.9851 87.635 19.2429 87.2668ZM83.7378 115.8C85.6172 116.888 87.6467 116.84 89.6948 116.085C91.8263 115.326 93.7592 114.067 95.3761 112.298C95.5463 112.111 95.7318 111.977 95.9821 111.874C97.9297 111.161 99.8636 110.396 101.832 109.645C106.998 107.67 112.214 105.671 117.381 103.694C120.782 102.385 124.214 101.091 127.614 99.7819C132.597 97.8505 137.597 95.9702 142.581 94.0396C146.113 92.705 149.664 91.3342 153.165 89.9844C158.131 88.0881 163.064 86.1784 168.014 84.3199C169.147 83.8818 170.281 83.4464 171.446 83.0262C171.996 82.7991 172.029 82.8151 172.162 83.3719C172.77 85.6787 173.363 88.0233 173.939 90.3141C174.62 92.9708 175.284 95.6626 175.966 98.3194C177.608 104.795 179.267 111.235 180.943 117.727C181.903 121.547 182.896 125.384 183.857 129.203C183.887 129.306 183.918 129.412 183.948 129.516C184.07 129.844 183.967 129.972 183.652 130.043C182.738 130.273 181.827 130.503 180.913 130.732C168.577 133.853 156.241 136.972 143.936 140.109C136.298 142.055 128.66 143.999 121.04 145.909C119.976 146.2 119.067 146.836 118.16 147.472C117.336 148.012 116.543 148.657 115.639 149.117C112.055 151.054 108.907 150.516 106.11 148.089C105.337 147.449 104.703 146.604 104.082 145.813C101.872 142.999 99.9327 139.958 97.8933 136.96C96.2024 134.486 94.5268 131.976 92.8528 129.467C89.8654 125.025 86.8786 120.585 83.9074 116.194C83.8265 116.112 83.7149 116.012 83.7378 115.8ZM21.7433 89.1461C21.6155 88.9954 21.4214 88.9015 21.3131 88.6256C21.7542 88.7932 22.1459 88.8935 22.5545 89.0476C24.7046 89.9066 26.8554 90.7682 29.0072 91.628C31.3701 92.5464 33.7483 93.5179 36.1112 94.4364C37.8729 95.1077 39.6151 95.8151 41.3759 96.4882C43.772 97.4227 46.1681 98.3572 48.5472 99.3269C50.9101 100.245 53.3062 101.18 55.6512 102.135C57.412 102.808 59.1542 103.516 60.9159 104.187C63.312 105.122 65.7081 106.056 68.0846 107.027C69.8464 107.698 71.5902 108.406 73.3494 109.079C74.8974 109.692 76.4471 110.307 78.0121 110.885C79.3975 111.42 80.4255 112.364 81.245 113.655C82.7265 115.982 84.2939 118.216 85.8434 120.487C90.2518 127.046 94.6789 133.572 99.0558 140.116C100.335 142.033 101.582 143.934 102.996 145.735C103.092 145.871 103.221 145.933 103.198 146.146C102.966 146.211 102.82 146.098 102.641 146.054C101.126 145.457 99.6274 144.821 98.1125 144.224C96.206 143.437 94.2833 142.688 92.3777 141.899C90.6023 141.176 88.8585 140.467 87.0831 139.744C84.2323 138.59 81.3483 137.419 78.4975 136.265C75.811 135.101 73.0913 134.01 70.3368 132.902C67.6818 131.843 65.0115 130.73 62.3549 129.67C61.8491 129.471 61.4292 129.179 61.0289 128.762C54.3515 122 47.6887 115.288 40.9935 108.563C36.7009 104.25 32.3938 99.8866 28.1004 95.5753C25.9711 93.428 23.8742 91.2942 21.7433 89.1461Z" fill="#5272A5"/>
</g>
</g>
<defs>
<clipPath id="clip0_1_35">
<rect width="184.827" height="116.207" fill="white" transform="translate(166.838 185.058) rotate(-154.204)"/>
</clipPath>
</defs>
</svg>
