<svg width="126" height="102" viewBox="0 0 126 102" fill="none" xmlns="http://www.w3.org/2000/svg">
<g clip-path="url(#clip0_1_8)">
<path d="M13.1249 60.4583C13.1712 60.5706 13.2319 60.677 13.3017 60.775C13.3728 60.873 13.4539 60.9596 13.5398 61.0309C13.627 61.1035 13.7188 61.1594 13.8134 61.1928L56.9512 76.9359C57.0148 76.9591 57.0792 76.9911 57.1457 77.0318C57.2135 77.0723 57.2823 77.1231 57.3534 77.1841C57.4256 77.2434 57.5002 77.3144 57.5772 77.3969C57.6554 77.4793 57.7359 77.5719 57.8204 77.6789C57.945 77.8366 58.0759 78.0203 58.2095 78.2304C58.3417 78.4392 58.4789 78.6726 58.6146 78.9284C58.7513 79.1826 58.8879 79.459 59.0225 79.7534C59.1572 80.0493 59.2899 80.3616 59.4192 80.6906C59.5486 81.0196 59.6734 81.3653 59.793 81.722C59.9139 82.0785 60.0273 82.4475 60.1356 82.8275C60.2437 83.206 60.3455 83.5955 60.4379 83.9919C60.5316 84.3882 60.616 84.7913 60.6907 85.1983C60.7919 85.7434 60.871 86.267 60.9278 86.7676C60.9856 87.2667 61.0225 87.7442 61.0388 88.1897C61.055 88.6352 61.0522 89.0531 61.0294 89.433C61.0079 89.8142 60.9665 90.1589 60.9085 90.4624C60.8801 90.6148 60.8469 90.7558 60.81 90.8854C60.7733 91.0165 60.7328 91.1346 60.6887 91.2427C60.6447 91.3508 60.597 91.4474 60.5469 91.5324C60.4979 91.6158 60.4453 91.6892 60.3915 91.7494C60.3814 91.7608 60.3711 91.7707 60.3609 91.7807L60.3314 91.8103C60.3212 91.8202 60.3108 91.8286 60.3017 91.837C60.2913 91.8454 60.2809 91.8539 60.2705 91.8623C76.9281 78.7877 93.5835 65.7149 110.241 52.6418C110.249 52.635 110.257 52.6283 110.267 52.6214L110.292 52.5967C110.3 52.5885 110.309 52.5802 110.316 52.5705L110.341 52.5428C110.386 52.488 110.427 52.4201 110.464 52.3394C110.502 52.2586 110.535 52.1664 110.565 52.0598C110.594 51.9547 110.62 51.8381 110.64 51.7086C110.66 51.5794 110.676 51.4386 110.685 51.2851C110.707 50.9794 110.706 50.6285 110.684 50.2383C110.662 49.8482 110.619 49.4187 110.554 48.9559C110.487 48.4933 110.399 47.9972 110.289 47.4723C110.179 46.9475 110.046 46.3968 109.89 45.8231C109.774 45.3921 109.649 44.965 109.517 44.543C109.385 44.121 109.246 43.7056 109.103 43.2996C108.958 42.8951 108.809 42.497 108.656 42.1127C108.503 41.7283 108.346 41.3563 108.187 40.9991C108.029 40.6405 107.87 40.3012 107.71 39.9783C107.55 39.6554 107.391 39.3516 107.233 39.0698C107.076 38.7881 106.922 38.5283 106.773 38.293C106.625 38.0593 106.48 37.8503 106.344 37.67C106.253 37.5489 106.166 37.4407 106.084 37.3453C106.002 37.2499 105.924 37.166 105.849 37.0936C105.776 37.0211 105.704 36.9602 105.637 36.9078C105.569 36.8554 105.505 36.8144 105.443 36.7807L62.4189 14.0477C62.3238 13.9966 62.2291 13.9247 62.1367 13.8378C62.0453 13.7493 61.9588 13.647 61.8801 13.535C61.8014 13.423 61.7304 13.3013 61.6743 13.1782C61.6183 13.0565 61.5744 12.9306 61.5497 12.8102C61.5375 12.7507 61.5293 12.6938 61.5264 12.6408C61.5249 12.5891 61.5264 12.5416 61.5332 12.498C61.5402 12.4558 61.5513 12.4177 61.5666 12.3835C61.5821 12.3509 61.6017 12.3223 61.6243 12.2992L13.1622 59.6031C13.1361 59.6294 13.113 59.6599 13.0929 59.696C13.0739 59.7305 13.0578 59.7691 13.0473 59.8131C13.0354 59.8558 13.029 59.9038 13.0253 59.9545C13.023 60.0051 13.0247 60.0597 13.0317 60.1167C13.0457 60.2308 13.0775 60.3475 13.1249 60.4583Z" fill="#5272A5"/>
<mask id="mask0_1_8" style="mask-type:luminance" maskUnits="userSpaceOnUse" x="8" y="7" width="108" height="92">
<path d="M115.752 88.2808L16.7256 98.2726L8.56262 17.3717L107.589 7.37992L115.752 88.2808Z" fill="white"/>
</mask>
<g mask="url(#mask0_1_8)">
<path d="M13.125 60.4577C13.1713 60.57 13.232 60.6764 13.3018 60.7745C13.3729 60.8725 13.4541 60.9591 13.5399 61.0303C13.6272 61.103 13.719 61.1589 13.8135 61.1923L56.9513 76.9354C57.0149 76.9586 57.0793 76.9906 57.1458 77.0313C57.2136 77.0718 57.2824 77.1226 57.3535 77.1836C57.4257 77.2429 57.5003 77.3138 57.5773 77.3964C57.6555 77.4788 57.736 77.5714 57.8205 77.6784C57.9451 77.8361 58.076 78.0198 58.2096 78.2299C58.3418 78.4387 58.479 78.6721 58.6147 78.9279C58.7514 79.1821 58.888 79.4585 59.0226 79.7529C59.1573 80.0488 59.29 80.3611 59.4193 80.6901C59.5487 81.0191 59.6735 81.3648 59.7931 81.7215C59.914 82.078 60.0274 82.447 60.1357 82.827C60.2438 83.2055 60.3456 83.595 60.438 83.9914C60.5317 84.3877 60.6161 84.7908 60.6908 85.1978C60.792 85.7429 60.8711 86.2665 60.9279 86.7671C60.9857 87.2662 61.0227 87.7437 61.0389 88.1892C61.0551 88.6348 61.0523 89.0526 61.0295 89.4325C61.008 89.8137 60.9666 90.1584 60.9086 90.4619C60.8802 90.6143 60.847 90.7554 60.8101 90.8849C60.7734 91.016 60.7329 91.1341 60.6888 91.2422C60.6448 91.3503 60.5971 91.4469 60.547 91.5319C60.498 91.6153 60.4454 91.6887 60.3916 91.7489C60.3815 91.7603 60.3713 91.7702 60.361 91.7802L60.3315 91.8098C60.3213 91.8197 60.3109 91.8282 60.3018 91.8365C60.2914 91.8449 60.281 91.8534 60.2706 91.8618C76.9282 78.7872 93.5835 65.7144 110.241 52.6413C110.249 52.6345 110.257 52.6278 110.267 52.6209L110.292 52.5962C110.3 52.588 110.309 52.5797 110.317 52.57L110.341 52.5423C110.386 52.4875 110.427 52.4196 110.464 52.3389C110.502 52.2581 110.536 52.1659 110.565 52.0593C110.594 51.9542 110.62 51.8376 110.64 51.7081C110.66 51.5788 110.676 51.4381 110.685 51.2846C110.707 50.9789 110.706 50.628 110.684 50.2378C110.662 49.8477 110.619 49.4182 110.554 48.9554C110.487 48.4928 110.4 47.9967 110.289 47.4718C110.179 46.947 110.046 46.3962 109.89 45.8226C109.775 45.3916 109.649 44.9645 109.517 44.5425C109.385 44.1204 109.246 43.7051 109.103 43.2991C108.958 42.8946 108.809 42.4965 108.656 42.1122C108.503 41.7278 108.346 41.3558 108.187 40.9986C108.029 40.64 107.87 40.3007 107.71 39.9778C107.55 39.6548 107.391 39.3511 107.234 39.0693C107.077 38.7875 106.922 38.5277 106.773 38.2925C106.625 38.0587 106.48 37.8498 106.344 37.6695C106.253 37.5483 106.166 37.4402 106.084 37.3448C106.002 37.2494 105.924 37.1655 105.849 37.0931C105.776 37.0206 105.705 36.9596 105.637 36.9072C105.569 36.8548 105.505 36.8139 105.443 36.7802L62.419 14.0472C62.3239 13.996 62.2292 13.9242 62.1368 13.8372C62.0454 13.7487 61.9589 13.6464 61.8802 13.5344C61.8015 13.4224 61.7305 13.3008 61.6744 13.1776C61.6184 13.0559 61.5745 12.93 61.5498 12.8096C61.5376 12.7502 61.5294 12.6933 61.5265 12.6402C61.525 12.5886 61.5265 12.541 61.5333 12.4974C61.5403 12.4552 61.5514 12.4171 61.5667 12.383C61.5822 12.3503 61.6018 12.3217 61.6244 12.2987L13.1624 59.6026C13.1363 59.6289 13.1131 59.6594 13.0931 59.6954C13.0741 59.7299 13.058 59.7686 13.0474 59.8126C13.0355 59.8552 13.0291 59.9033 13.0255 59.954C13.0231 60.0046 13.0249 60.0592 13.0319 60.1162C13.0459 60.2303 13.0776 60.347 13.125 60.4577Z" stroke="#CE6532" stroke-width="1.21484"/>
</g>
<path d="M66.1011 25.0343C65.957 24.3485 65.7894 23.665 65.603 22.9938C65.4167 22.3226 65.2114 21.6622 64.989 21.0169C64.7678 20.3714 64.5298 19.7454 64.2776 19.1401C64.0255 18.5348 63.7606 17.9515 63.4848 17.3959C63.4035 17.2338 63.3225 17.0747 63.2392 16.9173C63.1571 16.7597 63.0727 16.6039 62.9886 16.451C62.9034 16.2996 62.8182 16.1483 62.731 16.0017C62.6437 15.855 62.5566 15.7098 62.4674 15.5678L104.513 37.6C104.575 37.6337 104.64 37.6745 104.708 37.7269C104.777 37.7791 104.848 37.8401 104.923 37.9125C104.998 37.9864 105.076 38.0703 105.158 38.1656C105.24 38.261 105.327 38.3692 105.419 38.4916C105.556 38.6718 105.7 38.8809 105.85 39.116C105.998 39.3513 106.153 39.6111 106.31 39.8943C106.469 40.1774 106.628 40.4812 106.788 40.8056C106.948 41.13 107.109 41.4721 107.267 41.8307C107.425 42.188 107.582 42.5629 107.735 42.9488C107.887 43.3347 108.036 43.7328 108.181 44.1402C108.324 44.5477 108.463 44.9646 108.594 45.3881C108.727 45.8101 108.851 46.2402 108.967 46.6727C109.122 47.2509 109.254 47.8047 109.363 48.3311C109.472 48.8576 109.56 49.3566 109.625 49.821C109.689 50.2853 109.731 50.7179 109.752 51.1096C109.773 51.5014 109.771 51.854 109.75 52.1612C109.739 52.3147 109.722 52.4571 109.701 52.588C109.681 52.7174 109.655 52.8355 109.625 52.9422C109.594 53.0475 109.56 53.1412 109.522 53.2221C109.484 53.3029 109.442 53.3723 109.398 53.4271C109.351 53.4836 109.303 53.527 109.254 53.5571C109.203 53.5889 109.151 53.6089 109.097 53.6188C109.042 53.6273 108.986 53.6271 108.927 53.6152C108.869 53.6034 108.808 53.5829 108.745 53.5522L66.0546 32.8525C66.1371 32.705 66.2117 32.5405 66.2759 32.3608C66.3402 32.1811 66.3955 31.986 66.443 31.7768C66.4906 31.5677 66.5281 31.3448 66.5591 31.1077C66.589 30.8722 66.6113 30.6227 66.6262 30.3621C66.6447 30.0004 66.6495 29.615 66.6371 29.2075C66.6261 28.8015 66.598 28.3749 66.5554 27.9276C66.5115 27.4804 66.4521 27.0156 66.3772 26.533C66.3009 26.0491 66.2094 25.5505 66.1011 25.0343Z" fill="#3F973E"/>
<path d="M66.1011 25.0343C65.957 24.3485 65.7894 23.665 65.603 22.9938C65.4167 22.3226 65.2114 21.6622 64.989 21.0169C64.7678 20.3714 64.5298 19.7454 64.2776 19.1401C64.0255 18.5348 63.7606 17.9515 63.4848 17.3959C63.4035 17.2338 63.3225 17.0747 63.2392 16.9173C63.1571 16.7597 63.0727 16.6039 62.9886 16.451C62.9034 16.2996 62.8182 16.1483 62.731 16.0017C62.6437 15.855 62.5566 15.7098 62.4674 15.5678L104.513 37.6C104.575 37.6337 104.64 37.6745 104.708 37.7269C104.777 37.7791 104.848 37.8401 104.923 37.9125C104.998 37.9864 105.076 38.0703 105.158 38.1656C105.24 38.261 105.327 38.3692 105.419 38.4916C105.556 38.6718 105.7 38.8809 105.85 39.116C105.998 39.3513 106.153 39.6111 106.31 39.8943C106.469 40.1774 106.628 40.4812 106.788 40.8056C106.948 41.13 107.109 41.4721 107.267 41.8307C107.425 42.188 107.582 42.5629 107.735 42.9488C107.887 43.3347 108.036 43.7328 108.181 44.1402C108.324 44.5477 108.463 44.9646 108.594 45.3881C108.727 45.8101 108.851 46.2402 108.967 46.6727C109.122 47.2509 109.254 47.8047 109.363 48.3311C109.472 48.8576 109.56 49.3566 109.625 49.821C109.689 50.2853 109.731 50.7179 109.752 51.1096C109.773 51.5014 109.771 51.854 109.75 52.1612C109.739 52.3147 109.722 52.4571 109.701 52.588C109.681 52.7174 109.655 52.8355 109.625 52.9422C109.594 53.0475 109.56 53.1412 109.522 53.2221C109.484 53.3029 109.442 53.3723 109.398 53.4271C109.351 53.4836 109.303 53.527 109.254 53.5571C109.203 53.5889 109.151 53.6089 109.097 53.6188C109.042 53.6273 108.986 53.6271 108.927 53.6152C108.869 53.6034 108.808 53.5829 108.745 53.5522L66.0546 32.8525C66.1371 32.705 66.2117 32.5405 66.2759 32.3608C66.3402 32.1811 66.3955 31.986 66.443 31.7768C66.4906 31.5677 66.5281 31.3448 66.5591 31.1077C66.589 30.8722 66.6113 30.6227 66.6262 30.3621C66.6447 30.0004 66.6495 29.615 66.6371 29.2075C66.6261 28.8015 66.598 28.3749 66.5554 27.9276C66.5115 27.4804 66.4521 27.0156 66.3772 26.533C66.3009 26.0491 66.2094 25.5505 66.1011 25.0343Z" fill="#F7E1CA"/>
<path d="M60.9142 91.1502C60.9671 91.1671 61.0182 91.1782 61.0699 91.1834C61.1204 91.1886 61.1703 91.188 61.2206 91.18C61.2698 91.1721 61.3184 91.1583 61.366 91.1357C61.4138 91.1146 61.4609 91.0862 61.5071 91.0489L109.295 53.5278C109.256 53.5584 109.215 53.5833 109.171 53.598C109.128 53.6142 109.084 53.6231 109.038 53.6248C108.992 53.6265 108.945 53.6209 108.895 53.6081C108.846 53.5953 108.796 53.5767 108.745 53.5522L66.0546 32.8526L18.0261 76.8922L60.9142 91.1502Z" fill="#3F973E"/>
<path d="M16.219 60.9012C16.2947 61.0327 16.3694 61.1673 16.4419 61.3037C16.5157 61.4413 16.5885 61.5806 16.659 61.723C16.7296 61.8654 16.7991 62.0094 16.8676 62.1565C17.1007 62.6601 17.3194 63.1933 17.5228 63.7488C17.7249 64.3043 17.9121 64.8851 18.0798 65.4827C18.2477 66.0817 18.3974 66.6989 18.5246 67.3286C18.6532 67.9598 18.7604 68.6019 18.8437 69.2539C18.9055 69.7422 18.9522 70.2172 18.9824 70.6776C19.0138 71.1379 19.0304 71.5864 19.0312 72.0157C19.0321 72.445 19.019 72.8594 18.9902 73.2547C18.9626 73.6499 18.9206 74.0258 18.8653 74.3808C18.8238 74.6382 18.7762 74.8843 18.7213 75.1194C18.6663 75.3544 18.6052 75.5782 18.5353 75.7882C18.4654 75.9995 18.3892 76.1968 18.3042 76.3815C18.219 76.5648 18.1265 76.7371 18.026 76.8923L66.0545 32.8527C66.137 32.7052 66.2116 32.5407 66.2759 32.361C66.3402 32.1812 66.3954 31.9861 66.443 31.777C66.4906 31.5679 66.528 31.3449 66.559 31.1079C66.589 30.8724 66.6112 30.6229 66.6262 30.3622C66.6458 30.0004 66.6494 29.6151 66.6372 29.2092C66.626 28.8016 66.598 28.375 66.5553 27.9277C66.5115 27.4806 66.4521 27.0157 66.3772 26.5332C66.3009 26.0493 66.2093 25.5506 66.1011 25.0344C65.9569 24.3486 65.7893 23.6652 65.603 22.994C65.4166 22.3228 65.2114 21.6624 64.9889 21.017C64.7677 20.3716 64.5297 19.7456 64.2776 19.1403C64.0254 18.5349 63.7605 17.9516 63.4847 17.3961C63.4034 17.234 63.3224 17.0748 63.2391 16.9174C63.157 16.7599 63.0726 16.604 62.9885 16.4511C62.9033 16.2998 62.8181 16.1485 62.7309 16.0018C62.6449 15.855 62.5566 15.7099 62.4673 15.5679L15.9864 60.5145C16.0652 60.6398 16.142 60.7698 16.219 60.9012Z" fill="#F7E1CA"/>
<path d="M15.3051 78.4889C15.353 78.6055 15.4154 78.7162 15.4879 78.8155C15.5603 78.9148 15.6429 79.0027 15.7313 79.0752C15.8197 79.1463 15.915 79.2003 16.0107 79.2321L59.9779 93.5663C60.0928 93.6036 60.2037 93.6265 60.3109 93.6364C60.4168 93.6464 60.5189 93.6435 60.616 93.6278C60.713 93.6121 60.8051 93.5836 60.8922 93.5437C60.9795 93.5052 61.0619 93.4555 61.1381 93.3945C77.8355 80.3796 94.5341 67.3645 111.231 54.3481C111.165 54.4007 111.093 54.4405 111.015 54.4692C110.938 54.4977 110.853 54.5136 110.764 54.5167C110.674 54.5198 110.578 54.5088 110.477 54.4835C110.375 54.4597 110.268 54.4201 110.154 54.365L66.4031 33.1386C66.3058 33.0907 66.2088 33.0205 66.115 32.9323C66.0214 32.8455 65.9308 32.7406 65.8506 32.6258C65.7691 32.5111 65.6978 32.3866 65.6386 32.2578C65.5807 32.1289 65.5351 31.9988 65.5083 31.8697C65.4939 31.8015 65.4862 31.7372 65.4828 31.6783C65.4805 31.6193 65.4839 31.5656 65.4915 31.5175C65.5004 31.4692 65.5135 31.4264 65.531 31.3891C65.5485 31.3518 65.5715 31.3199 65.5977 31.295L15.3611 77.5593C15.3315 77.5875 15.3037 77.6214 15.2813 77.6592C15.259 77.6985 15.2409 77.7417 15.2283 77.7904C15.2145 77.8392 15.2061 77.8918 15.2031 77.9484C15.2002 78.0064 15.2013 78.067 15.2091 78.1314C15.2237 78.2514 15.2571 78.3724 15.3051 78.4889Z" fill="#5272A5"/>
<mask id="mask1_1_8" style="mask-type:luminance" maskUnits="userSpaceOnUse" x="10" y="25" width="106" height="74">
<path d="M115.496 88.7158L16.4697 98.7076L10.0597 35.1804L109.086 25.1886L115.496 88.7158Z" fill="white"/>
</mask>
<g mask="url(#mask1_1_8)">
<path d="M15.0492 78.9237C15.0972 79.0403 15.1596 79.151 15.232 79.2503C15.3045 79.3496 15.387 79.4375 15.4755 79.51C15.5638 79.581 15.6592 79.6351 15.7548 79.6669L59.722 94.0011C59.8369 94.0384 59.9479 94.0613 60.055 94.0712C60.1609 94.0812 60.263 94.0783 60.3601 94.0626C60.4571 94.0469 60.5492 94.0184 60.6363 93.9785C60.7236 93.9401 60.806 93.8903 60.8822 93.8293C77.5796 80.8144 94.2782 67.7993 110.975 54.7829C110.91 54.8355 110.837 54.8753 110.759 54.9039C110.682 54.9324 110.598 54.9484 110.508 54.9515C110.418 54.9546 110.322 54.9436 110.221 54.9183C110.119 54.8945 110.012 54.8549 109.898 54.7998L66.1472 33.5734C66.0499 33.5255 65.9529 33.4553 65.8591 33.367C65.7655 33.2802 65.675 33.1754 65.5947 33.0606C65.5132 32.9459 65.4419 32.8213 65.3827 32.6925C65.3248 32.5636 65.2792 32.4335 65.2524 32.3044C65.238 32.2363 65.2303 32.1719 65.2269 32.113C65.2247 32.054 65.228 32.0004 65.2356 31.9522C65.2445 31.904 65.2576 31.8612 65.2751 31.8239C65.2926 31.7866 65.3156 31.7546 65.3418 31.7298L15.1053 77.9941C15.0756 78.0223 15.0478 78.0562 15.0254 78.094C15.0032 78.1332 14.9851 78.1765 14.9725 78.2252C14.9587 78.274 14.9503 78.3266 14.9472 78.3832C14.9443 78.4412 14.9455 78.5018 14.9532 78.5662C14.9678 78.6861 15.0012 78.8071 15.0492 78.9237Z" stroke="#CE6532" stroke-width="1.21484"/>
</g>
<mask id="mask2_1_8" style="mask-type:luminance" maskUnits="userSpaceOnUse" x="61" y="7" width="52" height="53">
<path d="M112.333 54.397L65.967 59.0753L61.2343 12.1712L107.6 7.49283L112.333 54.397Z" fill="white"/>
</mask>
<g mask="url(#mask2_1_8)">
<path d="M110.154 54.3651L66.4032 33.1387C66.3059 33.0908 66.2089 33.0206 66.1151 32.9324C66.0214 32.8456 65.9309 32.7407 65.8507 32.6259C65.7692 32.5112 65.6979 32.3866 65.6387 32.2579C65.5807 32.129 65.5351 31.9988 65.5084 31.8697C65.4818 31.7421 65.4767 31.6301 65.4886 31.5371C65.5016 31.444 65.5329 31.3698 65.5787 31.3163C65.6246 31.2643 65.6851 31.233 65.7596 31.2284C65.8339 31.2224 65.9208 31.2418 66.0179 31.2882L109.694 52.6643C109.757 52.695 109.818 52.7155 109.875 52.7275C109.934 52.7393 109.99 52.741 110.044 52.7311C110.097 52.7228 110.149 52.7028 110.198 52.6712C110.249 52.6409 110.296 52.5977 110.341 52.5428C110.386 52.4879 110.427 52.42 110.464 52.3393C110.502 52.2585 110.535 52.1663 110.565 52.0597C110.594 51.9546 110.62 51.838 110.639 51.7087C110.66 51.5793 110.676 51.4385 110.685 51.285C110.707 50.9793 110.706 50.6284 110.684 50.2383C110.662 49.8481 110.619 49.4186 110.552 48.956C110.487 48.4932 110.4 47.9971 110.289 47.4722C110.179 46.9474 110.046 46.3967 109.89 45.823C109.773 45.3921 109.649 44.9649 109.517 44.5429C109.385 44.1209 109.246 43.7055 109.101 43.2996C108.958 42.895 108.808 42.4971 108.656 42.1127C108.503 41.7283 108.346 41.3562 108.187 40.9991C108.029 40.6404 107.87 40.3011 107.71 39.9782C107.55 39.6553 107.391 39.3515 107.234 39.0697C107.076 38.788 106.922 38.5282 106.773 38.2929C106.625 38.0592 106.48 37.8502 106.344 37.6699C106.253 37.5488 106.166 37.4406 106.084 37.3452C106.002 37.2498 105.924 37.166 105.849 37.0935C105.776 37.021 105.705 36.9601 105.637 36.9077C105.569 36.8553 105.505 36.8144 105.443 36.7806L62.4189 14.0476C62.3239 13.9965 62.2292 13.9246 62.1368 13.8377C62.0454 13.7492 61.9589 13.6469 61.8802 13.5349C61.8014 13.4229 61.7305 13.3012 61.6743 13.1781C61.6184 13.0564 61.5744 12.9305 61.5498 12.8101C61.5252 12.6897 61.5196 12.5851 61.5334 12.4993C61.546 12.4137 61.5767 12.3469 61.6233 12.3007C61.6687 12.2562 61.73 12.2322 61.8023 12.2309C61.876 12.2308 61.9608 12.2548 62.0559 12.306L105.012 35.1702C105.149 35.2437 105.291 35.3375 105.433 35.4475C105.575 35.5561 105.718 35.6838 105.862 35.8233C106.006 35.9642 106.149 36.1186 106.292 36.2848C106.435 36.4496 106.576 36.6263 106.715 36.8122C106.854 36.9996 106.992 37.1944 107.129 37.3983C107.267 37.6035 107.402 37.8149 107.535 38.0369C107.67 38.2572 107.801 38.4853 107.932 38.7194C108.064 38.9549 108.194 39.1979 108.322 39.4471C108.578 39.9439 108.828 40.4695 109.071 41.0151C109.314 41.5605 109.549 42.1291 109.773 42.7122C109.998 43.2965 110.212 43.8983 110.412 44.5088C110.613 45.1209 110.8 45.7445 110.972 46.3728C111.1 46.8455 111.215 47.3033 111.316 47.7462C111.417 48.1906 111.505 48.62 111.579 49.0301C111.653 49.4416 111.713 49.8383 111.76 50.2142C111.808 50.5913 111.84 50.9493 111.86 51.2849C111.88 51.6219 111.885 51.9384 111.877 52.2308C111.869 52.5248 111.848 52.7964 111.81 53.0401C111.774 53.2852 111.721 53.5052 111.653 53.6971C111.585 53.8876 111.5 54.0502 111.398 54.1804C111.331 54.2671 111.253 54.3386 111.167 54.3946C111.082 54.4492 110.988 54.4853 110.884 54.5047C110.779 54.5226 110.667 54.5221 110.546 54.4988C110.424 54.477 110.293 54.4325 110.154 54.3651Z" fill="#EA6564"/>
</g>
<mask id="mask3_1_8" style="mask-type:luminance" maskUnits="userSpaceOnUse" x="59" y="7" width="54" height="55">
<path d="M112.56 56.6484L64.6118 61.4864L59.6406 12.218L107.589 7.38004L112.56 56.6484Z" fill="white"/>
</mask>
<g mask="url(#mask3_1_8)">
<path d="M110.154 54.3648L66.4032 33.1384C66.306 33.0905 66.209 33.0203 66.1152 32.9321C66.0215 32.8453 65.931 32.7404 65.8507 32.6256C65.7692 32.5109 65.698 32.3863 65.6388 32.2576C65.5808 32.1287 65.5352 31.9985 65.5085 31.8695C65.4819 31.7419 65.4768 31.6298 65.4886 31.5368C65.5017 31.4437 65.5329 31.3695 65.5787 31.316C65.6247 31.264 65.6852 31.2327 65.7597 31.2282C65.834 31.2221 65.9209 31.2415 66.018 31.288L109.694 52.6641C109.757 52.6947 109.818 52.7152 109.875 52.7272C109.934 52.7391 109.99 52.7408 110.044 52.7309C110.097 52.7226 110.149 52.7026 110.198 52.671C110.249 52.6407 110.296 52.5975 110.341 52.5425C110.386 52.4877 110.428 52.4198 110.464 52.3391C110.502 52.2582 110.536 52.1661 110.565 52.0595C110.594 51.9543 110.62 51.8377 110.639 51.7084C110.66 51.579 110.676 51.4382 110.685 51.2848C110.707 50.9791 110.706 50.6282 110.684 50.238C110.663 49.8478 110.619 49.4184 110.553 48.9557C110.487 48.4929 110.4 47.9969 110.289 47.472C110.179 46.9471 110.046 46.3964 109.891 45.8228C109.773 45.3919 109.649 44.9646 109.517 44.5427C109.385 44.1206 109.246 43.7053 109.101 43.2994C108.958 42.8948 108.808 42.4968 108.656 42.1124C108.503 41.728 108.346 41.3559 108.188 40.9988C108.029 40.6402 107.87 40.3009 107.71 39.9779C107.55 39.655 107.391 39.3512 107.234 39.0695C107.077 38.7877 106.922 38.5279 106.773 38.2927C106.625 38.0589 106.48 37.8499 106.344 37.6696C106.253 37.5485 106.166 37.4403 106.084 37.345C106.002 37.2496 105.924 37.1657 105.849 37.0933C105.776 37.0207 105.705 36.9598 105.637 36.9074C105.569 36.855 105.505 36.8141 105.443 36.7804L62.419 14.0473C62.3239 13.9962 62.2293 13.9243 62.1368 13.8374C62.0455 13.7489 61.959 13.6466 61.8803 13.5346C61.8015 13.4226 61.7306 13.3009 61.6744 13.1778C61.6184 13.0561 61.5745 12.9302 61.5499 12.8098C61.5253 12.6894 61.5197 12.5848 61.5335 12.499C61.5461 12.4134 61.5768 12.3466 61.6234 12.3005C61.6688 12.2559 61.7301 12.2319 61.8024 12.2306C61.876 12.2305 61.9609 12.2545 62.056 12.3057L105.012 35.17C105.149 35.2435 105.291 35.3372 105.433 35.4473C105.575 35.5558 105.718 35.6836 105.862 35.823C106.006 35.964 106.149 36.1183 106.292 36.2846C106.435 36.4493 106.576 36.6261 106.715 36.812C106.854 36.9993 106.992 37.1942 107.129 37.398C107.267 37.6032 107.402 37.8147 107.535 38.0366C107.67 38.257 107.802 38.4851 107.933 38.7191C108.064 38.9546 108.194 39.1976 108.322 39.4468C108.578 39.9436 108.828 40.4692 109.071 41.0148C109.314 41.5603 109.549 42.1289 109.773 42.7119C109.998 43.2963 110.212 43.898 110.412 44.5086C110.613 45.1206 110.8 45.7443 110.972 46.3725C111.1 46.8453 111.215 47.3031 111.316 47.746C111.417 48.1904 111.505 48.6197 111.579 49.0298C111.653 49.4414 111.713 49.8381 111.76 50.2139C111.808 50.5911 111.84 50.9491 111.86 51.2847C111.88 51.6217 111.885 51.9381 111.877 52.2306C111.869 52.5246 111.848 52.7962 111.81 53.0399C111.774 53.2849 111.721 53.5049 111.653 53.6969C111.585 53.8874 111.5 54.0499 111.398 54.1801C111.331 54.2669 111.253 54.3384 111.167 54.3944C111.082 54.4489 110.988 54.485 110.884 54.5044C110.78 54.5224 110.667 54.5219 110.546 54.4985C110.424 54.4768 110.293 54.4322 110.154 54.3648Z" stroke="#CE6532" stroke-width="1.21484"/>
</g>
</g>
<defs>
<clipPath id="clip0_1_8">
<rect width="116.298" height="89.8247" fill="white" transform="translate(125.346 89.5249) rotate(174.238)"/>
</clipPath>
</defs>
</svg>
