<svg width="96" height="106" viewBox="0 0 96 106" fill="none" xmlns="http://www.w3.org/2000/svg">
<path d="M24.5625 67.0625C24.5625 70.2948 23.2785 73.3948 20.9929 75.6804C18.7073 77.966 15.6073 79.25 12.375 79.25C9.14267 79.25 6.04274 77.966 3.75714 75.6804C1.47154 73.3948 0.1875 70.2948 0.1875 67.0625C0.1875 63.8302 1.47154 60.7302 3.75714 58.4446C6.04274 56.159 9.14267 54.875 12.375 54.875C15.6073 54.875 18.7073 56.159 20.9929 58.4446C23.2785 60.7302 24.5625 63.8302 24.5625 67.0625ZM95.8125 67.0625C95.8125 70.2948 94.5285 73.3948 92.2429 75.6804C89.9573 77.966 86.8573 79.25 83.625 79.25C80.3927 79.25 77.2927 77.966 75.0071 75.6804C72.7215 73.3948 71.4375 70.2948 71.4375 67.0625C71.4375 63.8302 72.7215 60.7302 75.0071 58.4446C77.2927 56.159 80.3927 54.875 83.625 54.875C86.8573 54.875 89.9573 56.159 92.2429 58.4446C94.5285 60.7302 95.8125 63.8302 95.8125 67.0625Z" fill="#BB806E"/>
<path d="M75.0375 14.7125C69.3025 10.3822 62.3187 8.02703 55.1325 8H40.86C33.7425 8 26.7787 10.3625 20.9625 14.7125C11.0512 22.175 5.69249 34.5875 6.91874 47.3037L10.2862 77.7162C11.3962 89.495 19.2 99.395 30.03 102.77C41.7412 106.408 54.255 106.408 65.9625 102.77C76.7887 99.395 84.6 89.495 85.7062 77.72L89.0737 47.3037C90.2962 34.5912 84.9412 22.1788 75.03 14.7162L75.0375 14.7125Z" fill="#C68D7B"/>
<path d="M47.97 82.8612C44.0432 82.8798 40.1715 81.936 36.6938 80.1125C35.5725 79.5125 34.38 80.7912 35.0888 81.8825C36.4753 84.0513 38.3854 85.8363 40.6431 87.0729C42.9007 88.3096 45.4333 88.9581 48.0075 88.9587C50.5808 88.9533 53.1116 88.3027 55.3684 87.0665C57.6253 85.8303 59.5362 84.0479 60.9263 81.8825C61.6013 80.8325 60.4387 79.55 59.3212 80.1125C55.8134 81.9278 51.9197 82.8707 47.97 82.8612Z" fill="#990839"/>
<path d="M48.0075 77.9374C49.8188 77.9374 51.435 77.0187 52.3575 75.6387C52.5509 75.3537 52.6627 75.0214 52.681 74.6775C52.6992 74.3336 52.6231 73.9913 52.461 73.6875C52.2989 73.3837 52.0568 73.13 51.761 72.9537C51.4652 72.7775 51.1269 72.6854 50.7825 72.6874H45.2363C43.6988 72.6874 42.7725 74.4124 43.6575 75.6387C44.58 77.0562 46.2 77.9374 48.0075 77.9374Z" fill="#AB6A55"/>
<path d="M15.6375 66.68C17.025 60.9725 22.125 56.75 28.1625 56.75C34.425 56.75 39.675 61.3137 40.8375 67.325C41.1 68.6562 40.05 69.875 38.7375 69.875H18.1125C17.7227 69.874 17.3383 69.7841 16.9886 69.612C16.6389 69.44 16.333 69.1904 16.0943 68.8823C15.8556 68.5741 15.6904 68.2156 15.6112 67.834C15.5321 67.4523 15.541 67.0576 15.6375 66.68ZM78.1875 66.68C76.8 60.9725 71.7 56.75 65.6625 56.75C59.3625 56.75 54.15 61.3137 52.9875 67.325C52.725 68.6562 53.775 69.875 55.0875 69.875H75.7125C77.3625 69.875 78.6 68.315 78.1875 66.68Z" fill="white"/>
<path d="M21.825 67.7C21.825 63.1625 25.5 59.45 30.075 59.45C34.65 59.45 38.325 63.1625 38.3625 67.7C38.3625 68.45 38.25 69.1625 38.0625 69.875H22.125C21.9375 69.2 21.825 68.45 21.825 67.7ZM72 67.7C72 65.5119 71.1308 63.4135 69.5836 61.8663C68.0364 60.3191 65.938 59.45 63.75 59.45C59.175 59.45 55.4625 63.1625 55.4625 67.7C55.4625 68.45 55.575 69.1625 55.7625 69.875H71.7C71.8875 69.2 72 68.45 72 67.7Z" fill="#7D4533"/>
<path d="M30.075 62.975C32.7 62.975 34.8 65.075 34.8 67.7C34.8 68.4875 34.575 69.2375 34.2375 69.875H25.875C25.5375 69.2375 25.35 68.4875 25.35 67.7C25.35 65.075 27.45 62.975 30.075 62.975ZM63.75 62.975C61.125 62.975 59.025 65.075 59.025 67.7C59.025 68.4875 59.2125 69.2375 59.5875 69.875H67.95C68.2875 69.2375 68.475 68.4875 68.475 67.7C68.475 65.075 66.375 62.975 63.75 62.975Z" fill="black"/>
<path d="M27.4875 64.4749C27.4875 64.8628 27.3334 65.2348 27.0591 65.5091C26.7849 65.7834 26.4129 65.9375 26.025 65.9375C25.6371 65.9375 25.2651 65.7834 24.9909 65.5091C24.7166 65.2348 24.5625 64.8628 24.5625 64.4749C24.5625 64.0871 24.7166 63.7151 24.9909 63.4408C25.2651 63.1665 25.6371 63.0125 26.025 63.0125C26.4129 63.0125 26.7849 63.1665 27.0591 63.4408C27.3334 63.7151 27.4875 64.0871 27.4875 64.4749ZM62.625 64.4749C62.625 64.8628 62.4709 65.2348 62.1966 65.5091C61.9224 65.7834 61.5504 65.9375 61.1625 65.9375C60.7746 65.9375 60.4026 65.7834 60.1284 65.5091C59.8541 65.2348 59.7 64.8628 59.7 64.4749C59.7 64.0871 59.8541 63.7151 60.1284 63.4408C60.4026 63.1665 60.7746 63.0125 61.1625 63.0125C61.5504 63.0125 61.9224 63.1665 62.1966 63.4408C62.4709 63.7151 62.625 64.0871 62.625 64.4749Z" fill="white"/>
<path d="M24.18 51.3162C26.1338 50.6224 28.935 50.0937 32.6363 50.4424C32.8858 50.4745 33.1392 50.4561 33.3814 50.3882C33.6236 50.3204 33.8497 50.2044 34.0462 50.0474C34.2427 49.8903 34.4056 49.6953 34.5252 49.474C34.6447 49.2527 34.7185 49.0096 34.7422 48.7591C34.7659 48.5087 34.7389 48.256 34.6629 48.0162C34.5869 47.7764 34.4634 47.5544 34.2998 47.3633C34.1362 47.1722 33.9358 47.016 33.7105 46.904C33.4853 46.792 33.2398 46.7264 32.9888 46.7112C28.74 46.3099 25.3913 46.9062 22.92 47.7837C22.4516 47.9508 22.0687 48.2971 21.8556 48.7465C21.6425 49.1959 21.6167 49.7115 21.7838 50.1799C21.9508 50.6484 22.2972 51.0313 22.7466 51.2443C23.1959 51.4574 23.7116 51.4833 24.18 51.3162ZM71.3175 47.7874C68.8463 46.9062 65.4975 46.3099 61.2488 46.7112C60.9977 46.7264 60.7522 46.792 60.527 46.904C60.3017 47.016 60.1013 47.1722 59.9377 47.3633C59.7741 47.5544 59.6506 47.7764 59.5746 48.0162C59.4986 48.256 59.4717 48.5087 59.4953 48.7591C59.519 49.0096 59.5928 49.2527 59.7124 49.474C59.8319 49.6953 59.9948 49.8903 60.1913 50.0474C60.3878 50.2044 60.6139 50.3204 60.8561 50.3882C61.0984 50.4561 61.3518 50.4745 61.6013 50.4424C65.3025 50.0937 68.1038 50.6224 70.0575 51.3162C70.5259 51.4833 71.0416 51.4574 71.491 51.2443C71.9403 51.0313 72.2867 50.6484 72.4538 50.1799C72.6208 49.7115 72.595 49.1959 72.3819 48.7465C72.1688 48.2971 71.7859 47.9545 71.3175 47.7874ZM47.325 0.499943C44.4177 0.463109 41.5553 1.21854 39.0449 2.68518C36.5344 4.15182 34.4706 6.27432 33.075 8.82494C35.4 8.29994 37.7625 7.99994 40.125 7.99994H40.6875C47.475 7.99994 53.175 13.5499 53.1375 20.3374C53.1 23.4124 51.975 26.1874 50.1 28.3249C49.7973 28.6569 49.6132 29.0797 49.5763 29.5274C49.5394 29.975 49.6518 30.4223 49.896 30.7993C50.1402 31.1764 50.5024 31.4619 50.926 31.6112C51.3497 31.7606 51.8108 31.7654 52.2375 31.6249C55.4008 30.5494 58.1475 28.5094 60.0915 25.792C62.0354 23.0745 63.0788 19.8161 63.075 16.4749C63.1125 7.77494 56.025 0.612443 47.325 0.499943Z" fill="#593B39"/>
</svg>
