<svg width="120" height="120" viewBox="0 0 120 120" fill="none" xmlns="http://www.w3.org/2000/svg">
<path d="M30 23.1188C30 23.1188 32.2781 16.275 37.65 11.9813C43.0219 7.6875 92.8219 26.0813 92.8219 26.0813C92.8219 26.0813 101.522 29.1844 106.669 37.4063C110.128 42.9375 112.059 51.1125 108.394 60.9844C99.6563 84.4969 76.9875 81.7781 71.0813 80.4375C68.3063 79.8094 61.5469 78.0188 61.5469 78.0188C61.5469 78.0188 46.1063 90.7688 27.525 80.9906C13.3781 73.5469 15.1313 62.4188 15.1313 62.4188C15.1313 62.4188 5.60625 52.8938 9.73125 39.6281C14.7 23.6531 30 23.1188 30 23.1188Z" fill="#5B9821"/>
<path d="M62.2219 51.5718C75.1125 49.425 79.1344 43.9218 82.6313 38.8218C86.4844 33.1968 85.4531 28.4812 88.1344 28.35C90.8156 28.2187 92.9531 33.0562 90.0094 41.5031C85.8469 53.4468 77.2875 55.2 77.1188 58.4156C76.9875 60.9656 86.2313 61.1437 94.575 57.075C106.659 51.1687 106.659 37.3406 106.659 37.3406C106.659 37.3406 104.513 32.9062 100.35 29.8218C96.1875 26.7375 93.0938 25.125 93.0938 25.125C93.0938 25.125 88.125 6.46871 65.5781 3.37496C43.0312 0.281209 33.7594 16.0031 33.7594 16.0031C33.7594 16.0031 34.5656 21.1031 38.4562 27.0093C41.5594 31.725 44.7656 31.575 44.4937 34.2562C44.3156 36 38.7188 36.5343 32.8125 33.9843C27.4312 31.6593 26.1 28.4812 24.6281 28.4812C23.1562 28.4812 10.95 35.2781 16.0406 49.6875C20.0719 61.0968 33.3937 63.2343 35.775 63.6468C42.7594 64.8562 46.7812 60.2906 41.8125 56.6625C36.8437 53.0343 31.3406 50.8875 32.55 47.2687C33.8531 43.35 38.5031 47.4375 44.0906 49.8562C49.6125 52.2468 56.2969 52.5656 62.2219 51.5718Z" fill="#8BC02B"/>
<path d="M36.5906 66.5343C36.5906 66.5343 39.6844 66.3562 40.9594 65.9906C42.2344 65.6249 43.9594 64.5374 43.9594 64.5374C43.9594 64.5374 55.9125 77.0437 57.15 78.0937C58.3594 79.1156 59.7844 63.5343 59.7844 63.5343C59.7844 63.5343 62.5125 63.9562 65.0625 63.5531C68.4187 63.0187 70.7062 61.95 70.7062 61.95C70.7062 61.95 69.075 71.5406 68.4375 75.1781C68.0344 77.5125 67.8937 83.9999 67.8937 83.9999L59.1562 91.275L52.5094 86.8124C52.5094 86.8124 52.4906 85.0593 51.5062 83.8687C48.45 80.1749 36.5906 66.5343 36.5906 66.5343ZM67.0687 87.9187L73.7156 79.9124C73.7156 79.9124 76.0781 80.0906 77.8125 80.0906C79.5375 80.0906 82.5469 79.725 82.5469 79.725C82.5469 79.725 77.0906 87.0937 74.175 90.7312C71.2594 94.3687 67.4438 98.9249 67.4438 98.9249L63.8062 88.3687L67.0687 87.9187Z" fill="#6D4B41"/>
<path d="M62.3438 81.5437C59.625 81.7875 52.5188 86.8218 52.5188 86.8218C52.5188 86.8218 52.8844 95.3718 52.6125 100.2C52.3406 105.028 50.4375 112.912 52.1906 114.909C53.7094 116.634 66.4781 116.962 68.3813 114.956C70.2938 112.95 68.4375 104.662 68.4375 99.2906C68.4375 93.9187 67.8937 84 67.8937 84C67.8937 84 65.4375 81.2718 62.3438 81.5437Z" fill="#865B50"/>
</svg>
