<svg width="190" height="166" viewBox="0 0 190 166" fill="none" xmlns="http://www.w3.org/2000/svg">
<g clip-path="url(#clip0_1_52)">
<path d="M161.603 53.427C161.498 53.315 161.377 53.2167 161.246 53.1326C161.113 53.0491 160.971 52.9839 160.828 52.9391C160.683 52.8933 160.538 52.8695 160.397 52.8737L95.9937 54.2033C95.8988 54.2052 95.7995 54.1971 95.6942 54.1797C95.5872 54.163 95.475 54.1346 95.356 54.0952C95.2361 54.0582 95.1086 54.0085 94.9736 53.9461C94.837 53.8845 94.6935 53.8119 94.5394 53.724C94.3121 53.5944 94.0666 53.4368 93.8078 53.2491C93.5513 53.0624 93.279 52.8486 93.0005 52.6076C92.7211 52.369 92.4339 52.1038 92.1426 51.8164C91.8507 51.5273 91.5555 51.2176 91.2586 50.8866C90.9618 50.5556 90.665 50.2026 90.3712 49.8343C90.0758 49.4667 89.7858 49.0806 89.4989 48.6793C89.2127 48.2795 88.9311 47.8638 88.6596 47.4355C88.3865 47.008 88.1235 46.568 87.8721 46.1189C87.534 45.518 87.2339 44.9323 86.9725 44.3635C86.7102 43.7971 86.4843 43.2467 86.2983 42.7246C86.1122 42.2025 85.9623 41.7045 85.8535 41.2423C85.7424 40.7792 85.6717 40.3501 85.6389 39.9624C85.6213 39.7681 85.6145 39.585 85.6169 39.4138C85.6186 39.241 85.6302 39.0817 85.6502 38.9328C85.6703 38.7838 85.6995 38.6468 85.7363 38.5225C85.7722 38.4005 85.8166 38.2888 85.8676 38.1922C85.8771 38.174 85.8874 38.1575 85.8976 38.1409L85.9268 38.092C85.937 38.0754 85.948 38.0606 85.9574 38.0464C85.9684 38.0315 85.9794 38.0167 85.9904 38.0018C68.1706 61.2843 50.3534 84.5636 32.5328 107.844C32.5244 107.856 32.5159 107.868 32.5058 107.88L32.4809 107.921C32.4732 107.935 32.4638 107.949 32.4568 107.964L32.4335 108.008C32.3933 108.094 32.3614 108.194 32.3411 108.307C32.3192 108.421 32.3081 108.546 32.3076 108.687C32.3064 108.825 32.3144 108.976 32.334 109.139C32.3552 109.302 32.3856 109.477 32.4292 109.663C32.5124 110.037 32.6421 110.454 32.8154 110.907C32.9888 111.361 33.2057 111.851 33.4649 112.371C33.7258 112.89 34.0273 113.439 34.3704 114.012C34.7136 114.584 35.097 115.177 35.5191 115.787C35.8352 116.246 36.1629 116.695 36.4982 117.135C36.8319 117.576 37.174 118.005 37.5182 118.421C37.8634 118.835 38.212 119.239 38.5622 119.624C38.9108 120.01 39.2616 120.379 39.6083 120.73C39.9557 121.083 40.2968 121.412 40.6329 121.722C40.9691 122.031 41.2973 122.319 41.6144 122.581C41.9315 122.843 42.2374 123.079 42.5259 123.29C42.8137 123.499 43.0872 123.68 43.3377 123.831C43.5058 123.933 43.664 124.021 43.8105 124.097C43.9571 124.172 44.0945 124.235 44.2227 124.286C44.3493 124.339 44.4683 124.378 44.5796 124.409C44.6908 124.44 44.793 124.458 44.8897 124.47L111.711 131.502C111.859 131.519 112.014 131.56 112.171 131.621C112.328 131.683 112.483 131.765 112.631 131.861C112.78 131.958 112.921 132.07 113.042 132.19C113.163 132.309 113.269 132.438 113.347 132.57C113.386 132.635 113.418 132.698 113.441 132.76C113.462 132.821 113.478 132.878 113.484 132.933C113.49 132.986 113.489 133.037 113.481 133.085C113.472 133.131 113.456 133.174 113.434 133.212L161.867 54.4609C161.892 54.4175 161.913 54.3705 161.927 54.3183C161.94 54.2685 161.947 54.2151 161.945 54.1579C161.946 54.1016 161.937 54.0415 161.923 53.9796C161.908 53.9183 161.885 53.8542 161.855 53.7897C161.794 53.6606 161.708 53.5366 161.603 53.427Z" fill="#316E9D"/>
<mask id="mask0_1_52" style="mask-type:luminance" maskUnits="userSpaceOnUse" x="11" y="10" width="173" height="151">
<path d="M11.9295 68.0387L142.793 10.148L183.659 102.526L52.7951 160.417L11.9295 68.0387Z" fill="white"/>
</mask>
<g mask="url(#mask0_1_52)">
<path d="M161.602 53.4269C161.498 53.3149 161.377 53.2167 161.246 53.1325C161.113 53.0491 160.971 52.9839 160.828 52.939C160.683 52.8932 160.537 52.8694 160.397 52.8737L95.9936 54.2032C95.8988 54.2051 95.7995 54.197 95.6941 54.1796C95.5871 54.1629 95.4749 54.1345 95.3559 54.0951C95.236 54.0581 95.1085 54.0084 94.9735 53.946C94.8369 53.8844 94.6934 53.8118 94.5393 53.7239C94.312 53.5943 94.0665 53.4367 93.8077 53.249C93.5512 53.0623 93.2789 52.8485 93.0004 52.6075C92.721 52.3689 92.4338 52.1037 92.1426 51.8163C91.8506 51.5272 91.5554 51.2175 91.2586 50.8865C90.9618 50.5556 90.665 50.2026 90.3711 49.8342C90.0757 49.4666 89.7858 49.0806 89.4988 48.6792C89.2126 48.2795 88.931 47.8637 88.6596 47.4354C88.3864 47.0079 88.1234 46.5679 87.872 46.1188C87.5339 45.5179 87.2338 44.9322 86.9724 44.3634C86.7101 43.797 86.4842 43.2466 86.2982 42.7245C86.1122 42.2024 85.9622 41.7044 85.8534 41.2422C85.7423 40.7791 85.6716 40.35 85.6388 39.9623C85.6212 39.768 85.6144 39.5849 85.6168 39.4137C85.6185 39.2409 85.6301 39.0816 85.6502 38.9327C85.6702 38.7837 85.6994 38.6467 85.7362 38.5224C85.7722 38.4004 85.8165 38.2887 85.8675 38.1921C85.877 38.1739 85.8873 38.1574 85.8976 38.1408L85.9267 38.0919C85.937 38.0753 85.948 38.0605 85.9573 38.0463C85.9683 38.0315 85.9793 38.0166 85.9903 38.0017C68.1706 61.2842 50.3533 84.5635 32.5328 107.844C32.5243 107.856 32.5159 107.868 32.5058 107.88L32.4809 107.921C32.4732 107.935 32.4638 107.949 32.4568 107.964L32.4335 108.008C32.3933 108.094 32.3614 108.194 32.3411 108.307C32.3192 108.421 32.3081 108.546 32.3076 108.686C32.3064 108.825 32.3144 108.976 32.334 109.139C32.3552 109.302 32.3856 109.476 32.4292 109.663C32.5124 110.037 32.6421 110.454 32.8154 110.907C32.9888 111.361 33.2057 111.851 33.4649 112.371C33.7258 112.89 34.0273 113.439 34.3704 114.012C34.7136 114.584 35.097 115.177 35.5191 115.787C35.8352 116.246 36.1629 116.695 36.4982 117.135C36.8319 117.576 37.174 118.005 37.5182 118.421C37.8634 118.834 38.212 119.239 38.5622 119.624C38.9108 120.01 39.2616 120.379 39.6083 120.73C39.9557 121.083 40.2968 121.412 40.6329 121.722C40.9691 122.031 41.2973 122.318 41.6144 122.58C41.9315 122.842 42.2374 123.079 42.5259 123.29C42.8137 123.499 43.0872 123.68 43.3377 123.831C43.5058 123.933 43.664 124.021 43.8105 124.096C43.9571 124.172 44.0945 124.235 44.2227 124.286C44.3493 124.338 44.4683 124.378 44.5796 124.409C44.6908 124.439 44.793 124.458 44.8897 124.47L111.711 131.502C111.859 131.519 112.014 131.56 112.171 131.621C112.328 131.683 112.483 131.765 112.631 131.861C112.78 131.958 112.921 132.07 113.042 132.19C113.163 132.309 113.269 132.438 113.347 132.569C113.386 132.634 113.418 132.698 113.441 132.76C113.462 132.821 113.478 132.878 113.484 132.933C113.49 132.986 113.489 133.037 113.481 133.085C113.472 133.131 113.456 133.174 113.434 133.212L161.867 54.4609C161.892 54.4175 161.912 54.3705 161.926 54.3183C161.94 54.2684 161.947 54.215 161.945 54.1578C161.946 54.1016 161.937 54.0415 161.923 53.9795C161.908 53.9183 161.885 53.8542 161.855 53.7896C161.794 53.6605 161.708 53.5365 161.602 53.4269Z" stroke="#CE6532" stroke-width="1.21484"/>
</g>
<path d="M102.664 120.153C103.113 120.901 103.592 121.636 104.092 122.347C104.592 123.058 105.114 123.748 105.654 124.412C106.192 125.076 106.746 125.71 107.311 126.312C107.876 126.915 108.451 127.485 109.03 128.017C109.2 128.172 109.369 128.324 109.54 128.472C109.71 128.621 109.882 128.767 110.052 128.91C110.224 129.05 110.395 129.19 110.568 129.324C110.74 129.458 110.912 129.59 111.085 129.718L45.8518 123.063C45.755 123.052 45.6513 123.034 45.54 123.003C45.427 122.973 45.308 122.934 45.1798 122.882C45.0509 122.829 44.9135 122.766 44.7669 122.691C44.6204 122.616 44.4622 122.527 44.2918 122.425C44.0396 122.274 43.7677 122.092 43.4776 121.882C43.1891 121.672 42.8831 121.435 42.5653 121.171C42.2458 120.908 41.9177 120.621 41.5807 120.31C41.2438 119.999 40.8996 119.667 40.5522 119.314C40.2072 118.962 39.8549 118.59 39.5056 118.202C39.1563 117.814 38.8076 117.41 38.461 116.993C38.116 116.575 37.7748 116.144 37.4404 115.702C37.1051 115.262 36.7775 114.808 36.4607 114.348C36.038 113.732 35.6547 113.135 35.3125 112.56C34.9702 111.985 34.6672 111.433 34.4089 110.911C34.1506 110.389 33.9338 109.894 33.7614 109.438C33.5889 108.982 33.4617 108.562 33.3778 108.187C33.3358 108 33.3064 107.822 33.286 107.657C33.2665 107.494 33.2577 107.342 33.2598 107.201C33.2626 107.061 33.2746 106.934 33.2966 106.82C33.3185 106.706 33.3497 106.605 33.3898 106.519C33.4325 106.43 33.4819 106.356 33.5379 106.297C33.5948 106.236 33.6577 106.188 33.7273 106.151C33.7994 106.115 33.8758 106.09 33.9599 106.076C34.0439 106.063 34.134 106.059 34.2309 106.067L99.8501 110.837C99.7923 111.051 99.7515 111.281 99.7303 111.525C99.7091 111.768 99.7059 112.026 99.7182 112.296C99.7305 112.567 99.7617 112.849 99.8068 113.146C99.8528 113.44 99.9144 113.747 99.99 114.063C100.098 114.502 100.233 114.962 100.4 115.441C100.565 115.918 100.76 116.412 100.982 116.924C101.206 117.436 101.458 117.961 101.738 118.499C102.019 119.039 102.327 119.589 102.664 120.153Z" fill="#3F973E"/>
<path d="M102.664 120.153C103.113 120.901 103.592 121.636 104.092 122.347C104.592 123.058 105.114 123.748 105.654 124.412C106.192 125.076 106.746 125.71 107.311 126.312C107.876 126.915 108.451 127.485 109.03 128.017C109.2 128.172 109.369 128.324 109.54 128.472C109.71 128.621 109.882 128.767 110.052 128.91C110.224 129.05 110.395 129.19 110.568 129.324C110.74 129.458 110.912 129.59 111.085 129.718L45.8518 123.063C45.755 123.052 45.6513 123.034 45.54 123.003C45.427 122.973 45.308 122.934 45.1798 122.882C45.0509 122.829 44.9135 122.766 44.7669 122.691C44.6204 122.616 44.4622 122.527 44.2918 122.425C44.0396 122.274 43.7677 122.092 43.4776 121.882C43.1891 121.672 42.8831 121.435 42.5653 121.171C42.2458 120.908 41.9177 120.621 41.5807 120.31C41.2438 119.999 40.8996 119.667 40.5522 119.314C40.2072 118.962 39.8549 118.59 39.5056 118.202C39.1563 117.814 38.8076 117.41 38.461 116.993C38.116 116.575 37.7748 116.144 37.4404 115.702C37.1051 115.262 36.7775 114.808 36.4607 114.348C36.038 113.732 35.6547 113.135 35.3125 112.56C34.9702 111.985 34.6672 111.433 34.4089 110.911C34.1506 110.389 33.9338 109.894 33.7614 109.438C33.5889 108.982 33.4617 108.562 33.3778 108.187C33.3358 108 33.3064 107.822 33.286 107.657C33.2665 107.494 33.2577 107.342 33.2598 107.201C33.2626 107.061 33.2746 106.934 33.2966 106.82C33.3185 106.706 33.3497 106.605 33.3898 106.519C33.4325 106.43 33.4819 106.356 33.5379 106.297C33.5948 106.236 33.6577 106.188 33.7273 106.151C33.7994 106.115 33.8758 106.09 33.9599 106.076C34.0439 106.063 34.134 106.059 34.2309 106.067L99.8501 110.837C99.7923 111.051 99.7515 111.281 99.7303 111.525C99.7091 111.768 99.7059 112.026 99.7182 112.296C99.7305 112.567 99.7617 112.849 99.8068 113.146C99.8528 113.44 99.9144 113.747 99.99 114.063C100.098 114.502 100.233 114.962 100.4 115.441C100.565 115.918 100.76 116.412 100.982 116.924C101.206 117.436 101.458 117.961 101.738 118.499C102.019 119.039 102.327 119.589 102.664 120.153Z" fill="#F7E1CA"/>
<path d="M85.3779 39.1473C85.2998 39.1518 85.2263 39.1623 85.1542 39.1802C85.0837 39.1974 85.0161 39.2213 84.9506 39.2543C84.8867 39.2865 84.8258 39.3255 84.7694 39.3745C84.7122 39.4218 84.6587 39.4775 84.6096 39.5432L33.4917 106.352C33.5339 106.297 33.5807 106.248 33.6343 106.21C33.6872 106.171 33.7438 106.14 33.8057 106.117C33.8677 106.093 33.9333 106.078 34.0059 106.07C34.0768 106.063 34.1524 106.061 34.2309 106.067L99.8501 110.837L148.895 36.1683L85.3779 39.1473Z" fill="#3F973E"/>
<path d="M157.236 54.3381C157.084 54.2169 156.933 54.0916 156.785 53.9632C156.634 53.8339 156.484 53.7021 156.335 53.5656C156.187 53.4291 156.04 53.2902 155.892 53.1472C155.39 52.6569 154.897 52.1246 154.416 51.5588C153.937 50.9923 153.469 50.3889 153.021 49.7565C152.573 49.1223 152.142 48.4583 151.738 47.7687C151.331 47.0783 150.949 46.3647 150.596 45.6284C150.332 45.0766 150.094 44.5336 149.883 44.0003C149.671 43.4678 149.483 42.9424 149.324 42.4324C149.165 41.9225 149.03 41.4237 148.924 40.9404C148.816 40.4579 148.735 39.9915 148.679 39.5438C148.641 39.2186 148.615 38.9038 148.603 38.5989C148.591 38.2939 148.592 37.9995 148.61 37.7174C148.627 37.4337 148.658 37.1638 148.705 36.9047C148.753 36.6472 148.816 36.3995 148.895 36.1683L99.8501 110.837C99.7923 111.051 99.7515 111.281 99.7303 111.524C99.7091 111.768 99.7059 112.026 99.7182 112.296C99.7305 112.567 99.7617 112.849 99.8068 113.146C99.8528 113.44 99.9144 113.746 99.99 114.063C100.096 114.502 100.233 114.962 100.399 115.439C100.565 115.918 100.76 116.412 100.982 116.924C101.206 117.436 101.458 117.961 101.738 118.499C102.019 119.039 102.327 119.589 102.664 120.153C103.113 120.901 103.592 121.636 104.092 122.347C104.592 123.058 105.114 123.748 105.654 124.412C106.192 125.076 106.746 125.71 107.311 126.312C107.876 126.915 108.451 127.485 109.03 128.017C109.2 128.172 109.369 128.324 109.54 128.472C109.71 128.621 109.882 128.767 110.052 128.91C110.224 129.05 110.395 129.19 110.568 129.324C110.738 129.459 110.912 129.59 111.085 129.718L157.694 54.6897C157.541 54.5773 157.389 54.4585 157.236 54.3381Z" fill="#F7E1CA"/>
<path d="M152.004 33.0058C151.896 32.8895 151.771 32.7869 151.636 32.7025C151.501 32.6182 151.356 32.552 151.209 32.5069C151.063 32.4635 150.914 32.4436 150.772 32.4502L85.7607 35.84C85.5909 35.8491 85.4317 35.8734 85.2825 35.9114C85.1349 35.9487 84.9973 35.9996 84.8712 36.0634C84.7451 36.1272 84.6306 36.2039 84.5269 36.2918C84.4224 36.378 84.3288 36.4754 84.2476 36.5834C66.3519 59.8134 48.4545 83.0441 30.5595 106.276C30.6297 106.183 30.713 106.102 30.8089 106.031C30.9031 105.962 31.0121 105.904 31.1326 105.858C31.2532 105.813 31.3877 105.781 31.5346 105.764C31.6823 105.745 31.8414 105.743 32.0169 105.755L99.2712 110.659C99.421 110.671 99.5786 110.709 99.7385 110.77C99.8977 110.83 100.059 110.913 100.211 111.012C100.364 111.11 100.506 111.225 100.634 111.351C100.76 111.477 100.87 111.611 100.954 111.752C100.999 111.826 101.033 111.899 101.059 111.967C101.084 112.036 101.099 112.102 101.106 112.163C101.112 112.224 101.11 112.281 101.1 112.333C101.09 112.386 101.07 112.435 101.044 112.476L152.27 34.1369C152.3 34.0897 152.325 34.0364 152.342 33.9811C152.358 33.9241 152.366 33.8642 152.366 33.8005C152.366 33.7361 152.359 33.6696 152.342 33.601C152.324 33.5306 152.301 33.4591 152.266 33.3862C152.202 33.2504 152.112 33.1221 152.004 33.0058Z" fill="#316E9D"/>
<mask id="mask1_1_52" style="mask-type:luminance" maskUnits="userSpaceOnUse" x="11" y="10" width="164" height="131">
<path d="M11.9295 68.0387L142.793 10.148L174.883 82.6877L44.0191 140.578L11.9295 68.0387Z" fill="white"/>
</mask>
<g mask="url(#mask1_1_52)">
<path d="M152.004 33.0059C151.896 32.8896 151.771 32.787 151.636 32.7026C151.501 32.6182 151.356 32.5521 151.209 32.507C151.063 32.4636 150.914 32.4437 150.772 32.4503L85.7607 35.84C85.5908 35.8491 85.4317 35.8735 85.2825 35.9115C85.1349 35.9487 84.9972 35.9996 84.8711 36.0634C84.745 36.1272 84.6305 36.2039 84.5268 36.2918C84.4224 36.378 84.3287 36.4755 84.2476 36.5834C66.3519 59.8134 48.4545 83.0442 30.5595 106.276C30.6297 106.183 30.7131 106.102 30.8089 106.031C30.9031 105.962 31.0121 105.904 31.1327 105.858C31.2532 105.813 31.3878 105.781 31.5346 105.764C31.6823 105.745 31.8414 105.743 32.0169 105.755L99.2712 110.659C99.421 110.671 99.5786 110.709 99.7385 110.77C99.8977 110.83 100.059 110.913 100.211 111.012C100.364 111.11 100.506 111.225 100.634 111.351C100.76 111.477 100.87 111.611 100.954 111.752C100.999 111.826 101.033 111.899 101.059 111.967C101.084 112.037 101.099 112.102 101.106 112.163C101.112 112.224 101.11 112.281 101.1 112.334C101.09 112.386 101.07 112.435 101.044 112.476L152.27 34.137C152.3 34.0897 152.325 34.0365 152.342 33.9812C152.358 33.9241 152.366 33.8643 152.366 33.8006C152.366 33.7362 152.358 33.6697 152.342 33.601C152.324 33.5307 152.3 33.4592 152.266 33.3862C152.202 33.2505 152.112 33.1221 152.004 33.0059Z" stroke="#CE6532" stroke-width="1.21484"/>
</g>
<mask id="mask2_1_52" style="mask-type:luminance" maskUnits="userSpaceOnUse" x="29" y="79" width="86" height="82">
<path d="M29.0453 106.73L90.318 79.6242L114.011 133.182L52.7381 160.288L29.0453 106.73Z" fill="white"/>
</mask>
<g mask="url(#mask2_1_52)">
<path d="M32.0168 105.755L99.2712 110.659C99.421 110.671 99.5786 110.709 99.7385 110.771C99.8977 110.83 100.059 110.913 100.211 111.012C100.364 111.11 100.506 111.225 100.634 111.351C100.76 111.477 100.87 111.611 100.954 111.752C101.037 111.891 101.085 112.022 101.103 112.138C101.12 112.255 101.105 112.358 101.062 112.442C101.019 112.526 100.948 112.591 100.849 112.631C100.75 112.673 100.625 112.69 100.476 112.68L33.2679 107.563C33.171 107.556 33.0808 107.56 32.9984 107.572C32.9144 107.586 32.8372 107.61 32.7675 107.647C32.6988 107.681 32.6359 107.729 32.5807 107.789C32.523 107.849 32.4753 107.922 32.4335 108.009C32.3933 108.094 32.3614 108.194 32.3411 108.308C32.3192 108.421 32.3081 108.546 32.3076 108.687C32.3064 108.825 32.3144 108.976 32.3356 109.138C32.3552 109.302 32.3856 109.477 32.4292 109.663C32.5124 110.037 32.6421 110.454 32.8154 110.907C32.9888 111.361 33.2057 111.851 33.4665 112.37C33.7257 112.89 34.0272 113.439 34.3704 114.012C34.7136 114.585 35.0969 115.177 35.519 115.787C35.8368 116.245 36.1629 116.695 36.4982 117.135C36.8318 117.576 37.174 118.005 37.5198 118.42C37.8633 118.835 38.2137 119.238 38.5622 119.624C38.9108 120.01 39.2616 120.379 39.6083 120.73C39.9557 121.083 40.2967 121.412 40.6329 121.722C40.9691 122.032 41.2973 122.319 41.6144 122.581C41.9314 122.843 42.2374 123.079 42.5259 123.29C42.8136 123.499 43.0872 123.68 43.3377 123.831C43.5058 123.933 43.6639 124.021 43.8105 124.097C43.9571 124.172 44.0945 124.235 44.2227 124.287C44.3492 124.339 44.4682 124.378 44.5795 124.409C44.6908 124.44 44.7929 124.458 44.8897 124.47L111.711 131.502C111.859 131.519 112.014 131.56 112.171 131.621C112.328 131.684 112.483 131.765 112.631 131.862C112.78 131.958 112.921 132.07 113.042 132.19C113.163 132.309 113.269 132.438 113.347 132.57C113.425 132.701 113.471 132.823 113.484 132.931C113.498 133.039 113.481 133.133 113.435 133.209C113.389 133.283 113.315 133.34 113.217 133.375C113.117 133.41 112.993 133.421 112.845 133.404L46.0679 126.184C45.8544 126.16 45.6272 126.115 45.3934 126.05C45.1605 125.987 44.9195 125.901 44.6726 125.803C44.425 125.702 44.1739 125.585 43.9186 125.454C43.664 125.324 43.4068 125.18 43.15 125.023C42.8925 124.865 42.6329 124.698 42.3721 124.519C42.109 124.339 41.8478 124.15 41.5847 123.949C41.3207 123.749 41.0579 123.539 40.7937 123.322C40.5289 123.103 40.2619 122.875 39.9969 122.638C39.466 122.166 38.9325 121.658 38.4024 121.122C37.8707 120.586 37.3425 120.02 36.8241 119.43C36.3032 118.84 35.7906 118.225 35.2939 117.592C34.7964 116.957 34.3117 116.303 33.8468 115.636C33.4994 115.134 33.1748 114.643 32.8747 114.163C32.5739 113.682 32.2959 113.213 32.0447 112.759C31.7927 112.304 31.5651 111.861 31.3634 111.436C31.1593 111.01 30.9836 110.599 30.8327 110.21C30.6812 109.818 30.5587 109.444 30.4618 109.093C30.3642 108.74 30.2932 108.407 30.2549 108.1C30.2143 107.792 30.2049 107.505 30.2267 107.246C30.2493 106.988 30.3046 106.755 30.3949 106.553C30.4546 106.418 30.5338 106.297 30.6294 106.191C30.7257 106.086 30.8398 106 30.9742 105.928C31.1093 105.859 31.2623 105.807 31.4352 105.778C31.6091 105.748 31.803 105.74 32.0168 105.755Z" fill="#EA6564"/>
</g>
<mask id="mask3_1_52" style="mask-type:luminance" maskUnits="userSpaceOnUse" x="27" y="76" width="90" height="85">
<path d="M27.908 104.159L91.2717 76.1284L116.159 132.386L52.7951 160.417L27.908 104.159Z" fill="white"/>
</mask>
<g mask="url(#mask3_1_52)">
<path d="M32.0169 105.755L99.2712 110.659C99.421 110.671 99.5786 110.709 99.7385 110.771C99.8977 110.83 100.059 110.913 100.211 111.012C100.364 111.11 100.506 111.225 100.634 111.351C100.76 111.477 100.87 111.611 100.954 111.752C101.037 111.891 101.085 112.022 101.103 112.138C101.12 112.255 101.105 112.358 101.062 112.442C101.019 112.526 100.948 112.591 100.849 112.631C100.75 112.673 100.625 112.69 100.476 112.68L33.2679 107.563C33.171 107.556 33.0809 107.56 32.9985 107.572C32.9144 107.586 32.8372 107.61 32.7676 107.647C32.6988 107.681 32.636 107.729 32.5807 107.789C32.523 107.849 32.4753 107.922 32.4335 108.009C32.3933 108.094 32.3615 108.195 32.3412 108.308C32.3192 108.421 32.3081 108.546 32.3076 108.687C32.3065 108.825 32.3145 108.976 32.3357 109.138C32.3552 109.302 32.3856 109.477 32.4292 109.663C32.5124 110.037 32.6421 110.454 32.8155 110.907C32.9888 111.361 33.2057 111.852 33.4666 112.371C33.7258 112.89 34.0273 113.439 34.3704 114.012C34.7136 114.585 35.097 115.177 35.5191 115.787C35.8368 116.245 36.1629 116.695 36.4982 117.135C36.8319 117.576 37.174 118.005 37.5199 118.42C37.8634 118.835 38.2137 119.238 38.5623 119.624C38.9108 120.01 39.2616 120.379 39.6083 120.73C39.9557 121.083 40.2968 121.412 40.633 121.722C40.9691 122.032 41.2973 122.319 41.6144 122.581C41.9315 122.843 42.2374 123.079 42.5259 123.29C42.8137 123.499 43.0872 123.68 43.3378 123.831C43.5058 123.933 43.664 124.021 43.8105 124.097C43.9571 124.172 44.0945 124.235 44.2227 124.287C44.3493 124.339 44.4683 124.378 44.5796 124.409C44.6909 124.44 44.793 124.459 44.8897 124.47L111.711 131.502C111.859 131.519 112.014 131.56 112.171 131.621C112.328 131.684 112.483 131.765 112.631 131.862C112.78 131.958 112.921 132.07 113.042 132.19C113.163 132.309 113.269 132.438 113.347 132.57C113.425 132.701 113.471 132.823 113.484 132.931C113.498 133.039 113.481 133.133 113.435 133.209C113.389 133.283 113.315 133.34 113.217 133.376C113.117 133.41 112.993 133.421 112.845 133.404L46.068 126.184C45.8544 126.16 45.6272 126.115 45.3935 126.05C45.1605 125.987 44.9195 125.901 44.6726 125.803C44.425 125.702 44.174 125.585 43.9186 125.454C43.6641 125.324 43.4068 125.18 43.15 125.023C42.8925 124.865 42.6329 124.698 42.3722 124.519C42.109 124.339 41.8478 124.15 41.5847 123.949C41.3207 123.749 41.0579 123.539 40.7938 123.322C40.5289 123.103 40.262 122.875 39.997 122.638C39.466 122.166 38.9325 121.658 38.4024 121.122C37.8707 120.586 37.3426 120.02 36.8241 119.43C36.3033 118.84 35.7906 118.225 35.2939 117.592C34.7964 116.957 34.3117 116.303 33.8468 115.636C33.4994 115.134 33.1748 114.643 32.8748 114.163C32.5739 113.682 32.296 113.213 32.0447 112.759C31.7927 112.304 31.5652 111.861 31.3635 111.436C31.1594 111.01 30.9836 110.599 30.8328 110.21C30.6812 109.818 30.5587 109.444 30.4618 109.093C30.3642 108.74 30.2932 108.407 30.2549 108.1C30.2143 107.792 30.2049 107.505 30.2268 107.246C30.2493 106.988 30.3046 106.755 30.3949 106.553C30.4546 106.418 30.5338 106.297 30.6294 106.191C30.7257 106.086 30.8398 106 30.9742 105.928C31.1094 105.859 31.2623 105.807 31.4353 105.778C31.6091 105.748 31.803 105.74 32.0169 105.755Z" stroke="#CE6532" stroke-width="1.21484"/>
</g>
</g>
<defs>
<clipPath id="clip0_1_52">
<rect width="157.687" height="110.461" fill="white" transform="translate(0.940063 64.5059) rotate(-23.8634)"/>
</clipPath>
</defs>
</svg>
