<svg width="139" height="129" viewBox="0 0 139 129" fill="none" xmlns="http://www.w3.org/2000/svg">
<path d="M127.503 28.0374H78.6429C74.0887 28.0374 70.2701 30.9457 69.2307 34.8654C68.1914 30.9457 64.3728 28.0374 59.8185 28.0374H10.958C5.60462 28.0374 1.26471 32.0553 1.26471 37.0115V102.986C1.26471 107.942 5.60462 111.96 10.958 111.96H59.8185C59.8726 111.96 59.9257 111.957 59.9795 111.956C62.2534 114.218 65.5411 115.641 69.1981 115.641C72.8563 115.641 76.1445 114.218 78.4184 111.955C78.4932 111.956 78.5675 111.96 78.6429 111.96H127.503C132.857 111.96 137.197 107.942 137.197 102.986V37.0115C137.197 32.0553 132.857 28.0374 127.503 28.0374Z" fill="#FF473E"/>
<path d="M70.3048 95.2656L70.4941 95.6607L71.0113 96.7025L71.7736 98.1752C72.0504 98.7139 72.3713 99.2888 72.6788 99.8636L73.1422 100.721C73.2922 101.007 73.4595 101.284 73.6433 101.552C73.8291 101.811 74.015 102.07 74.201 102.329C74.3666 102.576 74.5082 102.809 74.6067 103.025C74.7088 103.24 74.7801 103.438 74.8127 103.613C74.8433 103.762 74.85 103.915 74.8324 104.066C74.8014 104.318 74.6972 104.461 74.6972 104.461C72.6568 107.273 68.5409 108.021 65.5042 106.132C64.7928 105.687 64.1803 105.12 63.6996 104.461C63.6996 104.461 63.5954 104.318 63.5644 104.066C63.5468 103.915 63.5535 103.762 63.5841 103.613C63.6167 103.438 63.688 103.24 63.7901 103.025C63.8886 102.809 64.03 102.576 64.1958 102.329L64.7532 101.552C64.937 101.284 65.1042 101.007 65.2543 100.721L65.7177 99.8636C66.0252 99.2888 66.3461 98.7142 66.6229 98.1752L67.3855 96.7025L67.9027 95.6607L68.092 95.2656C68.1869 95.0672 68.342 94.8987 68.5384 94.7803C68.7348 94.662 68.9641 94.599 69.1984 94.599C69.4327 94.599 69.662 94.662 69.8584 94.7803C70.0548 94.8987 70.2099 95.0672 70.3048 95.2656Z" fill="#445056"/>
<path d="M122.805 22.5963H78.6623C74.0779 22.5963 70.2396 25.5436 69.2307 29.5024C68.2215 25.5436 64.3833 22.5963 59.7991 22.5963H15.6558C10.3024 22.5963 5.96246 26.6142 5.96246 31.5705V96.8091C5.96246 101.765 10.3024 105.783 15.6558 105.783H59.7989C64.3833 105.783 68.2215 102.836 69.2304 98.8772C70.2396 102.836 74.0779 105.783 78.662 105.783H122.805C128.159 105.783 132.498 101.765 132.498 96.8091V31.5705C132.499 26.614 128.159 22.5963 122.805 22.5963Z" fill="#A9B8C2"/>
<path d="M67.1954 16.3107C49.7916 6.64823 33.3105 29.805 15.9064 20.1426C14.3113 19.2489 13.0181 19.8118 13.0181 21.8163V95.0881C13.0181 96.7972 14.0197 98.316 15.3873 98.4955C15.5556 98.5177 15.7293 98.5743 15.9064 98.6735C33.3102 108.336 50.714 85.1791 68.1179 94.8415C68.3893 94.9936 68.7843 95.2666 69.1006 95.4852C69.7614 95.9416 71.0062 95.0305 71.0062 93.6572L68.9504 21.4481C68.9504 19.4875 68.7905 17.2046 67.1954 16.3107Z" fill="#DCE2E2"/>
<path d="M71.588 16.3107C88.9919 6.64823 106.396 29.805 123.799 20.1426C125.395 19.2489 126.688 19.8118 126.688 21.8163V93.9314C126.688 96.07 125.551 97.8823 123.932 98.6069C123.887 98.6273 123.842 98.6495 123.799 98.6735C106.396 108.336 88.9846 85.1592 71.588 94.8415C69.4824 96.0134 68.6997 95.6928 68.6997 94.5938V19.8559C68.6997 17.8953 69.993 17.2046 71.588 16.3107Z" fill="#F9F9F7"/>
</svg>
